<svg width="24" height="24" viewBox="0 0 24 24" fill="none" xmlns="http://www.w3.org/2000/svg">
<path d="M22.0497 16.7929C22.0407 17.5577 21.8956 18.3148 21.6214 19.0288C21.4217 19.5744 21.1054 20.0698 20.6946 20.4806C20.2838 20.8914 19.7883 21.2077 19.2428 21.4074C18.5288 21.6816 17.7718 21.8266 17.0071 21.8355C15.7226 21.8355 15.342 21.8355 12.2499 21.8355C9.15767 21.8355 8.63438 21.8355 7.49265 21.8355C6.67998 21.8429 5.87314 21.6977 5.11405 21.4074C4.59581 21.2176 4.12488 20.9173 3.73428 20.5273C3.33406 20.1312 3.02553 19.6522 2.8304 19.124C2.56761 18.4076 2.43099 17.6511 2.42622 16.8881C2.42622 15.6274 2.42622 15.223 2.42622 12.0119C2.42622 8.80079 2.42622 8.39646 2.42622 7.1358C2.42806 6.37249 2.56477 5.61552 2.8304 4.89991C3.02553 4.3717 3.33406 3.89267 3.73428 3.49655C4.13367 3.1061 4.61246 2.80598 5.13786 2.61648C5.85024 2.33663 6.60824 2.1914 7.3736 2.18827C8.63426 2.18827 9.01484 2.18827 12.1308 2.18827C15.2468 2.18827 15.7463 2.18827 16.888 2.18827C17.6528 2.19721 18.4098 2.34224 19.1238 2.61648C19.642 2.80633 20.1129 3.10662 20.5035 3.49655C20.9037 3.89267 21.2123 4.3717 21.4074 4.89991C21.6816 5.6139 21.8265 6.37101 21.8354 7.1358C21.8354 8.39646 21.8354 8.80079 21.8354 12.0119C21.8354 15.223 21.8354 15.6036 21.8354 16.8881L22.0497 16.7929ZM24 7.01683C23.9832 6.0178 23.7983 5.02878 23.453 4.0912C23.1421 3.28624 22.6639 2.55656 22.0497 1.95047C21.4491 1.33527 20.7172 0.863633 19.9089 0.570841C18.9764 0.204568 17.985 0.0111493 16.9832 0C15.675 0 15.2704 0 11.988 0C8.70548 0 8.3012 0 7.01676 0C6.01773 0.0167634 5.02871 0.201737 4.09112 0.547104C3.28307 0.851871 2.55209 1.33103 1.95032 1.95047C1.33614 2.55656 0.857861 3.28624 0.547032 4.0912C0.201664 5.02878 0.0167634 6.0178 0 7.01683C0 8.30127 0 8.72943 0 12.0119C0 15.2944 0 15.6987 0 16.9832C0.0167634 17.9822 0.201664 18.9713 0.547032 19.9089C0.862777 20.7113 1.34028 21.4401 1.95003 22.0499C2.55979 22.6596 3.28869 23.1372 4.09112 23.453C5.02871 23.7983 6.01773 23.9833 7.01676 24.0001C8.3012 24.0001 8.70548 24.0001 11.988 24.0001C15.2704 24.0001 15.675 24.0001 16.9594 24.0001C17.9659 23.9806 18.9624 23.7958 19.9089 23.453C20.7091 23.1382 21.4353 22.6607 22.0413 22.0506C22.6472 21.4405 23.1198 20.7112 23.4292 19.9089C23.784 18.9731 23.977 17.9837 24 16.9832C24 15.6987 24 15.2706 24 12.0119C24 8.75322 24 8.30127 24 7.01683Z" fill="#DFCC93"/>
<path d="M12.2025 15.9365C11.4017 15.9365 10.6188 15.6987 9.95337 15.2534C9.2879 14.808 8.76977 14.175 8.46443 13.4348C8.15909 12.6945 8.08028 11.8803 8.23824 11.0952C8.3962 10.3102 8.78386 9.58976 9.35176 9.02521C9.91965 8.46066 10.6421 8.07744 11.4281 7.92411C12.214 7.77078 13.0279 7.85424 13.7663 8.16394C14.5048 8.47364 15.1347 8.99561 15.5761 9.66371C16.0176 10.3318 16.2507 11.116 16.246 11.9167C16.246 12.4466 16.1414 12.9713 15.9379 13.4606C15.7344 13.9498 15.436 14.394 15.0602 14.7676C14.6844 15.1412 14.2385 15.4368 13.748 15.6374C13.2576 15.838 12.7324 15.9396 12.2025 15.9365ZM12.2025 5.70854C10.9746 5.70854 9.77426 6.07268 8.75333 6.75484C7.73241 7.437 6.93665 8.40657 6.46677 9.54096C5.99689 10.6753 5.87387 11.9236 6.11341 13.1279C6.35295 14.3321 6.94435 15.4383 7.81258 16.3065C8.6808 17.1747 9.78714 17.766 10.9914 18.0056C12.1957 18.2451 13.4438 18.1222 14.5782 17.6523C15.7126 17.1824 16.6823 16.3867 17.3644 15.3657C18.0466 14.3448 18.4106 13.1446 18.4106 11.9167C18.4137 11.1006 18.2551 10.2919 17.9443 9.53726C17.6334 8.78263 17.1765 8.09697 16.5993 7.51986C16.0222 6.94275 15.3366 6.48558 14.5819 6.17471C13.8273 5.86383 13.0186 5.7054 12.2025 5.70854Z" fill="#DFCC93"/>
<path d="M20.0989 5.44671C20.1036 5.73464 20.0225 6.01741 19.866 6.25912C19.7095 6.50084 19.4846 6.69058 19.22 6.80405C18.9553 6.91753 18.6627 6.94965 18.3797 6.89638C18.0967 6.84311 17.8361 6.70685 17.6308 6.50491C17.4255 6.30297 17.2849 6.04448 17.227 5.7624C17.169 5.48031 17.1963 5.18738 17.3053 4.92087C17.4144 4.65436 17.6005 4.42633 17.8396 4.26583C18.0787 4.10532 18.36 4.01957 18.648 4.01953C19.0287 4.01948 19.3942 4.16907 19.6657 4.43605C19.9371 4.70303 20.0926 5.06603 20.0989 5.44671Z" fill="#DFCC93"/>
</svg>
