<svg width="55" height="55" viewBox="0 0 55 55" fill="none" xmlns="http://www.w3.org/2000/svg">
<path d="M27.5 0C12.3362 0 0 12.3362 0 27.5C0 42.6638 12.3362 55 27.5 55C42.6638 55 55 42.6638 55 27.5C55 12.3362 42.6638 0 27.5 0ZM3.10893 31.7413L12.3946 24.8028L16.2756 27.0179L10.8607 31.4153L3.71288 34.3596C3.46378 33.4985 3.26216 32.6245 3.10893 31.7413ZM27.5 2.7452C41.1059 2.7452 52.1793 13.7757 52.2582 27.361L41.8059 19.6093L37.5749 21.85L29.957 15.9084L18.5558 25.1734L12.1938 21.5361L2.76578 28.5809C2.7452 28.2223 2.7452 27.8672 2.7452 27.5C2.7452 13.8461 13.8461 2.73833 27.5 2.73833V2.7452ZM52.0592 30.6124C51.8102 32.5937 51.3199 34.5372 50.5991 36.3996L27.5635 24.5318L19.6796 27.7814L29.9913 19.4085L37.2952 25.1014L41.564 22.8332L52.0592 30.6124ZM27.5 52.2617C22.5992 52.2562 17.81 50.7988 13.737 48.0733C9.66394 45.3479 6.48981 41.4767 4.61536 36.9486L27.4348 27.5463L49.4684 38.9011C47.379 42.9245 44.2259 46.2976 40.3525 48.6533C36.479 51.0091 32.0336 52.2571 27.5 52.2617Z" fill="#DFCC93"/>
</svg>
