<svg width="398" height="252" viewBox="0 0 398 252" fill="none" xmlns="http://www.w3.org/2000/svg">
<path d="M261.928 0C260.792 0 259.681 0.335342 258.736 0.963619C257.792 1.5919 257.055 2.48489 256.62 3.52968C256.186 4.57447 256.072 5.72412 256.293 6.83326C256.515 7.9424 257.062 8.96121 257.866 9.76086C258.669 10.5605 259.693 11.1051 260.807 11.3257C261.922 11.5463 263.077 11.4331 264.127 11.0003C265.176 10.5675 266.074 9.83469 266.705 8.8944C267.336 7.95412 267.673 6.84865 267.673 5.71778C267.673 4.20133 267.068 2.74699 265.99 1.6747C264.913 0.602407 263.452 0 261.928 0V0Z" fill="#DFCC93"/>
<path d="M242.013 0C240.876 0 239.766 0.335342 238.821 0.963619C237.876 1.5919 237.14 2.48489 236.705 3.52968C236.27 4.57447 236.156 5.72412 236.378 6.83326C236.6 7.9424 237.147 8.96121 237.95 9.76086C238.754 10.5605 239.777 11.1051 240.892 11.3257C242.006 11.5463 243.161 11.4331 244.211 11.0003C245.261 10.5675 246.158 9.83469 246.789 8.8944C247.421 7.95412 247.757 6.84865 247.757 5.71778C247.757 4.20133 247.152 2.74699 246.075 1.6747C244.997 0.602407 243.536 0 242.013 0V0Z" fill="#DFCC93"/>
<path d="M222.104 7.78837e-05C220.969 0.00597348 219.861 0.34632 218.92 0.978171C217.979 1.61002 217.248 2.50506 216.817 3.55036C216.387 4.59565 216.278 5.74435 216.503 6.85152C216.728 7.95869 217.277 8.9747 218.082 9.77137C218.887 10.568 219.91 11.1096 221.024 11.3279C222.137 11.5461 223.291 11.4311 224.339 10.9975C225.387 10.5639 226.282 9.83099 226.912 8.89136C227.542 7.95173 227.879 6.84745 227.879 5.71786C227.879 4.96447 227.729 4.21851 227.438 3.52284C227.148 2.82718 226.722 2.19553 226.185 1.66419C225.649 1.13285 225.012 0.712307 224.311 0.426723C223.611 0.141138 222.861 -0.0038542 222.104 7.78837e-05Z" fill="#DFCC93"/>
<path d="M294.557 20.7881H299.84C301.141 20.7881 301.963 21.0805 302.514 21.6296C302.708 21.8207 302.861 22.0487 302.964 22.2999C303.067 22.5512 303.118 22.8206 303.114 23.0919C303.122 23.5861 302.959 24.0681 302.654 24.4578C302.349 24.8475 301.918 25.1216 301.435 25.2346C302.634 25.5987 303.426 26.2253 303.426 27.5145C303.426 29.0126 302.191 30.1108 299.828 30.1108H294.605L294.557 20.7881ZM299.996 23.8022C299.996 23.3724 299.654 23.1576 298.982 23.1576H297.627V24.4706H299C299.654 24.4706 299.996 24.2558 299.996 23.826V23.8022ZM300.236 27.0788C300.236 26.667 299.9 26.3984 299.21 26.3984H297.627V27.7891H299.198C299.888 27.7891 300.236 27.5205 300.236 27.1087V27.0788Z" fill="#DFCC93"/>
<path d="M309.465 20.7881H317.495V23.3605H312.559V24.3095H317.159V26.5715H312.559V27.5921H317.567V30.1586H309.465V20.7881Z" fill="#DFCC93"/>
<path d="M323.827 20.7881H328.025C330.526 20.7881 332.223 21.8982 332.223 24.1244C332.223 26.3865 330.484 27.5921 327.941 27.5921H326.921V30.1347H323.827V20.7881ZM327.821 25.3838C328.631 25.3838 329.164 25.0317 329.164 24.3513C329.164 23.6708 328.685 23.3247 327.833 23.3247H326.945V25.4136L327.821 25.3838Z" fill="#DFCC93"/>
<path d="M346.993 20.7883L343.94 25.3542L347.125 30.1588H343.527L342.033 27.7236L340.522 30.1588H337.02L340.204 25.384L337.152 20.7764H340.75L342.111 23.0145L343.479 20.7764L346.993 20.7883Z" fill="#DFCC93"/>
<path d="M352.929 20.7881H356.078V24.0946H358.956V20.7881H362.104V30.1586H358.956V26.7983H356.078V30.1586H352.929V20.7881Z" fill="#DFCC93"/>
<path d="M374.83 30.1586V25.5927L371.268 30.1586H368.563V20.7881H371.711V25.151L375.129 20.7881H377.978V30.1586H374.83Z" fill="#DFCC93"/>
<path d="M384.443 20.7881H392.473V23.3605H387.537V24.3095H392.137V26.5715H387.537V27.5921H392.539V30.1586H384.443V20.7881Z" fill="#DFCC93"/>
<path d="M295.918 53.543H303.36V56.1333H299.006V62.7523H295.918V53.543Z" fill="#DFCC93"/>
<path d="M308.181 58.1746C308.19 57.5265 308.329 56.8867 308.59 56.2927C308.85 55.6987 309.227 55.1623 309.699 54.715C310.17 54.2676 310.726 53.9183 311.334 53.6873C311.943 53.4564 312.592 53.3485 313.242 53.37C313.891 53.3444 314.538 53.4486 315.145 53.6765C315.752 53.9044 316.306 54.2513 316.776 54.6966C317.246 55.1419 317.621 55.6765 317.879 56.2689C318.138 56.8612 318.274 57.4991 318.28 58.1448V58.1746C318.267 58.8202 318.125 59.4567 317.862 60.0473C317.6 60.6378 317.223 61.1707 316.752 61.6149C316.281 62.0591 315.726 62.4058 315.12 62.6348C314.513 62.8639 313.867 62.9708 313.218 62.9494C312.57 62.975 311.923 62.8707 311.316 62.6429C310.709 62.415 310.154 62.0681 309.685 61.6228C309.215 61.1775 308.84 60.6428 308.581 60.0505C308.323 59.4582 308.187 58.8203 308.181 58.1746ZM315.161 58.1746C315.176 57.9098 315.137 57.6447 315.046 57.3953C314.956 57.1458 314.815 56.9171 314.634 56.7227C314.453 56.5283 314.234 56.3722 313.991 56.2638C313.748 56.1554 313.485 56.0968 313.218 56.0916C312.955 56.096 312.696 56.1532 312.456 56.2598C312.215 56.3664 311.999 56.5201 311.82 56.7118C311.641 56.9035 311.502 57.1292 311.413 57.3755C311.324 57.6217 311.285 57.8833 311.299 58.1448V58.1746C311.285 58.4392 311.324 58.7039 311.415 58.953C311.505 59.2022 311.646 59.4305 311.827 59.6244C312.008 59.8183 312.227 59.9738 312.471 60.0816C312.714 60.1894 312.976 60.2472 313.242 60.2516C313.508 60.2482 313.77 60.1909 314.012 60.0831C314.255 59.9754 314.472 59.8195 314.652 59.625C314.832 59.4305 314.97 59.2016 315.057 58.9521C315.145 58.7027 315.18 58.4382 315.161 58.1746Z" fill="#DFCC93"/>
<path d="M333.242 62.7525H329.824L327.923 57.7032L326.004 62.7525H322.628L326.49 53.4775H329.398L333.242 62.7525Z" fill="#DFCC93"/>
<path d="M338.219 62.7523L339.964 59.7024L336.366 53.543H339.898L341.625 56.754L343.293 53.543H346.771L341.679 62.7523H338.219Z" fill="#DFCC93"/>
<path d="M351.892 53.543H359.688V56.0199H354.926V56.939H356.809C359.208 56.939 360.378 57.9656 360.378 59.6905C360.378 61.481 359.178 62.7284 356.558 62.7284H351.892V53.543ZM356.258 60.4664C356.995 60.4664 357.289 60.1859 357.289 59.78C357.289 59.3682 356.995 59.1354 356.204 59.1354H354.908V60.4902L356.258 60.4664Z" fill="#DFCC93"/>
<path d="M365.805 53.543H368.899V56.1512H369.966C372.425 56.1512 374.104 57.2434 374.104 59.3741C374.104 61.5467 372.401 62.7284 369.907 62.7284H365.805V53.543ZM369.733 60.347C370.524 60.347 371.052 60.0008 371.052 59.3741C371.052 58.7296 370.578 58.4311 369.745 58.4311H368.899V60.3768L369.733 60.347ZM374.728 53.543H377.798V62.7523H374.704L374.728 53.543Z" fill="#DFCC93"/>
<path d="M383.621 53.543H391.513V56.0676H386.661V57.0047H391.177V59.2249H386.661V60.2276H391.591V62.7523H383.621V53.543Z" fill="#DFCC93"/>
<path d="M96.1167 5.71777C43.117 5.71777 0 48.631 0 101.38C0 154.129 43.117 197.043 96.1167 197.043C149.116 197.043 192.233 154.129 192.233 101.38C192.233 48.631 149.116 5.71777 96.1167 5.71777ZM10.8662 116.134L43.3209 91.9977L56.8856 99.703L37.9597 115L12.9771 125.242C12.1064 122.247 11.4018 119.206 10.8662 116.134ZM96.1167 15.2673C143.671 15.2673 182.375 53.6385 182.65 100.897L146.118 73.9312L131.33 81.726L104.704 61.0573L64.8554 93.2869L42.6192 80.6338L9.66684 105.14C9.59488 103.893 9.59488 102.657 9.59488 101.38C9.59488 53.8832 48.3942 15.2434 96.1167 15.2434V15.2673ZM181.955 112.207C181.085 119.099 179.371 125.86 176.852 132.338L96.3386 91.0547L68.7833 102.359L104.824 73.2329L130.352 93.0362L145.272 85.1459L181.955 112.207ZM96.1167 187.517C78.9878 187.498 62.2486 182.428 48.0128 172.947C33.7769 163.467 22.6829 150 16.1314 134.248L95.8888 101.541L172.9 141.04C165.597 155.036 154.576 166.77 141.038 174.965C127.5 183.16 111.962 187.501 96.1167 187.517Z" fill="#DFCC93"/>
<path d="M373.966 90.3444C367.859 90.3508 362.004 92.7681 357.686 97.0659C353.368 101.364 350.939 107.191 350.933 113.269V126.662H336.378C335.232 113.02 329.015 100.294 318.944 90.9695C308.872 81.6454 295.669 76.3938 281.915 76.241H272.32V126.674H246.204V63.0328H281.364L270.533 53.4833H246.204V30.2839H267.457V20.7344H236.634V53.5071H227.824L230.859 63.0567H236.634V136.194H272.344V225.47H281.939V186.114C295.608 185.963 308.736 180.776 318.788 171.556C328.84 162.335 335.102 149.735 336.366 136.188H350.933V225.47H360.527V136.188H387.453V171.336L397.048 179.8V113.269C397.045 110.256 396.445 107.272 395.284 104.489C394.122 101.706 392.421 99.1778 390.278 97.0491C388.134 94.9203 385.591 93.2326 382.792 92.0822C379.993 90.9318 376.994 90.3413 373.966 90.3444ZM281.915 85.7666C293.134 85.9121 303.907 90.1605 312.182 97.7024C320.456 105.244 325.654 115.552 326.783 126.662H281.915V85.7666ZM281.915 176.589V136.188H326.723C325.481 147.199 320.243 157.379 311.992 164.818C303.742 172.257 293.047 176.443 281.915 176.589ZM373.966 99.8701C377.536 99.8732 380.958 101.286 383.482 103.798C386.006 106.31 387.426 109.717 387.429 113.269V126.662H360.503V113.269C360.507 109.717 361.926 106.31 364.45 103.798C366.974 101.286 370.397 99.8732 373.966 99.8701Z" fill="#DFCC93"/>
<path d="M217.552 137.275C220.093 134.248 221.754 130.586 222.352 126.686C222.95 122.786 222.463 118.798 220.945 115.154C219.426 111.511 216.934 108.35 213.738 106.017C210.543 103.683 206.766 102.265 202.818 101.917C202.818 105.123 202.626 108.304 202.314 111.437C205.373 111.821 208.171 113.348 210.142 115.708C212.112 118.068 213.108 121.086 212.928 124.149C212.747 127.212 211.403 130.093 209.169 132.208C206.934 134.322 203.976 135.513 200.893 135.538C200.692 135.539 200.492 135.553 200.293 135.58C199.202 135.633 198.122 135.711 197.049 135.824C196.611 137.107 196.113 138.367 195.628 139.626C195.142 140.886 194.536 142.306 193.996 143.571C193.619 144.425 193.271 145.29 192.875 146.132C202.772 144.001 213.09 144.977 222.406 148.926C231.723 152.875 239.58 159.602 244.894 168.181C250.208 176.76 252.719 186.768 252.08 196.826C251.44 206.884 247.683 216.498 241.325 224.342C234.967 232.186 226.321 237.874 216.579 240.623C206.837 243.373 196.478 243.047 186.929 239.692C177.38 236.337 169.112 230.117 163.264 221.89C157.415 213.662 154.274 203.832 154.274 193.754C154.274 192.56 154.334 191.432 154.412 190.286C151.297 192.319 148.076 194.185 144.763 195.879C145.161 206.688 148.575 217.173 154.623 226.159C160.671 235.145 169.114 242.278 179.006 246.757C188.898 251.236 199.847 252.886 210.628 251.52C221.408 250.155 231.594 245.828 240.043 239.026C248.492 232.223 254.871 223.213 258.465 213.006C262.058 202.798 262.725 191.796 260.39 181.233C258.055 170.669 252.811 160.962 245.245 153.198C237.678 145.434 228.089 139.92 217.552 137.275Z" fill="#DFCC93"/>
</svg>
