<svg width="183" height="40" viewBox="0 0 183 40" fill="none" xmlns="http://www.w3.org/2000/svg">
<g opacity="0.5">
<path d="M15.9369 20.0538H6.75946L5.38559 23.4592H0L8.95766 1.8916H13.7387L22.6964 23.4592H17.3108L15.9369 20.0538ZM8.51802 15.7835H14.1784L11.5405 9.29701L11.3757 8.59431H11.3207L11.1559 9.29701L8.51802 15.7835Z" fill="white"/>
<path d="M22.5317 1.18945H27.5326V23.5138H22.5317V1.18945Z" fill="white"/>
<path d="M28.4663 15.2968C28.4663 14.1076 28.6861 12.9725 29.1258 11.8914C29.5654 10.8103 30.2249 9.89139 31.0492 9.13463C31.8735 8.37788 32.8627 7.72923 33.9618 7.24274C35.1159 6.81031 36.3249 6.54004 37.6987 6.54004C39.0726 6.54004 40.3366 6.75626 41.4906 7.24274C42.6447 7.72923 43.6339 8.32382 44.4582 9.13463C45.2825 9.94544 45.942 10.8644 46.3816 11.8914C46.8213 12.9725 47.0411 14.1076 47.0411 15.2968C47.0411 15.6211 47.0411 15.8914 46.9861 16.1076C46.9861 16.3238 46.9312 16.486 46.8762 16.7022H33.5222C33.6321 17.2427 33.8519 17.6752 34.1267 18.1076C34.4014 18.54 34.7312 18.8644 35.1159 19.1346C35.5005 19.4049 35.8852 19.6752 36.3249 19.7833C36.7645 19.9454 37.2041 19.9995 37.6987 19.9995C38.4681 19.9995 39.1825 19.8373 39.7321 19.513C40.3366 19.1887 40.7762 18.7563 41.051 18.2698H46.4366C46.2168 18.9725 45.8321 19.6752 45.2825 20.3779C44.7879 21.0806 44.1285 21.6752 43.4141 22.2157C42.6996 22.7563 41.8204 23.1887 40.8312 23.513C39.842 23.8373 38.7978 23.9995 37.6438 23.9995C36.2699 23.9995 35.0059 23.7833 33.9068 23.2968C32.7528 22.8644 31.8186 22.2157 30.9942 21.4049C30.1699 20.5941 29.5654 19.6752 29.0708 18.6481C28.6861 17.6211 28.4663 16.486 28.4663 15.2968ZM37.7537 10.6481C36.8744 10.6481 36.105 10.8644 35.3906 11.3508C34.6762 11.8373 34.1816 12.4319 33.8519 13.2427H41.7105C41.5456 12.8644 41.3258 12.486 41.051 12.1617C40.7762 11.8373 40.5014 11.5671 40.1168 11.3508C39.787 11.1346 39.4023 10.9725 39.0177 10.8103C38.578 10.7022 38.1933 10.6481 37.7537 10.6481Z" fill="white"/>
<path d="M51.6032 18.3245C51.6581 18.811 51.9329 19.2434 52.3725 19.5137C52.8671 19.838 53.4716 19.9461 54.1861 19.9461C55.1201 19.9461 55.8345 19.838 56.2192 19.5678C56.6588 19.3515 56.8237 18.9732 56.8237 18.5407C56.8237 18.2705 56.7138 18.0542 56.5489 17.8921C56.3291 17.7299 56.0543 17.5678 55.6696 17.4596C55.2849 17.3515 54.8455 17.2434 54.296 17.1353C53.7464 17.0272 53.1419 16.9191 52.3725 16.7569C52.0428 16.7029 51.7131 16.5948 51.3284 16.5407C50.9437 16.4326 50.559 16.3245 50.1743 16.1623C49.7897 16.0002 49.405 15.838 49.0752 15.5678C48.7455 15.3515 48.4158 15.0813 48.141 14.7029C47.8662 14.3786 47.6464 13.9461 47.4816 13.5137C47.3167 13.0272 47.2617 12.4867 47.2617 11.838C47.2617 11.0272 47.4266 10.2705 47.7014 9.56775C48.0311 8.9191 48.4707 8.32451 49.0752 7.89208C49.6797 7.45964 50.5041 7.08127 51.4383 6.811C52.3725 6.54073 53.4716 6.43262 54.7906 6.43262C55.8345 6.43262 56.7687 6.54073 57.593 6.811C58.4174 7.08127 59.1318 7.45964 59.7363 7.94613C60.3408 8.43262 60.7804 9.02721 61.0552 9.67586C61.3849 10.3245 61.4948 11.0813 61.4948 11.8921H56.4939C56.439 11.5137 56.2741 11.1353 55.8894 10.865C55.5597 10.5948 55.0102 10.4326 54.4059 10.4326C53.6365 10.4326 53.087 10.5948 52.7023 10.865C52.3176 11.1353 52.1527 11.4596 52.1527 11.838C52.1527 12.0542 52.2077 12.2164 52.3176 12.3786C52.4275 12.5407 52.6473 12.6488 52.9221 12.7569C53.1969 12.865 53.5266 12.9191 53.9113 13.0272C54.296 13.0813 54.7906 13.1894 55.3948 13.2434C56.2741 13.4056 57.0984 13.5678 57.9228 13.784C58.6921 14.0002 59.4065 14.2705 60.011 14.6488C60.6156 15.0272 61.1102 15.5137 61.4399 16.0542C61.7696 16.5948 61.9894 17.4056 61.9894 18.2705C61.9894 19.2434 61.7696 20.1083 61.3849 20.811C61.0002 21.5137 60.4507 22.1083 59.7363 22.5948C59.0219 23.0813 58.1975 23.4056 57.2083 23.6218C56.2192 23.838 55.1201 23.9461 53.9662 23.9461C52.7023 23.9461 51.5482 23.784 50.6689 23.4596C49.7897 23.1353 49.0203 22.7029 48.4158 22.1623C47.8113 21.6218 47.3716 21.0272 47.0969 20.3245C46.8221 19.6218 46.6572 18.9732 46.6572 18.2705L51.6032 18.3245Z" fill="white"/>
<path d="M62.8687 1.18945H67.8696V14.0543L73.42 7.08132H79.2452L73.6398 13.9462L79.7948 23.5138H73.8596L70.0678 17.1354L67.8696 19.6759V23.5138H62.8687V1.18945Z" fill="white"/>
<path d="M77.5415 15.2968C77.5415 14.1076 77.7613 12.9725 78.201 11.8914C78.6406 10.8103 79.3001 9.89139 80.1244 9.13463C80.9487 8.37788 81.9379 7.72923 83.037 7.24274C84.1911 6.81031 85.4001 6.54004 86.7739 6.54004C88.1478 6.54004 89.4118 6.75626 90.5658 7.24274C91.7199 7.72923 92.7091 8.32382 93.5334 9.13463C94.3577 9.94544 95.0172 10.8644 95.4568 11.8914C95.8964 12.9725 96.1163 14.1076 96.1163 15.2968C96.1163 15.6211 96.1163 15.8914 96.0613 16.1076C96.0613 16.3238 96.0064 16.486 95.9514 16.7022H82.5974C82.7073 17.2427 82.9271 17.6752 83.2019 18.1076C83.4766 18.54 83.8064 18.8644 84.191 19.1346C84.5757 19.4049 84.9604 19.6752 85.4001 19.7833C85.8397 19.9454 86.2793 19.9995 86.7739 19.9995C87.5433 19.9995 88.2577 19.8373 88.8073 19.513C89.4118 19.1887 89.8514 18.7563 90.1262 18.2698H95.5118C95.2919 18.9725 94.9073 19.6752 94.3577 20.3779C93.8631 21.0806 93.2037 21.6752 92.4892 22.2157C91.7748 22.7563 90.8956 23.1887 89.9064 23.513C88.9172 23.8373 87.873 23.9995 86.719 23.9995C85.3451 23.9995 84.0811 23.7833 82.982 23.2968C81.828 22.8644 80.8937 22.2157 80.0694 21.4049C79.2451 20.5941 78.6406 19.6752 78.146 18.6481C77.7613 17.6211 77.5415 16.486 77.5415 15.2968ZM86.8289 10.6481C85.9496 10.6481 85.1802 10.8644 84.4658 11.3508C83.7514 11.8373 83.2568 12.4319 82.9271 13.2427H90.7856C90.6208 12.8644 90.401 12.486 90.1262 12.1617C89.8514 11.8373 89.5766 11.5671 89.1919 11.3508C88.8622 11.1346 88.4775 10.9725 88.0928 10.8103C87.7082 10.7022 87.2685 10.6481 86.8289 10.6481Z" fill="white"/>
<path d="M108.426 11.2976H106.338C104.964 11.2976 103.92 11.676 103.15 12.4327C102.381 13.1895 101.996 14.3246 101.996 15.8382V23.4598H97.0503V7.02734H101.062L101.447 8.59491C101.996 8.16248 102.656 7.7841 103.425 7.45978C104.194 7.18951 105.074 7.02734 106.118 7.02734H108.481V11.2976H108.426Z" fill="white"/>
<path d="M107.767 15.2968C107.767 14.1076 107.986 12.9725 108.426 11.8914C108.866 10.8103 109.525 9.89139 110.349 9.13463C111.174 8.37788 112.163 7.72923 113.262 7.24274C114.361 6.75626 115.68 6.54004 117.054 6.54004C118.428 6.54004 119.692 6.75626 120.846 7.24274C122 7.72923 122.989 8.32382 123.813 9.13463C124.638 9.94544 125.297 10.8644 125.737 11.8914C126.176 12.9184 126.396 14.1076 126.396 15.2968C126.396 16.486 126.176 17.6211 125.737 18.7022C125.297 19.7833 124.638 20.7022 123.813 21.459C122.989 22.2157 122 22.8644 120.846 23.3508C119.692 23.8373 118.428 24.0536 117.054 24.0536C115.68 24.0536 114.471 23.8373 113.317 23.3508C112.163 22.8644 111.229 22.2698 110.404 21.459C109.58 20.6481 108.976 19.7292 108.481 18.7022C107.986 17.6752 107.767 16.486 107.767 15.2968ZM112.713 15.2427C112.713 15.9454 112.822 16.54 113.042 17.0806C113.262 17.6211 113.592 18.1076 113.976 18.54C114.361 18.9184 114.856 19.2427 115.35 19.459C115.9 19.6752 116.449 19.7833 117.054 19.7833C117.658 19.7833 118.208 19.6752 118.758 19.459C119.307 19.2427 119.747 18.9184 120.131 18.54C120.516 18.1617 120.846 17.6752 121.066 17.0806C121.285 16.54 121.395 15.8914 121.395 15.1887C121.395 14.54 121.285 13.8914 121.066 13.3508C120.846 12.8103 120.516 12.3238 120.131 11.9454C119.747 11.5671 119.307 11.2427 118.758 11.0265C118.208 10.8103 117.658 10.7022 117.054 10.7022C116.449 10.7022 115.9 10.8103 115.35 11.0265C114.801 11.2427 114.361 11.5671 113.976 11.9454C113.592 12.3238 113.262 12.8103 113.042 13.3508C112.822 13.8914 112.713 14.5941 112.713 15.2427Z" fill="white"/>
<path d="M128.595 11.2432H125.517V7.02703H128.595V6.43243C128.595 5.67568 128.704 4.91892 128.869 4.16217C129.089 3.40541 129.419 2.7027 129.859 2.1081C130.353 1.51351 130.958 0.972978 131.727 0.5946C132.496 0.216219 133.486 0 134.695 0H138.047V3.99999H135.904C135.464 3.99999 135.079 4.05405 134.804 4.21621C134.53 4.32432 134.255 4.54053 134.09 4.75675C133.925 4.97297 133.76 5.24324 133.705 5.56757C133.65 5.89189 133.595 6.21622 133.595 6.54054V7.08108H138.047V11.2973H133.595V23.5135H128.595V11.2432Z" fill="white"/>
<path d="M139.805 11.2432H136.728V7.02703H139.805V6.43243C139.805 5.67568 139.915 4.91892 140.08 4.16217C140.3 3.40541 140.63 2.7027 141.069 2.1081C141.564 1.51351 142.169 0.972978 142.938 0.5946C143.707 0.216219 144.696 0 145.905 0H149.258V3.99999H147.115C146.675 3.99999 146.29 4.05405 146.015 4.21621C145.741 4.32432 145.466 4.54053 145.301 4.75675C145.136 4.97297 144.971 5.24324 144.916 5.56757C144.861 5.89189 144.806 6.21622 144.806 6.54054V7.08108H149.258V11.2973H144.806V23.5135H139.805V11.2432Z" fill="white"/>
<path d="M165.854 11.2976H163.765C162.392 11.2976 161.347 11.676 160.578 12.4327C159.809 13.1895 159.424 14.3246 159.424 15.8382V23.4598H154.478V7.02734H158.49L158.874 8.59491C159.424 8.16248 160.083 7.7841 160.853 7.45978C161.622 7.18951 162.501 7.02734 163.546 7.02734H165.909V11.2976H165.854Z" fill="white"/>
<path d="M174.207 19.7835C174.757 19.7835 175.251 19.7294 175.691 19.5672C176.131 19.4051 176.515 19.1889 176.79 18.8645C177.12 18.5402 177.34 18.1078 177.505 17.5672C177.669 17.0267 177.779 16.3781 177.779 15.5672V6.97266H182.78V15.7294C182.78 17.2429 182.56 18.4862 182.121 19.5132C181.681 20.5402 181.077 21.4051 180.307 22.0537C179.538 22.7024 178.659 23.1889 177.614 23.4591C176.57 23.7294 175.416 23.8916 174.207 23.8916C172.998 23.8916 171.844 23.7294 170.8 23.4591C169.756 23.1889 168.877 22.7024 168.107 22.0537C167.338 21.4051 166.733 20.5402 166.294 19.5132C165.854 18.4862 165.634 17.1889 165.634 15.7294V6.97266H170.635V15.5672C170.635 16.324 170.69 17.0267 170.855 17.5132C171.02 18.0537 171.24 18.4862 171.569 18.8105C171.899 19.1348 172.229 19.351 172.669 19.5132C173.163 19.7294 173.658 19.7835 174.207 19.7835Z" fill="white"/>
<path d="M152.115 18.5947H147.169V23.4596H152.115V18.5947Z" fill="white"/>
<path d="M96.9956 34.5406C96.9956 34.1082 97.0506 33.7298 97.2154 33.3515C97.3803 32.9731 97.5452 32.6488 97.8199 32.3785C98.0947 32.1082 98.4244 31.892 98.7542 31.7298C99.1388 31.5677 99.5785 31.5136 100.018 31.5136C100.348 31.5136 100.678 31.5677 100.952 31.6758C101.227 31.7839 101.447 31.892 101.667 32.0542V29.6758H103.37V37.3515H101.887L101.777 36.865C101.557 37.0271 101.282 37.1893 101.007 37.3515C100.733 37.5136 100.348 37.5677 100.018 37.5677C99.5235 37.5677 99.1388 37.5136 98.7542 37.3515C98.3695 37.1893 98.0397 36.9731 97.765 36.7028C97.4902 36.4325 97.2704 36.1082 97.1605 35.7298C97.0506 35.3515 96.9956 34.9731 96.9956 34.5406ZM98.6992 34.5406C98.6992 34.7569 98.7542 34.9731 98.8091 35.1893C98.8641 35.4055 98.974 35.5677 99.1388 35.6758C99.3037 35.8379 99.4136 35.9461 99.6334 36.0001C99.8533 36.0542 100.018 36.1082 100.238 36.1082C100.458 36.1082 100.623 36.0542 100.842 36.0001C101.007 35.9461 101.172 35.8379 101.337 35.6758C101.502 35.5136 101.612 35.3515 101.667 35.1893C101.722 34.9731 101.777 34.7569 101.777 34.5406C101.777 34.3244 101.722 34.1082 101.667 33.892C101.612 33.6758 101.502 33.5136 101.337 33.4055C101.172 33.2434 101.062 33.1893 100.842 33.0812C100.678 33.0271 100.458 32.9731 100.238 32.9731C100.018 32.9731 99.7983 33.0271 99.6334 33.0812C99.4686 33.1352 99.3037 33.2434 99.1388 33.4055C99.0289 33.5677 98.919 33.7298 98.8091 33.892C98.7542 34.1082 98.6992 34.3244 98.6992 34.5406Z" fill="white"/>
<path d="M105.898 31.7295H104.195V37.4052H105.898V31.7295Z" fill="white"/>
<path d="M106.448 34.5407C106.448 34.1083 106.503 33.7299 106.668 33.3515C106.832 32.9731 106.997 32.6488 107.272 32.3785C107.547 32.1083 107.877 31.892 108.261 31.7299C108.646 31.5677 109.086 31.5137 109.525 31.5137C109.745 31.5137 109.91 31.5137 110.075 31.5677C110.24 31.6218 110.405 31.6758 110.569 31.7299C110.734 31.7839 110.844 31.838 111.009 31.9461C111.119 32.0002 111.284 32.1083 111.339 32.2164L111.449 31.7299H112.823V36.9731C112.823 37.4056 112.768 37.7839 112.603 38.1623C112.438 38.5407 112.273 38.811 111.998 39.0812C111.723 39.3515 111.394 39.5137 111.009 39.6758C110.624 39.838 110.185 39.892 109.69 39.892C109.36 39.892 109.031 39.838 108.756 39.7839C108.481 39.7299 108.206 39.6218 108.041 39.5137C107.877 39.4056 107.657 39.2975 107.492 39.1353C107.327 38.9731 107.217 38.811 107.107 38.6488C106.997 38.4866 106.942 38.3245 106.887 38.1083C106.832 37.8921 106.777 37.7299 106.777 37.5677H108.426C108.481 37.6758 108.536 37.7839 108.591 37.8921C108.646 38.0002 108.756 38.0542 108.866 38.1623C108.976 38.2704 109.086 38.2704 109.25 38.3245C109.415 38.3785 109.58 38.3785 109.745 38.3785C110.02 38.3785 110.295 38.3245 110.459 38.2164C110.624 38.1083 110.789 38.0002 110.899 37.838C111.009 37.6758 111.064 37.5677 111.119 37.4056C111.174 37.2434 111.174 37.0812 111.174 36.9731V36.811C110.954 36.9731 110.679 37.1353 110.405 37.2434C110.13 37.3515 109.745 37.4056 109.36 37.4056C108.921 37.4056 108.536 37.3515 108.151 37.1893C107.767 37.0272 107.492 36.865 107.217 36.5948C106.942 36.3245 106.777 36.0002 106.613 35.6758C106.503 35.3515 106.448 34.9731 106.448 34.5407ZM108.151 34.5407C108.151 34.7569 108.206 34.9731 108.261 35.1893C108.316 35.4056 108.426 35.5677 108.591 35.6758C108.756 35.838 108.866 35.8921 109.086 36.0002C109.25 36.0542 109.47 36.1083 109.69 36.1083C109.91 36.1083 110.075 36.0542 110.295 36.0002C110.459 35.9461 110.624 35.838 110.789 35.6758C110.899 35.5137 111.009 35.3515 111.119 35.1893C111.174 34.9731 111.229 34.7569 111.229 34.5407C111.229 34.3245 111.174 34.1083 111.119 33.892C111.064 33.6758 110.954 33.5137 110.789 33.4056C110.624 33.2434 110.514 33.1893 110.295 33.0812C110.13 33.0272 109.91 32.9731 109.69 32.9731C109.47 32.9731 109.25 33.0272 109.086 33.0812C108.921 33.1353 108.756 33.2434 108.591 33.4056C108.481 33.5677 108.371 33.7299 108.261 33.892C108.206 34.1083 108.151 34.3245 108.151 34.5407Z" fill="white"/>
<path d="M115.351 31.7295H113.647V37.4052H115.351V31.7295Z" fill="white"/>
<path d="M116.999 30.1621H118.208V31.7297H119.857V33.1891H118.208V35.1891C118.208 35.3513 118.208 35.5135 118.263 35.6216C118.318 35.7297 118.373 35.8378 118.428 35.8918C118.483 35.9459 118.593 35.9999 118.703 36.054C118.813 36.054 118.923 36.1081 119.032 36.1081H119.967V37.5135H118.868C118.538 37.5135 118.263 37.4594 117.933 37.4054C117.604 37.3513 117.384 37.2432 117.164 37.081C116.944 36.9189 116.779 36.7026 116.669 36.3783C116.56 36.054 116.505 35.6756 116.505 35.2432V33.2432H115.57V31.9459L116.45 31.6216L116.999 30.1621Z" fill="white"/>
<path d="M120.077 34.5407C120.077 34.1083 120.132 33.7299 120.296 33.3515C120.461 32.9731 120.626 32.6488 120.901 32.3785C121.176 32.1083 121.505 31.892 121.89 31.7299C122.275 31.5677 122.715 31.5137 123.154 31.5137C123.539 31.5137 123.869 31.5677 124.198 31.6758C124.528 31.7839 124.748 31.9461 124.968 32.1083L125.023 31.6758H126.506V37.3515H125.023L124.968 36.9191C124.748 37.0812 124.473 37.2434 124.198 37.3515C123.924 37.4596 123.539 37.5137 123.154 37.5137C122.66 37.5137 122.275 37.4596 121.89 37.2975C121.505 37.1353 121.176 36.9191 120.901 36.6488C120.626 36.3785 120.406 36.0542 120.296 35.6758C120.132 35.3515 120.077 34.9731 120.077 34.5407ZM121.78 34.5407C121.78 34.7569 121.835 34.9731 121.89 35.1893C121.945 35.4056 122.055 35.5677 122.22 35.6758C122.385 35.838 122.495 35.8921 122.714 36.0002C122.879 36.0542 123.099 36.1083 123.319 36.1083C123.539 36.1083 123.704 36.0542 123.924 36.0002C124.088 35.9461 124.253 35.838 124.418 35.6758C124.583 35.5137 124.693 35.3515 124.748 35.1893C124.803 34.9731 124.858 34.7569 124.858 34.5407C124.858 34.3245 124.803 34.1083 124.748 33.892C124.693 33.6758 124.583 33.5137 124.418 33.4056C124.253 33.2434 124.143 33.1893 123.924 33.0812C123.759 33.0272 123.539 32.9731 123.319 32.9731C123.099 32.9731 122.879 33.0272 122.714 33.0812C122.55 33.1353 122.385 33.2434 122.22 33.4056C122.11 33.5677 122 33.7299 121.89 33.892C121.835 34.1083 121.78 34.3245 121.78 34.5407Z" fill="white"/>
<path d="M127.275 29.6758H128.979V37.3515H127.275V29.6758Z" fill="white"/>
<path d="M131.672 28.4863H133.321V39.4592H131.672V28.4863Z" fill="white"/>
<path d="M142.443 34.5406C142.443 34.9731 142.388 35.3515 142.224 35.7298C142.059 36.1082 141.894 36.4325 141.619 36.7028C141.344 36.9731 141.015 37.1893 140.63 37.3515C140.245 37.5136 139.806 37.5677 139.366 37.5677C139.201 37.5677 138.981 37.5677 138.816 37.5136C138.652 37.4596 138.487 37.4596 138.322 37.3515C138.157 37.2974 138.047 37.2434 137.882 37.1352C137.772 37.0812 137.607 36.9731 137.552 36.919L137.497 37.3515H136.014V29.6758H137.717V32.0542C137.937 31.892 138.157 31.7839 138.432 31.6758C138.706 31.5677 139.036 31.5136 139.366 31.5136C139.861 31.5136 140.245 31.5677 140.63 31.7298C141.015 31.892 141.344 32.1082 141.564 32.3785C141.784 32.6488 142.004 32.9731 142.169 33.3515C142.334 33.7298 142.443 34.1082 142.443 34.5406ZM140.74 34.5406C140.74 34.3244 140.685 34.1082 140.63 33.892C140.575 33.6758 140.465 33.5136 140.3 33.4055C140.19 33.2434 140.025 33.1893 139.806 33.0812C139.641 33.0271 139.421 32.9731 139.201 32.9731C138.981 32.9731 138.816 33.0271 138.597 33.0812C138.432 33.1352 138.267 33.2434 138.102 33.4055C137.937 33.5677 137.827 33.7298 137.772 33.892C137.717 34.1082 137.662 34.2704 137.662 34.5406C137.662 34.7569 137.717 34.9731 137.772 35.1893C137.827 35.4055 137.937 35.5677 138.102 35.6758C138.267 35.8379 138.377 35.892 138.597 36.0001C138.816 36.1082 138.981 36.1082 139.201 36.1082C139.421 36.1082 139.586 36.0542 139.806 36.0001C140.025 35.9461 140.135 35.8379 140.3 35.6758C140.465 35.5136 140.575 35.3515 140.63 35.1893C140.685 34.9731 140.74 34.7569 140.74 34.5406Z" fill="white"/>
<path d="M146.84 33.1889H146.125C145.631 33.1889 145.301 33.297 145.026 33.5673C144.751 33.8375 144.642 34.2159 144.642 34.7565V37.4052H142.938V31.7295H144.312L144.422 32.27C144.587 32.1079 144.806 31.9997 145.081 31.8916C145.356 31.7835 145.631 31.7295 146.015 31.7295H146.84V33.1889Z" fill="white"/>
<path d="M146.73 34.5407C146.73 34.1083 146.785 33.7299 146.95 33.3515C147.115 32.9731 147.28 32.6488 147.554 32.3785C147.829 32.1083 148.159 31.892 148.543 31.7299C148.928 31.5677 149.368 31.5137 149.807 31.5137C150.192 31.5137 150.522 31.5677 150.852 31.6758C151.181 31.7839 151.401 31.9461 151.621 32.1083L151.676 31.6758H153.16V37.3515H151.676L151.621 36.9191C151.401 37.0812 151.126 37.2434 150.852 37.3515C150.577 37.4596 150.192 37.5137 149.807 37.5137C149.313 37.5137 148.928 37.4596 148.543 37.2975C148.159 37.1353 147.829 36.9191 147.554 36.6488C147.28 36.3785 147.06 36.0542 146.95 35.6758C146.785 35.3515 146.73 34.9731 146.73 34.5407ZM148.434 34.5407C148.434 34.7569 148.489 34.9731 148.543 35.1893C148.598 35.4056 148.708 35.5677 148.873 35.6758C149.038 35.838 149.148 35.8921 149.368 36.0002C149.533 36.0542 149.752 36.1083 149.972 36.1083C150.192 36.1083 150.357 36.0542 150.577 36.0002C150.742 35.9461 150.907 35.838 151.071 35.6758C151.236 35.5137 151.346 35.3515 151.401 35.1893C151.456 34.9731 151.511 34.7569 151.511 34.5407C151.511 34.3245 151.456 34.1083 151.401 33.892C151.346 33.6758 151.236 33.5137 151.071 33.4056C150.907 33.2434 150.797 33.1893 150.577 33.0812C150.412 33.0272 150.192 32.9731 149.972 32.9731C149.752 32.9731 149.533 33.0272 149.368 33.0812C149.203 33.1353 149.038 33.2434 148.873 33.4056C148.763 33.5677 148.653 33.7299 148.543 33.892C148.489 34.1083 148.434 34.3245 148.434 34.5407Z" fill="white"/>
<path d="M159.864 37.3512H158.16V34.3782C158.16 34.1079 158.105 33.8917 158.05 33.7295C157.995 33.5674 157.94 33.4052 157.831 33.2971C157.721 33.189 157.611 33.135 157.446 33.0809C157.281 33.0268 157.171 33.0268 157.006 33.0268C156.786 33.0268 156.622 33.0809 156.457 33.135C156.292 33.189 156.127 33.2971 156.017 33.4593C155.907 33.6214 155.797 33.7836 155.742 33.9458C155.687 34.162 155.632 34.3241 155.632 34.5404V37.4052H153.929V31.7295H155.303L155.412 32.162C155.522 32.1079 155.687 31.9998 155.797 31.9458C155.907 31.8917 156.072 31.7836 156.237 31.7295C156.402 31.6755 156.567 31.6214 156.731 31.6214C156.896 31.5674 157.061 31.5674 157.226 31.5674C157.666 31.5674 158.105 31.6214 158.435 31.7836C158.765 31.9458 159.04 32.1079 159.259 32.3241C159.479 32.5404 159.644 32.8647 159.699 33.189C159.809 33.5133 159.864 33.9458 159.864 34.3782V37.3512Z" fill="white"/>
<path d="M160.194 34.5406C160.194 34.1082 160.249 33.7298 160.414 33.3515C160.579 32.9731 160.743 32.6488 161.018 32.3785C161.293 32.1082 161.623 31.892 161.952 31.7298C162.337 31.5677 162.777 31.5136 163.216 31.5136C163.546 31.5136 163.876 31.5677 164.151 31.6758C164.425 31.7839 164.645 31.892 164.865 32.0542V29.6758H166.569V37.3515H165.085L164.975 36.865C164.755 37.0271 164.48 37.1893 164.206 37.3515C163.931 37.4596 163.546 37.5677 163.216 37.5677C162.722 37.5677 162.337 37.5136 161.952 37.3515C161.568 37.1893 161.238 36.9731 160.963 36.7028C160.688 36.4325 160.469 36.1082 160.359 35.7298C160.304 35.3515 160.194 34.9731 160.194 34.5406ZM161.952 34.5406C161.952 34.7569 162.007 34.9731 162.062 35.1893C162.117 35.4055 162.227 35.5677 162.392 35.6758C162.557 35.8379 162.667 35.9461 162.887 36.0001C163.051 36.0542 163.271 36.1082 163.491 36.1082C163.711 36.1082 163.876 36.0542 164.096 36.0001C164.315 35.9461 164.425 35.8379 164.59 35.6758C164.755 35.5136 164.865 35.3515 164.92 35.1893C164.975 34.9731 165.03 34.7569 165.03 34.5406C165.03 34.3244 164.975 34.1082 164.92 33.892C164.865 33.6758 164.755 33.5136 164.59 33.4055C164.425 33.2434 164.315 33.1893 164.096 33.0812C163.876 32.9731 163.711 32.9731 163.491 32.9731C163.271 32.9731 163.051 33.0271 162.887 33.0812C162.722 33.1352 162.557 33.2434 162.392 33.4055C162.282 33.5677 162.172 33.7298 162.062 33.892C161.952 34.1082 161.952 34.3244 161.952 34.5406Z" fill="white"/>
<path d="M169.151 31.7295H167.448V37.4052H169.151V31.7295Z" fill="white"/>
<path d="M175.966 37.3512H174.262V34.3782C174.262 34.1079 174.207 33.8917 174.152 33.7295C174.097 33.5674 174.042 33.4052 173.933 33.2971C173.823 33.189 173.713 33.135 173.548 33.0809C173.383 33.0268 173.273 33.0268 173.108 33.0268C172.888 33.0268 172.724 33.0809 172.559 33.135C172.394 33.189 172.229 33.2971 172.119 33.4593C172.009 33.6214 171.899 33.7836 171.844 33.9458C171.789 34.162 171.734 34.3241 171.734 34.5404V37.4052H170.031V31.7295H171.405L171.515 32.162C171.624 32.1079 171.789 31.9998 171.899 31.9458C172.009 31.8917 172.174 31.7836 172.339 31.7295C172.504 31.6755 172.669 31.6214 172.833 31.6214C172.998 31.5674 173.163 31.5674 173.328 31.5674C173.768 31.5674 174.207 31.6214 174.537 31.7836C174.867 31.9458 175.142 32.1079 175.361 32.3241C175.581 32.5404 175.746 32.8647 175.801 33.189C175.911 33.5133 175.966 33.9458 175.966 34.3782V37.3512Z" fill="white"/>
<path d="M176.295 34.5407C176.295 34.1083 176.35 33.7299 176.515 33.3515C176.68 32.9731 176.845 32.6488 177.12 32.3785C177.395 32.1083 177.724 31.892 178.109 31.7299C178.494 31.5677 178.933 31.5137 179.373 31.5137C179.593 31.5137 179.758 31.5137 179.922 31.5677C180.087 31.6218 180.252 31.6758 180.417 31.7299C180.582 31.7839 180.692 31.838 180.857 31.9461C180.967 32.0002 181.131 32.1083 181.186 32.2164L181.296 31.7299H182.67V36.9731C182.67 37.4056 182.615 37.7839 182.45 38.1623C182.286 38.5407 182.121 38.811 181.846 39.0812C181.571 39.3515 181.241 39.5137 180.857 39.6758C180.472 39.838 180.032 39.892 179.538 39.892C179.208 39.892 178.878 39.838 178.604 39.7839C178.329 39.7299 178.054 39.6218 177.889 39.5137C177.724 39.4056 177.504 39.2975 177.34 39.1353C177.175 38.9731 177.065 38.811 176.955 38.6488C176.845 38.4866 176.79 38.3245 176.735 38.1083C176.68 37.8921 176.625 37.7299 176.625 37.5677H178.274C178.329 37.6758 178.384 37.7839 178.439 37.8921C178.494 38.0002 178.604 38.0542 178.713 38.1623C178.823 38.2704 178.933 38.2704 179.098 38.3245C179.263 38.3785 179.428 38.3785 179.593 38.3785C179.867 38.3785 180.142 38.3245 180.307 38.2164C180.472 38.1083 180.637 38.0002 180.747 37.838C180.857 37.6758 180.912 37.5677 180.967 37.4056C181.022 37.2434 181.022 37.0812 181.022 36.9731V36.811C180.802 36.9731 180.527 37.1353 180.252 37.2434C179.977 37.3515 179.593 37.4056 179.208 37.4056C178.768 37.4056 178.384 37.3515 177.999 37.1893C177.614 37.0272 177.34 36.865 177.065 36.5948C176.79 36.3245 176.625 36.0002 176.46 35.6758C176.35 35.3515 176.295 34.9731 176.295 34.5407ZM177.999 34.5407C177.999 34.7569 178.054 34.9731 178.109 35.1893C178.164 35.4056 178.274 35.5677 178.439 35.6758C178.604 35.838 178.713 35.8921 178.933 36.0002C179.098 36.0542 179.318 36.1083 179.538 36.1083C179.758 36.1083 179.922 36.0542 180.142 36.0002C180.307 35.9461 180.472 35.838 180.637 35.6758C180.747 35.5137 180.857 35.3515 180.967 35.1893C181.022 34.9731 181.077 34.7569 181.077 34.5407C181.077 34.3245 181.022 34.1083 180.967 33.892C180.912 33.6758 180.802 33.5137 180.637 33.4056C180.472 33.2434 180.362 33.1893 180.142 33.0812C179.977 33.0272 179.758 32.9731 179.538 32.9731C179.318 32.9731 179.098 33.0272 178.933 33.0812C178.768 33.1353 178.604 33.2434 178.439 33.4056C178.329 33.5677 178.219 33.7299 178.109 33.892C178.054 34.1083 177.999 34.3245 177.999 34.5407Z" fill="white"/>
<path d="M105.953 29.6758H104.25V31.3515H105.953V29.6758Z" fill="white"/>
<path d="M115.351 29.6758H113.647V31.3515H115.351V29.6758Z" fill="white"/>
<path d="M169.151 29.6758H167.448V31.3515H169.151V29.6758Z" fill="white"/>
</g>
</svg>
