<svg width="32" height="32" viewBox="0 0 32 32" fill="none" xmlns="http://www.w3.org/2000/svg">
<g clip-path="url(#clip0_120_9514)">
<path d="M20.2172 7H9.53263L5.67432 11.357H20.2172V7Z" fill="#306261"/>
<path d="M31.187 20.6769C30.3517 20.7133 29.5246 20.4982 28.8127 20.0595C27.9683 19.5842 27.0156 19.3345 26.0466 19.3345C25.0776 19.3345 24.1249 19.5842 23.2805 20.0595C22.5686 20.4982 21.7415 20.7133 20.9061 20.6769C20.071 20.7104 19.2448 20.4955 18.5318 20.0595C17.6892 19.5852 16.7385 19.3361 15.7716 19.3361C14.8047 19.3361 13.854 19.5852 13.0114 20.0595C12.3009 20.4589 11.4996 20.6687 10.6846 20.6687C9.86952 20.6687 9.06819 20.4589 8.3577 20.0595C7.51508 19.5852 6.56446 19.3361 5.59752 19.3361C4.63059 19.3361 3.67997 19.5852 2.83735 20.0595C2.12434 20.4955 1.29808 20.7104 0.462999 20.6769C0.340205 20.6769 0.222439 20.7257 0.13561 20.8125C0.048781 20.8993 2.32257e-08 21.0171 2.32257e-08 21.1399C-3.87055e-05 21.2638 0.048359 21.3828 0.134863 21.4715C0.221366 21.5602 0.339125 21.6116 0.462999 21.6147C1.43408 21.6322 2.39117 21.3816 3.22911 20.8905C3.9396 20.4912 4.74093 20.2814 5.55597 20.2814C6.37101 20.2814 7.17234 20.4912 7.88283 20.8905C8.71636 21.3818 9.66971 21.6324 10.6371 21.6147C11.6079 21.6303 12.5645 21.3799 13.4032 20.8905C14.11 20.4866 14.91 20.2741 15.7241 20.2741C16.5382 20.2741 17.3382 20.4866 18.045 20.8905C18.8877 21.3648 19.8383 21.614 20.8052 21.614C21.7721 21.614 22.7228 21.3648 23.5654 20.8905C24.2759 20.4912 25.0772 20.2814 25.8923 20.2814C26.7073 20.2814 27.5086 20.4912 28.2191 20.8905C29.0534 21.3801 30.0062 21.6306 30.9734 21.6147C31.0993 21.6147 31.2201 21.5647 31.3091 21.4756C31.3982 21.3866 31.4482 21.2658 31.4482 21.1399C31.4575 21.0452 31.4374 20.95 31.3907 20.8671C31.344 20.7843 31.2729 20.7179 31.187 20.6769Z" fill="#306261"/>
<path d="M31.187 23.3481C30.3536 23.3809 29.5286 23.1706 28.8127 22.7426C27.9683 22.2673 27.0156 22.0176 26.0466 22.0176C25.0776 22.0176 24.1249 22.2673 23.2805 22.7426C22.5645 23.1706 21.7396 23.3809 20.9061 23.3481C20.0729 23.3789 19.2485 23.1687 18.5318 22.7426C17.6892 22.2683 16.7385 22.0192 15.7716 22.0192C14.8047 22.0192 13.854 22.2683 13.0114 22.7426C12.3009 23.142 11.4996 23.3518 10.6846 23.3518C9.86952 23.3518 9.06819 23.142 8.3577 22.7426C7.51508 22.2683 6.56446 22.0192 5.59752 22.0192C4.63059 22.0192 3.67997 22.2683 2.83735 22.7426C2.12063 23.1687 1.29622 23.3789 0.462999 23.3481C0.339125 23.3512 0.221366 23.4025 0.134863 23.4913C0.048359 23.58 -3.87055e-05 23.6991 2.32257e-08 23.823C2.32257e-08 23.9458 0.048781 24.0635 0.13561 24.1503C0.222439 24.2372 0.340205 24.2859 0.462999 24.2859C1.43474 24.309 2.39336 24.0581 3.22911 23.5618C3.9396 23.1624 4.74093 22.9526 5.55597 22.9526C6.37102 22.9526 7.17234 23.1624 7.88283 23.5618C8.71414 24.0583 9.66904 24.3094 10.6371 24.2859C11.6086 24.3071 12.5667 24.0563 13.4032 23.5618C14.1122 23.1645 14.9114 22.9559 15.7241 22.9559C16.5368 22.9559 17.336 23.1645 18.045 23.5618C18.8877 24.036 19.8383 24.2852 20.8052 24.2852C21.7722 24.2852 22.7228 24.036 23.5654 23.5618C24.2759 23.1624 25.0772 22.9526 25.8923 22.9526C26.7073 22.9526 27.5086 23.1624 28.2191 23.5618C29.0512 24.0565 30.0055 24.3074 30.9734 24.2859C31.0351 24.2875 31.0966 24.2767 31.1542 24.2542C31.2117 24.2316 31.2642 24.1978 31.3084 24.1546C31.3527 24.1115 31.3879 24.0599 31.4119 24.0029C31.4359 23.9459 31.4482 23.8848 31.4482 23.823C31.4583 23.7266 31.4387 23.6295 31.392 23.5446C31.3453 23.4597 31.2738 23.3911 31.187 23.3481Z" fill="#306261"/>
<path d="M31.187 17.994C30.3516 18.0304 29.5245 17.8153 28.8127 17.3766C28.2736 17.0726 27.688 16.8601 27.0794 16.7475L29.0739 12.2837H2.74237L4.77243 16.7475C4.16389 16.8601 3.57821 17.0726 3.03916 17.3766C2.32616 17.8127 1.49989 18.0275 0.664813 17.994C0.541794 17.9968 0.424421 18.0462 0.336316 18.1321C0.248211 18.218 0.195911 18.3341 0.189941 18.457C0.189903 18.5809 0.2383 18.6999 0.324804 18.7887C0.411308 18.8774 0.529066 18.9288 0.652941 18.9319C1.62468 18.955 2.5833 18.704 3.41905 18.2077C4.12955 17.8083 4.93087 17.5985 5.74591 17.5985C6.56096 17.5985 7.36228 17.8083 8.07277 18.2077C8.90408 18.7042 9.85898 18.9554 10.827 18.9319C11.7985 18.9531 12.7566 18.7022 13.5931 18.2077C14.2999 17.8037 15.0999 17.5913 15.9141 17.5913C16.7282 17.5913 17.5282 17.8037 18.235 18.2077C19.0776 18.682 20.0282 18.9311 20.9952 18.9311C21.9621 18.9311 22.9127 18.682 23.7553 18.2077C24.4658 17.8083 25.2671 17.5985 26.0822 17.5985C26.8972 17.5985 27.6986 17.8083 28.409 18.2077C29.2411 18.7024 30.1955 18.9534 31.1633 18.9319C31.2311 18.9427 31.3005 18.9387 31.3666 18.9201C31.4328 18.9015 31.4941 18.8688 31.5463 18.8242C31.5986 18.7797 31.6406 18.7242 31.6693 18.6618C31.6981 18.5995 31.713 18.5316 31.713 18.4629C31.713 18.3943 31.6981 18.3263 31.6693 18.264C31.6406 18.2016 31.5986 18.1462 31.5463 18.1017C31.4941 18.0571 31.4328 18.0244 31.3666 18.0058C31.3005 17.9872 31.2311 17.9832 31.1633 17.994H31.187Z" fill="#306261"/>
</g>
<defs>
<clipPath id="clip0_120_9514">
<rect width="32" height="32" fill="white"/>
</clipPath>
</defs>
</svg>
