<svg width="32" height="32" viewBox="0 0 32 32" fill="none" xmlns="http://www.w3.org/2000/svg">
<path d="M25.4994 14.438C26.7012 14.4392 27.8778 14.7822 28.892 15.427L28.9921 13.061C28.9978 12.928 28.9655 12.7961 28.899 12.6809C28.8325 12.5656 28.7345 12.4717 28.6166 12.41L23.8719 9.90622L21.7813 6.22568C21.7419 6.1547 21.6836 6.09607 21.6129 6.05628C21.5422 6.01649 21.4618 5.99712 21.3807 6.00035H18.7267C18.6976 6.0003 18.6689 6.00614 18.6422 6.01761C18.6156 6.02908 18.5915 6.04594 18.5716 6.06705C18.5517 6.08816 18.5362 6.11312 18.5263 6.1404C18.5164 6.16769 18.5121 6.19669 18.5139 6.22568V7.37739C18.512 7.40581 18.5163 7.43433 18.5263 7.46098C18.5363 7.48763 18.552 7.51182 18.5721 7.53196C18.5922 7.55211 18.6165 7.56777 18.6431 7.57781C18.6698 7.58785 18.6983 7.5921 18.7267 7.59026H20.6921L21.944 9.84364C21.2958 10.0991 20.7107 10.492 20.2289 10.9954C19.2922 11.8292 18.1337 12.3736 16.8938 12.5624C15.654 12.7513 14.386 12.5765 13.2434 12.0594C9.95274 10.8856 6.53033 10.1204 3.05308 9.78106C3.00313 9.77388 2.95219 9.77882 2.90459 9.79558C2.857 9.81234 2.81416 9.84037 2.77973 9.87726C2.7453 9.91415 2.7203 9.95883 2.70686 10.0075C2.69342 10.0561 2.69194 10.1073 2.70255 10.1566L2.92789 11.6839C2.94786 11.7821 3.00089 11.8704 3.07811 11.9343L5.16876 13.0234L4.83075 14.6133C5.24298 14.531 5.66227 14.489 6.08264 14.4881C6.91825 14.4864 7.74597 14.6498 8.51829 14.9689C9.29062 15.2879 9.99235 15.7562 10.5832 16.3471C11.1741 16.938 11.6425 17.6397 11.9615 18.4121C12.2805 19.1844 12.4439 20.0121 12.4422 20.8477H19.0647C19.063 20.0109 19.2262 19.182 19.5449 18.4082C19.8636 17.6345 20.3316 16.9311 20.9222 16.3383C21.5127 15.7454 22.2142 15.2746 22.9867 14.9529C23.7592 14.6311 24.5875 14.4647 25.4243 14.4631" fill="#306261"/>
<path d="M25.6997 10.0067H26.0752C26.166 10.0034 26.252 9.96501 26.315 9.89962C26.3781 9.83423 26.4133 9.74694 26.4132 9.65611V7.35268C26.4132 7.26304 26.3776 7.17706 26.3142 7.11367C26.2508 7.05029 26.1649 7.01465 26.0752 7.01465H25.6997C25.4901 7.01534 25.2831 7.05983 25.0918 7.14531C24.9005 7.23079 24.7292 7.35538 24.5889 7.511C24.4486 7.66663 24.3424 7.84989 24.2771 8.049C24.2119 8.2481 24.189 8.45867 24.2099 8.66715C24.2551 9.03247 24.4308 9.36918 24.7045 9.61531C24.9782 9.86143 25.3316 10.0004 25.6997 10.0067Z" fill="#306261"/>
<path d="M6.15781 22.6379C5.71241 22.5649 5.30745 22.336 5.01524 21.992C4.72304 21.648 4.56261 21.2114 4.56261 20.7601C4.56261 20.3087 4.72304 19.8721 5.01524 19.5281C5.30745 19.1841 5.71241 18.9552 6.15781 18.8822C6.43009 18.8376 6.70883 18.8528 6.97468 18.9266C7.24054 19.0005 7.48715 19.1312 7.69743 19.3098C7.90772 19.4884 8.07664 19.7107 8.19249 19.9611C8.30834 20.2115 8.36834 20.4841 8.36834 20.7601C8.36834 21.036 8.30834 21.3086 8.19249 21.559C8.07664 21.8094 7.90772 22.0317 7.69743 22.2103C7.48715 22.3889 7.24054 22.5197 6.97468 22.5936C6.70883 22.6674 6.43009 22.6825 6.15781 22.6379ZM6.15781 15.5898C5.13858 15.5898 4.14232 15.8926 3.2954 16.4596C2.44847 17.0266 1.78904 17.8324 1.40073 18.7748C1.01243 19.7172 0.912752 20.7536 1.11435 21.7527C1.31594 22.7518 1.80972 23.6685 2.53306 24.3866C3.2564 25.1046 4.1767 25.5917 5.17724 25.7859C6.17778 25.9802 7.21348 25.873 8.15297 25.4778C9.09246 25.0826 9.89342 24.4172 10.4542 23.5662C11.0151 22.7151 11.3105 21.7167 11.3031 20.6975C11.3031 19.3329 10.761 18.0242 9.79605 17.0593C8.83112 16.0943 7.52241 15.5522 6.15781 15.5522" fill="#306261"/>
<path d="M25.4994 22.6379C25.1247 22.6378 24.7583 22.5271 24.4462 22.3196C24.1342 22.1122 23.8903 21.8172 23.7453 21.4717C23.6002 21.1261 23.5604 20.7455 23.6308 20.3774C23.7012 20.0093 23.8788 19.6703 24.1412 19.4027C24.4035 19.1352 24.7391 18.951 25.1057 18.8734C25.4723 18.7958 25.8537 18.8281 26.202 18.9664C26.5502 19.1047 26.8499 19.3428 27.0635 19.6507C27.277 19.9587 27.3949 20.3228 27.4023 20.6975C27.399 21.2011 27.1975 21.6832 26.8413 22.0394C26.4852 22.3955 26.0031 22.5971 25.4994 22.6004V22.6379ZM25.4994 15.5522C24.4845 15.5646 23.496 15.8768 22.6581 16.4496C21.8203 17.0224 21.1705 17.8302 20.7907 18.7714C20.4108 19.7126 20.3178 20.7452 20.5234 21.7391C20.7289 22.733 21.2238 23.6439 21.9458 24.3572C22.6678 25.0706 23.5847 25.5544 24.581 25.748C25.5773 25.9415 26.6087 25.836 27.5452 25.4448C28.4817 25.0536 29.2816 24.3942 29.8443 23.5494C30.4069 22.7047 30.7072 21.7124 30.7072 20.6975C30.7072 19.3329 30.1652 18.0242 29.2002 17.0593C28.2353 16.0943 26.9266 15.5522 25.562 15.5522" fill="#306261"/>
</svg>
