<svg width="32" height="32" viewBox="0 0 32 32" fill="none" xmlns="http://www.w3.org/2000/svg">
<path d="M31.1551 26.2289L22.4884 7.81215C22.4 7.62827 22.2614 7.47309 22.0887 7.36449C21.916 7.25588 21.7161 7.19824 21.512 7.19824C21.308 7.19824 21.1081 7.25588 20.9354 7.36449C20.7626 7.47309 20.6241 7.62827 20.5357 7.81215L13.8484 22.1765L9.52841 14.2587C9.44945 14.1339 9.34666 14.0259 9.22593 13.9409C9.10519 13.8559 8.96888 13.7955 8.82479 13.7632C8.68069 13.7309 8.53164 13.7273 8.38616 13.7526C8.24068 13.778 8.10163 13.8318 7.97696 13.9109C7.84185 14.0059 7.72421 14.1236 7.62923 14.2587L1.12918 26.1755C0.994384 26.428 0.963685 26.7232 1.04365 26.9981C1.12362 27.273 1.30793 27.5058 1.55718 27.6466C1.71872 27.73 1.89705 27.7758 2.07879 27.7804H30.2189C30.5062 27.7804 30.7817 27.6663 30.9849 27.4631C31.1881 27.26 31.3022 26.9843 31.3022 26.697C31.3067 26.5344 31.2698 26.3734 31.1952 26.2289" fill="#306261"/>
<path d="M5.26149 4C5.90428 4 6.53264 4.19059 7.0671 4.54771C7.60157 4.90483 8.01813 5.41244 8.26411 6.00631C8.5101 6.60017 8.57447 7.25364 8.44907 7.88409C8.32367 8.51453 8.01413 9.09359 7.55961 9.54811C7.10508 10.0026 6.52598 10.3122 5.89554 10.4376C5.2651 10.563 4.61163 10.4987 4.01776 10.2527C3.4239 10.0067 2.91632 9.59009 2.5592 9.05563C2.20209 8.52116 2.01147 7.8928 2.01147 7.25001C2.01147 6.82321 2.09553 6.40062 2.25886 6.00631C2.42219 5.612 2.66159 5.2537 2.96338 4.95191C3.26518 4.65012 3.62345 4.41071 4.01776 4.24739C4.41207 4.08406 4.83469 4 5.26149 4Z" fill="#306261"/>
</svg>
