<svg width="32" height="32" fill="none" xmlns="http://www.w3.org/2000/svg"><g clip-path="url(#clip0_120_9514)" fill="#306261"><path d="M20.217 7H9.533l-3.859 4.357h14.543V7zm10.97 13.677a4.179 4.179 0 01-2.374-.617 5.64 5.64 0 00-5.532 0 4.18 4.18 0 01-2.375.617 4.226 4.226 0 01-2.374-.617 5.627 5.627 0 00-5.52 0 4.748 4.748 0 01-4.654 0 5.627 5.627 0 00-5.52 0c-.714.436-1.54.65-2.375.617A.463.463 0 000 21.14a.475.475 0 00.463.475 5.282 5.282 0 002.766-.724 4.75 4.75 0 014.654 0 5.235 5.235 0 002.754.724 5.319 5.319 0 002.766-.724 4.678 4.678 0 014.642 0 5.628 5.628 0 005.52 0 4.75 4.75 0 014.654 0 5.27 5.27 0 002.754.724.474.474 0 00.475-.475.463.463 0 00-.261-.463z"/><path d="M31.187 23.348a4.298 4.298 0 01-2.374-.605 5.64 5.64 0 00-5.532 0 4.298 4.298 0 01-2.375.605 4.333 4.333 0 01-2.374-.605 5.627 5.627 0 00-5.52 0 4.748 4.748 0 01-4.654 0 5.627 5.627 0 00-5.52 0 4.333 4.333 0 01-2.375.605.475.475 0 00-.463.475.463.463 0 00.463.463 5.176 5.176 0 002.766-.724 4.748 4.748 0 014.654 0 5.129 5.129 0 002.754.724c.972.021 1.93-.23 2.766-.724a4.748 4.748 0 014.642 0 5.628 5.628 0 005.52 0 4.748 4.748 0 014.654 0 5.165 5.165 0 002.754.724.464.464 0 00.475-.463.475.475 0 00-.261-.475zm0-5.354a4.179 4.179 0 01-2.374-.617 5.604 5.604 0 00-1.734-.63l1.995-4.463H2.742l2.03 4.463a5.604 5.604 0 00-1.733.63c-.713.436-1.54.65-2.374.617a.486.486 0 00-.475.463.475.475 0 00.463.475 5.177 5.177 0 002.766-.724 4.748 4.748 0 014.654 0 5.129 5.129 0 002.754.724c.972.021 1.93-.23 2.766-.724a4.677 4.677 0 014.642 0 5.627 5.627 0 005.52 0 4.748 4.748 0 014.654 0 5.165 5.165 0 002.754.724.475.475 0 100-.938h.024z"/></g><defs><clipPath id="clip0_120_9514"><path fill="#fff" d="M0 0h32v32H0z"/></clipPath></defs></svg>