<svg width="32" height="32" fill="none" xmlns="http://www.w3.org/2000/svg"><path d="M25.5 14.438a6.335 6.335 0 013.392.989l.1-2.366a.7.7 0 00-.375-.651l-4.745-2.504-2.09-3.68A.439.439 0 0021.38 6h-2.654a.213.213 0 00-.213.226v1.151a.2.2 0 00.213.213h1.965l1.252 2.254a4.82 4.82 0 00-1.715 1.151 6.484 6.484 0 01-6.986 1.064 42.665 42.665 0 00-10.19-2.278.313.313 0 00-.35.376l.225 1.527a.44.44 0 00.15.25l2.09 1.09-.337 1.59a6.345 6.345 0 017.611 6.234h6.623a6.372 6.372 0 016.36-6.385" fill="#306261"/><path d="M25.7 10.007h.375a.35.35 0 00.338-.35V7.352a.338.338 0 00-.338-.338H25.7a1.502 1.502 0 00-1.49 1.652 1.528 1.528 0 001.49 1.34zM6.158 22.638a1.903 1.903 0 11.615-3.756 1.903 1.903 0 01-.615 3.756zm0-7.048a5.145 5.145 0 105.145 5.108 5.145 5.145 0 00-5.145-5.146M25.5 22.638a1.903 1.903 0 111.902-1.94A1.915 1.915 0 0125.5 22.6v.038zm0-7.086a5.146 5.146 0 10.062 0" fill="#306261"/></svg>