<svg width="395" height="324" viewBox="0 0 395 324" fill="none" xmlns="http://www.w3.org/2000/svg">
<ellipse cx="11.1433" cy="3.79688" rx="3.80057" ry="3.79688" fill="#DFCC93"/>
<ellipse cx="11.1433" cy="67.0781" rx="3.80057" ry="3.79688" fill="#DFCC93"/>
<ellipse cx="11.1433" cy="130.359" rx="3.80057" ry="3.79688" fill="#DFCC93"/>
<ellipse cx="11.1433" cy="193.641" rx="3.80057" ry="3.79688" fill="#DFCC93"/>
<ellipse cx="11.1433" cy="256.922" rx="3.80057" ry="3.79688" fill="#DFCC93"/>
<ellipse cx="11.1433" cy="320.203" rx="3.80057" ry="3.79688" fill="#DFCC93"/>
<ellipse cx="74.4861" cy="3.79688" rx="3.80056" ry="3.79688" fill="#DFCC93"/>
<ellipse cx="201.171" cy="3.79688" rx="3.80056" ry="3.79688" fill="#DFCC93"/>
<ellipse cx="327.857" cy="3.79688" rx="3.80055" ry="3.79688" fill="#DFCC93"/>
<ellipse cx="137.829" cy="3.79688" rx="3.80057" ry="3.79688" fill="#DFCC93"/>
<ellipse cx="264.514" cy="3.79688" rx="3.80055" ry="3.79688" fill="#DFCC93"/>
<ellipse cx="391.199" cy="3.79688" rx="3.80057" ry="3.79688" fill="#DFCC93"/>
<ellipse cx="74.4861" cy="67.0781" rx="3.80056" ry="3.79688" fill="#DFCC93"/>
<ellipse cx="201.171" cy="67.0781" rx="3.80056" ry="3.79688" fill="#DFCC93"/>
<ellipse cx="327.857" cy="67.0781" rx="3.80055" ry="3.79688" fill="#DFCC93"/>
<ellipse cx="74.4861" cy="130.359" rx="3.80056" ry="3.79688" fill="#DFCC93"/>
<ellipse cx="201.171" cy="130.359" rx="3.80056" ry="3.79688" fill="#DFCC93"/>
<ellipse cx="327.857" cy="130.359" rx="3.80055" ry="3.79688" fill="#DFCC93"/>
<ellipse cx="74.4861" cy="193.641" rx="3.80056" ry="3.79688" fill="#DFCC93"/>
<ellipse cx="201.171" cy="193.641" rx="3.80056" ry="3.79688" fill="#DFCC93"/>
<ellipse cx="327.857" cy="193.641" rx="3.80055" ry="3.79688" fill="#DFCC93"/>
<ellipse cx="74.4861" cy="256.922" rx="3.80056" ry="3.79688" fill="#DFCC93"/>
<ellipse cx="201.171" cy="256.922" rx="3.80056" ry="3.79688" fill="#DFCC93"/>
<ellipse cx="327.857" cy="256.922" rx="3.80055" ry="3.79688" fill="#DFCC93"/>
<ellipse cx="74.4861" cy="320.203" rx="3.80056" ry="3.79688" fill="#DFCC93"/>
<ellipse cx="201.171" cy="320.203" rx="3.80056" ry="3.79688" fill="#DFCC93"/>
<ellipse cx="327.857" cy="320.203" rx="3.80055" ry="3.79688" fill="#DFCC93"/>
<ellipse cx="137.829" cy="67.0781" rx="3.80057" ry="3.79688" fill="#DFCC93"/>
<ellipse cx="264.514" cy="67.0781" rx="3.80055" ry="3.79688" fill="#DFCC93"/>
<ellipse cx="391.199" cy="67.0781" rx="3.80057" ry="3.79688" fill="#DFCC93"/>
<ellipse cx="137.829" cy="130.359" rx="3.80057" ry="3.79688" fill="#DFCC93"/>
<ellipse cx="264.514" cy="130.359" rx="3.80055" ry="3.79688" fill="#DFCC93"/>
<ellipse cx="391.199" cy="130.359" rx="3.80057" ry="3.79688" fill="#DFCC93"/>
<ellipse cx="137.829" cy="193.641" rx="3.80057" ry="3.79688" fill="#DFCC93"/>
<ellipse cx="264.514" cy="193.641" rx="3.80055" ry="3.79688" fill="#DFCC93"/>
<ellipse cx="391.199" cy="193.641" rx="3.80057" ry="3.79688" fill="#DFCC93"/>
<ellipse cx="137.829" cy="256.922" rx="3.80057" ry="3.79688" fill="#DFCC93"/>
<ellipse cx="264.514" cy="256.922" rx="3.80055" ry="3.79688" fill="#DFCC93"/>
<ellipse cx="391.199" cy="256.922" rx="3.80057" ry="3.79688" fill="#DFCC93"/>
<ellipse cx="137.829" cy="320.203" rx="3.80057" ry="3.79688" fill="#DFCC93"/>
<ellipse cx="264.514" cy="320.203" rx="3.80055" ry="3.79688" fill="#DFCC93"/>
<ellipse cx="391.199" cy="320.203" rx="3.80057" ry="3.79688" fill="#DFCC93"/>
</svg>
