<svg width="32" height="32" viewBox="0 0 32 32" fill="none" xmlns="http://www.w3.org/2000/svg">
<path d="M26.9952 20.9082C26.9952 21.3623 26.8406 21.5266 26.3865 21.5266H15.942C12.5217 21.5266 9.11112 21.5266 5.70049 21.5266C5.14977 21.5266 4.92754 21.3816 4.97585 20.8019C5.02416 20.2222 4.97585 19.5459 4.97585 18.9179C4.89497 18.0182 5.17226 17.1229 5.74752 16.4265C6.32277 15.73 7.14955 15.2886 8.04832 15.1981C8.45135 15.1094 8.8627 15.0641 9.27536 15.0628H22.7053C23.3926 15.0072 24.0833 15.1178 24.7189 15.3851C25.3545 15.6525 25.9165 16.0689 26.3575 16.599C26.7102 17.1065 26.9295 17.6946 26.9952 18.3092C27.0387 19.1717 27.0387 20.036 26.9952 20.8985V20.9082ZM26.8696 22.8309C26.8696 23.2657 26.7536 23.4686 26.2705 23.4396C25.7074 23.4058 25.1428 23.4058 24.5797 23.4396C24.1353 23.4396 24.0773 23.2077 24.1256 22.8889C24.1739 22.57 23.8841 22.0773 24.5507 22.0869H25.5169C25.7323 22.1063 25.9489 22.1063 26.1643 22.0869C26.7923 21.971 26.9179 22.2705 26.8985 22.8406L26.8696 22.8309ZM7.92271 22.7343C7.92271 22.9275 7.92271 23.1208 7.92271 23.4396C7.11111 23.4396 6.35749 23.4396 5.60387 23.4396C5.04348 23.4396 5.26571 22.9758 5.24638 22.6956C5.22706 22.4155 5.14977 22.0773 5.63286 22.0966C6.19609 22.1256 6.76045 22.1256 7.32368 22.0966C7.86474 22.0966 8.03865 22.2609 7.96136 22.7633L7.92271 22.7343ZM5.20773 11.7681C5.36643 10.8267 5.8512 9.97109 6.57718 9.35109C7.30317 8.73109 8.2241 8.38619 9.17875 8.3768C13.7456 8.3768 18.3124 8.3768 22.8792 8.3768C23.8619 8.38974 24.8077 8.75307 25.5463 9.40136C26.285 10.0497 26.7679 10.9403 26.9082 11.913C26.9903 13.345 26.9903 14.7806 26.9082 16.2126C26.3575 15.8357 25.8068 15.4493 25.2464 15.0821C25.1328 15.001 25.005 14.942 24.8696 14.9082C24 14.7633 23.3816 14.4637 23.5169 13.3526C23.5749 12.8889 23.1111 12.5701 22.5507 12.5604C20.7729 12.5604 18.9855 12.5604 17.2077 12.5604C16.9596 12.5601 16.7209 12.6552 16.5411 12.8261C16.3612 12.997 16.254 13.2305 16.2415 13.4782C16.1449 14.5894 16.0097 14.686 14.7826 14.4444C14.7826 14.1932 14.7826 13.9227 14.7826 13.6522C14.7826 12.9951 14.4251 12.6087 13.8164 12.6087C12.0483 12.6087 10.2899 12.6087 8.52174 12.6087C7.83575 12.6087 7.50725 12.9952 7.48793 13.7005C7.4782 13.758 7.4782 13.8168 7.48793 13.8744C7.61353 14.5507 7.343 14.9179 6.68599 15.1884C6.13097 15.4823 5.60941 15.8354 5.13044 16.2415C5.03854 14.7808 5.03854 13.3158 5.13044 11.8551L5.20773 11.7681ZM16 0C12.8355 0 9.74207 0.938384 7.11088 2.69649C4.4797 4.45459 2.42894 6.95343 1.21793 9.87705C0.00693303 12.8007 -0.309921 16.0177 0.307442 19.1214C0.924806 22.2251 2.44866 25.0761 4.6863 27.3137C6.92394 29.5513 9.77487 31.0752 12.8786 31.6926C15.9823 32.3099 19.1993 31.9931 22.1229 30.7821C25.0466 29.5711 27.5454 27.5203 29.3035 24.8891C31.0616 22.2579 32 19.1645 32 16C32 11.7565 30.3143 7.68687 27.3137 4.68629C24.3131 1.68571 20.2435 0 16 0Z" fill="#DFCC93"/>
</svg>
