<svg width="32" height="32" viewBox="0 0 32 32" fill="none" xmlns="http://www.w3.org/2000/svg">
<path d="M22.6281 12.6667C22.4215 13.1307 22.2472 13.6085 22.1064 14.0966C21.9615 14.744 21.575 14.8406 20.9953 14.8213C20.8241 14.8371 20.6531 14.7898 20.5143 14.6884C20.3756 14.587 20.2786 14.4384 20.2417 14.2705C19.8745 13.2367 19.4687 12.2222 19.0146 11.0338C18.9663 11.3913 18.947 11.5942 18.9083 11.8358L17.8455 11.9324V14.7536H16.5219C16.5219 14.029 16.5219 13.3334 16.5219 12.628C16.5219 11.9227 16.3769 11.7778 15.7682 11.8744C15.6658 11.891 15.5614 11.891 15.4591 11.8744C15.3045 10.9082 15.3045 10.9082 16.2223 10.9082C17.4397 10.9082 18.6571 10.9082 19.8745 10.9082C19.9498 10.8945 20.0272 10.8966 20.1016 10.9144C20.1761 10.9323 20.246 10.9654 20.3069 11.0118C20.3678 11.0582 20.4184 11.1167 20.4554 11.1837C20.4924 11.2507 20.515 11.3247 20.5219 11.401C20.6899 12.038 20.9297 12.6539 21.2368 13.2367C21.3721 12.8019 21.517 12.3672 21.6426 11.9324C21.9904 10.7923 21.9905 10.7923 23.2851 10.9662L22.6185 12.715L22.6281 12.6667ZM24.5508 8.6377C18.8632 8.6377 13.1789 8.6377 7.4977 8.6377C6.9663 8.6377 6.8407 8.80195 6.8407 9.30437C6.8407 13.0918 6.8407 16.876 6.8407 20.657C6.8407 21.2271 7.03393 21.3333 7.54601 21.3333C10.3673 21.3333 13.1885 21.3333 16.0194 21.3333C18.8504 21.3333 21.7296 21.3333 24.5895 21.3333C25.0822 21.3333 25.2272 21.1787 25.2272 20.6957C25.2272 18.9565 25.2272 17.2078 25.2272 15.4686C25.2272 13.43 25.2272 11.3913 25.2272 9.35266C25.2272 8.84059 25.1209 8.6377 24.5508 8.6377Z" fill="#DFCC93"/>
<path d="M25.4879 22.3768C23.2464 22.5797 21.0048 22.8019 18.7246 23.0241L16.8986 23.2077C16.8116 24.0773 16.8986 24.0676 17.6908 24.0966C19.0628 24.1546 20.4251 24.2802 21.7875 24.3961C22.1167 24.4628 22.4398 24.5565 22.7536 24.6763V24.8792C22.4922 24.9923 22.2204 25.0796 21.942 25.1401C20.603 25.3279 19.2548 25.444 17.9034 25.4879C15.4783 25.4879 13.0725 25.3623 10.628 25.256C10.1344 25.1911 9.64662 25.0877 9.1691 24.9469V24.7053C9.42839 24.5866 9.70081 24.4991 9.98069 24.4444C11.4396 24.2995 12.8792 24.1836 14.3672 24.0676H15.0435C15.1884 23.2271 15.1691 23.2367 14.4058 23.1691C11.8293 22.9437 9.25283 22.6956 6.67634 22.4251C5.84542 22.3382 5.71016 22.1643 5.71016 21.314C5.71016 17.0821 5.71016 12.847 5.71016 8.6087C5.71016 7.79711 5.90339 7.64252 6.67634 7.64252H25.2077C26.0773 7.64252 26.2415 7.78744 26.2319 8.66667C26.2319 11.5652 26.2319 14.4638 26.2319 17.3623C26.2319 18.7343 26.2512 20.1063 26.2899 21.4783C26.3116 21.5992 26.306 21.7235 26.2734 21.842C26.2407 21.9605 26.1819 22.0701 26.1012 22.1629C26.0205 22.2556 25.9201 22.329 25.8072 22.3778C25.6944 22.4265 25.5721 22.4493 25.4493 22.4445L25.4879 22.3768ZM16 0C12.8355 0 9.74207 0.938384 7.11088 2.69649C4.4797 4.45459 2.42894 6.95343 1.21794 9.87705C0.00693855 12.8007 -0.309923 16.0177 0.307441 19.1214C0.924804 22.2251 2.44866 25.0761 4.6863 27.3137C6.92394 29.5513 9.77486 31.0752 12.8786 31.6926C15.9823 32.3099 19.1993 31.9931 22.1229 30.7821C25.0466 29.5711 27.5454 27.5203 29.3035 24.8891C31.0616 22.258 32 19.1645 32 16C32 11.7565 30.3143 7.68687 27.3137 4.68629C24.3131 1.68571 20.2435 0 16 0Z" fill="#DFCC93"/>
</svg>
