<svg width="32" height="32" viewBox="0 0 32 32" fill="none" xmlns="http://www.w3.org/2000/svg">
<path d="M16.4347 21.0242V21.1015H14.2511V18.5508C14.2598 18.1101 14.3688 17.6773 14.57 17.2851C14.8377 16.7479 14.9766 16.1558 14.9757 15.5556V15.2948H15.7004V15.4976C15.6947 16.0113 15.7933 16.5208 15.9902 16.9952C16.0675 17.1981 16.1641 17.3817 16.2414 17.5846C16.3782 17.9622 16.4437 18.3619 16.4347 18.7633C16.4347 19.517 16.4347 20.2706 16.4347 21.0242ZM13.5361 21.0242V21.1015H11.3622V18.6474C11.3608 18.1716 11.47 17.7019 11.681 17.2754C11.9517 16.7324 12.0907 16.1333 12.0869 15.5266V15.2948H12.8115V15.3914C12.7948 15.8952 12.8769 16.3974 13.053 16.8696C13.1303 17.0822 13.2269 17.2754 13.3139 17.488C13.4685 17.8583 13.5473 18.2558 13.5458 18.6571C13.5458 19.4494 13.5458 20.2319 13.5458 21.0242H13.5361ZM16.8018 16.9663C16.6047 16.6284 16.4796 16.2534 16.4347 15.8648C16.4347 15.5556 16.4347 15.2464 16.4347 14.9469C16.436 14.8971 16.4272 14.8475 16.4087 14.8012C16.3902 14.7548 16.3625 14.7128 16.3273 14.6775C16.292 14.6423 16.2499 14.6146 16.2036 14.5961C16.1573 14.5776 16.1077 14.5688 16.0579 14.5701H14.5989C14.5463 14.5642 14.493 14.57 14.4429 14.5872C14.3928 14.6044 14.3472 14.6325 14.3093 14.6695C14.2714 14.7065 14.2421 14.7514 14.2237 14.801C14.2053 14.8507 14.1982 14.9038 14.2028 14.9566V15.3624C14.2114 15.6607 14.1855 15.9589 14.1255 16.2513C14.0611 16.5185 13.9671 16.7778 13.8453 17.0242C13.6397 16.6461 13.5209 16.2269 13.4975 15.7972C13.4975 15.5266 13.4975 15.2464 13.4975 14.9759C13.5004 14.9223 13.4918 14.8687 13.4723 14.8186C13.4528 14.7686 13.4229 14.7233 13.3845 14.6858C13.346 14.6483 13.3 14.6194 13.2495 14.6011C13.199 14.5829 13.1452 14.5756 13.0917 14.5798H11.7004C11.6497 14.5771 11.5991 14.5849 11.5516 14.6028C11.5042 14.6206 11.4609 14.6481 11.4246 14.6835C11.3883 14.7189 11.3597 14.7615 11.3407 14.8085C11.3216 14.8555 11.3125 14.9059 11.3139 14.9566C11.3139 15.1595 11.3139 15.3527 11.3139 15.546C11.316 16.05 11.1967 16.5471 10.9661 16.9952C10.7259 17.4826 10.5972 18.0172 10.5893 18.5605C10.5893 19.2464 10.5893 19.9228 10.5893 20.6088V21.4686C10.5865 21.5201 10.5946 21.5716 10.613 21.6198C10.6314 21.6679 10.6598 21.7117 10.6963 21.7481C10.7327 21.7846 10.7765 21.813 10.8246 21.8314C10.8728 21.8498 10.9243 21.8579 10.9758 21.8551H16.7728C16.8243 21.8579 16.8758 21.8498 16.924 21.8314C16.9721 21.813 17.0159 21.7846 17.0523 21.7481C17.0888 21.7117 17.1171 21.6679 17.1356 21.6198C17.154 21.5716 17.1621 21.5201 17.1593 21.4686V18.6377C17.1578 18.0648 17.0256 17.4998 16.7728 16.9856" fill="#DBCC99"/>
<path d="M17.8356 9.46875H9.84521V13.1016H17.8356V9.46875Z" fill="#DBCC99"/>
<path d="M24.3863 16.3285V17.0725C24.391 17.1265 24.3835 17.1809 24.3646 17.2317C24.3457 17.2825 24.3158 17.3285 24.277 17.3663C24.2382 17.4042 24.1915 17.433 24.1402 17.4507C24.089 17.4684 24.0344 17.4745 23.9805 17.4686H22.9274V23.6522C22.9251 23.936 22.8133 24.2081 22.6152 24.4115C22.4172 24.6149 22.1483 24.734 21.8646 24.744C21.7217 24.7478 21.5794 24.7233 21.446 24.6719C21.3127 24.6204 21.1908 24.543 21.0875 24.4442C20.9842 24.3454 20.9015 24.2271 20.8441 24.0961C20.7868 23.9651 20.756 23.8241 20.7535 23.6812C20.7535 22.8116 20.7535 21.942 20.7535 21.0725V13.4396C20.7535 11.7584 20.7535 10.087 20.7535 8.41547C20.7499 8.17622 20.8231 7.9421 20.9621 7.74739C21.1012 7.55268 21.2989 7.40759 21.5264 7.33335C21.6912 7.28303 21.8655 7.27239 22.0351 7.30231C22.2047 7.33222 22.3649 7.40184 22.5024 7.50549C22.64 7.60914 22.7511 7.74386 22.8266 7.89865C22.9022 8.05344 22.94 8.22391 22.9371 8.39613V10.1932H23.9902C24.045 10.1871 24.1004 10.1934 24.1525 10.2116C24.2045 10.2298 24.2518 10.2595 24.2908 10.2985C24.3297 10.3375 24.3594 10.3847 24.3777 10.4368C24.3959 10.4888 24.4021 10.5442 24.396 10.599V16.3285H24.3863ZM20.0289 22.9565C20.0212 23.3909 19.858 23.8081 19.5691 24.1325C19.2802 24.4568 18.8845 24.6669 18.454 24.7246C18.2607 24.7246 18.0675 24.7246 17.8646 24.7246H9.51678C9.22295 24.7326 8.93169 24.668 8.66878 24.5366C8.40587 24.4051 8.17944 24.2109 8.00954 23.971C7.83376 23.7359 7.72071 23.4599 7.68104 23.1691C7.6712 23.0179 7.6712 22.8662 7.68104 22.715V14.0193C7.68104 12.3768 7.68104 10.744 7.68104 9.11113C7.67974 8.67375 7.83798 8.25088 8.12613 7.92183C8.41427 7.59277 8.81253 7.38012 9.24625 7.32368C9.33294 7.31411 9.42042 7.31411 9.50711 7.32368H18.2028C18.623 7.31717 19.0323 7.45736 19.3604 7.72012C19.6884 7.98288 19.9145 8.35177 19.9999 8.76329C20.0146 8.92075 20.0146 9.07927 19.9999 9.23674V16V22.9468L20.0289 22.9565ZM15.9999 0C12.8354 0 9.74195 0.938383 7.11076 2.69648C4.47958 4.45459 2.42881 6.95346 1.21781 9.87707C0.00680554 12.8007 -0.310041 16.0178 0.307322 19.1214C0.924685 22.2251 2.44852 25.0761 4.68616 27.3137C6.9238 29.5514 9.77474 31.0752 12.8784 31.6926C15.9821 32.3099 19.1992 31.9931 22.1228 30.7821C25.0464 29.5711 27.5453 27.5203 29.3034 24.8891C31.0615 22.2579 31.9998 19.1645 31.9998 16C31.9998 11.7566 30.3141 7.68687 27.3136 4.68629C24.313 1.68571 20.2433 0 15.9999 0Z" fill="#DBCC99"/>
</svg>
