<svg width="32" height="32" viewBox="0 0 32 32" fill="none" xmlns="http://www.w3.org/2000/svg">
<path d="M12.2222 14.4346C11.9524 14.4359 11.685 14.3838 11.4354 14.2815C11.1857 14.1791 10.9588 14.0285 10.7676 13.8381C10.5764 13.6478 10.4246 13.4216 10.3211 13.1724C10.2175 12.9233 10.1642 12.6561 10.1642 12.3863C10.154 11.8431 10.3599 11.318 10.7368 10.9266C11.1137 10.5353 11.6307 10.3096 12.1739 10.2994C12.7171 10.2891 13.2422 10.4951 13.6336 10.872C14.025 11.2489 14.2506 11.7658 14.2609 12.309C14.2712 12.5836 14.2262 12.8575 14.1286 13.1144C14.0309 13.3712 13.8825 13.6058 13.6923 13.8042C13.5021 14.0025 13.2739 14.1605 13.0213 14.2688C12.7688 14.3771 12.497 14.4335 12.2222 14.4346ZM12.2222 9.3042C11.6191 9.30823 11.0306 9.48967 10.5299 9.82589C10.0292 10.1621 9.63856 10.6383 9.40662 11.195C9.17468 11.7517 9.11168 12.3643 9.22552 12.9566C9.33937 13.5488 9.625 14.0945 10.0468 14.5255C10.4686 14.9566 11.008 15.2539 11.5976 15.3806C12.1873 15.5072 12.8012 15.4575 13.3628 15.2376C13.9244 15.0178 14.4088 14.6375 14.7558 14.1443C15.1028 13.651 15.2969 13.0665 15.314 12.4636C15.323 12.0519 15.2497 11.6426 15.0983 11.2597C14.947 10.8767 14.7207 10.5279 14.4327 10.2336C14.1447 9.93925 13.8008 9.70542 13.4212 9.54583C13.0416 9.38624 12.634 9.3041 12.2222 9.3042Z" fill="#DFCC93"/>
<path d="M12.2027 11.2852C12.0559 11.2849 11.9107 11.3147 11.776 11.3728C11.6413 11.4309 11.5199 11.516 11.4194 11.6228C11.3188 11.7297 11.2413 11.8561 11.1916 11.9941C11.1418 12.1321 11.1209 12.2789 11.1302 12.4253C11.1401 12.71 11.2588 12.9799 11.462 13.1795C11.6652 13.3791 11.9372 13.493 12.222 13.4978C12.5176 13.4805 12.7954 13.3508 12.9984 13.1352C13.2014 12.9196 13.3143 12.6345 13.3138 12.3383C13.3013 12.053 13.1784 11.7837 12.9711 11.5872C12.7638 11.3907 12.4883 11.2824 12.2027 11.2852Z" fill="#DFCC93"/>
<path d="M25.6715 17.0628C24.5411 16.7343 23.4782 16.4348 22.4251 16.0966C22.3604 16.0481 22.3076 15.9855 22.2708 15.9135C22.2339 15.8415 22.214 15.762 22.2125 15.6812C22.2125 13.3913 22.2125 11.0918 22.2125 8.80194C22.2211 8.70368 22.2538 8.60902 22.3077 8.52643C22.3617 8.44384 22.4352 8.37585 22.5217 8.32849C23.5362 8.02898 24.5604 7.78743 25.6715 7.50723V17.0628ZM20.5217 16.0966C18.7536 16.2899 16.9855 16.5314 15.2464 16.8889C14.9098 16.9303 14.5864 17.0451 14.2991 17.225C14.0117 17.4049 13.7672 17.6457 13.583 17.9304C13.3988 18.215 13.2792 18.5367 13.2327 18.8725C13.1862 19.2084 13.214 19.5504 13.314 19.8744C13.4396 20.6377 13.7681 21.3816 13.884 22.1449C14.0535 22.8802 14.0798 23.6412 13.9614 24.3865C13.8074 24.8906 13.4988 25.3336 13.0792 25.6527C12.6595 25.9717 12.1502 26.1507 11.6232 26.1643C11.0984 26.2385 10.5634 26.1517 10.089 25.9153C9.61457 25.679 9.22304 25.3042 8.96618 24.8406C8.48829 24.1342 8.26977 23.2841 8.34781 22.4348C8.4251 21.4686 8.44443 20.4444 8.47341 19.4396C8.51404 18.2202 8.25529 17.0094 7.71979 15.913C7.33237 15.1242 7.03424 14.2946 6.83092 13.4396C6.67084 12.7849 6.64133 12.105 6.74408 11.4389C6.84684 10.7728 7.07981 10.1335 7.42974 9.55742C7.77967 8.98138 8.23969 8.47993 8.78348 8.08173C9.32728 7.68353 9.94422 7.39639 10.599 7.2367C11.9851 6.95447 13.416 6.97755 14.7923 7.30434C16.7246 7.61352 18.657 7.95169 20.657 8.27053C21.1787 8.34782 21.3236 8.57006 21.3043 9.07247C21.3043 10.1353 21.3043 11.1981 21.3043 12.2512C21.3043 13.3043 21.3043 14.2512 21.3043 15.256C21.3043 15.8358 21.1884 16.029 20.5604 16.0966H20.5217ZM13.9517 19.343C13.8949 19.0304 13.9439 18.7078 14.0909 18.4261C14.2378 18.1444 14.4744 17.9197 14.7633 17.7874L15.0918 19.9517C14.2415 20.3575 13.942 20.2029 13.8744 19.3237L13.9517 19.343ZM16 0C12.8355 0 9.74204 0.938383 7.11086 2.69649C4.47967 4.45459 2.42893 6.95346 1.21793 9.87708C0.00692761 12.8007 -0.309919 16.0178 0.307444 19.1215C0.924808 22.2251 2.44865 25.0761 4.68629 27.3137C6.92393 29.5513 9.77486 31.0752 12.8786 31.6926C15.9823 32.3099 19.1993 31.9931 22.1229 30.7821C25.0465 29.5711 27.5454 27.5203 29.3035 24.8891C31.0616 22.2579 32 19.1645 32 16C32 11.7565 30.3143 7.68687 27.3137 4.68629C24.3131 1.68571 20.2435 0 16 0Z" fill="#DFCC93"/>
</svg>
