<svg width="32" height="32" viewBox="0 0 32 32" fill="none" xmlns="http://www.w3.org/2000/svg">
<path d="M21.7583 15.8649H21.2752C21.1272 15.8746 20.9787 15.8746 20.8307 15.8649C20.7637 15.8591 20.6965 15.8724 20.6366 15.9032C20.5768 15.9339 20.5269 15.9809 20.4926 16.0388C20.3283 16.2514 20.4346 16.6861 20.7438 16.6958C21.053 16.7055 21.4008 16.6958 21.71 16.6958C21.794 16.7003 21.8772 16.6773 21.947 16.6302C22.0167 16.5831 22.0692 16.5146 22.0964 16.4349C22.1289 16.3553 22.1371 16.2678 22.1199 16.1836C22.1027 16.0993 22.0609 16.022 21.9998 15.9615C21.9703 15.9234 21.9321 15.893 21.8884 15.8728C21.8447 15.8526 21.7967 15.8433 21.7486 15.8456" fill="#DFCC93"/>
<path d="M19.1303 15.8745H7.71966C7.64635 15.8737 7.57446 15.8943 7.51268 15.9338C7.45089 15.9733 7.40193 16.0299 7.37185 16.0968C7.33705 16.1568 7.31824 16.2247 7.31719 16.2941C7.31613 16.3635 7.33289 16.432 7.36584 16.493C7.39879 16.5541 7.44685 16.6057 7.50542 16.6429C7.56399 16.6801 7.63111 16.7016 7.70038 16.7055C7.81632 16.7055 7.93225 16.7055 8.04819 16.7055H10.2511H17.8936H19.1496C19.2004 16.7018 19.25 16.6881 19.2955 16.6652C19.341 16.6423 19.3815 16.6107 19.4148 16.5721C19.448 16.5335 19.4733 16.4887 19.4891 16.4402C19.505 16.3918 19.5111 16.3408 19.5071 16.29C19.5074 16.1872 19.4687 16.0882 19.3987 16.0129C19.3288 15.9375 19.2329 15.8915 19.1303 15.8842" fill="#DFCC93"/>
<path d="M26.5024 14.1063H5.57488C5.57103 14.0774 5.57103 14.0482 5.57488 14.0193C5.57488 12.7053 5.57488 11.401 5.57488 10.0966C5.59257 9.64249 5.75215 9.2053 6.03117 8.84655C6.3102 8.48781 6.69462 8.22555 7.13042 8.09662C7.40133 8.04811 7.67668 8.02868 7.95172 8.03865H24.657C24.7702 8.03589 24.8826 8.05903 24.9855 8.10629C25.4902 8.26986 25.9168 8.61389 26.1836 9.07247C26.2899 9.26571 26.3671 9.46859 26.4541 9.66183C26.4635 9.70643 26.4635 9.75251 26.4541 9.79711C26.4541 10.7633 26.4541 11.8068 26.4541 12.8116C26.4498 12.8727 26.4498 12.9341 26.4541 12.9952L26.5024 14.1063ZM26.5024 15.5169V16.058C26.517 16.2703 26.517 16.4833 26.5024 16.6956C26.4502 17.0133 26.3243 17.3142 26.1346 17.5743C25.945 17.8344 25.6971 18.0464 25.4106 18.1932C25.0837 18.3685 24.7188 18.4614 24.3478 18.4638H21.314H15.4106H7.47824C7.36469 18.4531 7.25372 18.4237 7.14977 18.3768C6.79665 18.2667 6.47781 18.0675 6.22398 17.7984C5.97015 17.5294 5.78988 17.1995 5.70049 16.8406C5.65038 16.6022 5.62446 16.3595 5.62318 16.1159C5.62318 15.7488 5.62318 15.3623 5.62318 14.9758H26.5603L26.5024 15.5169ZM22.7246 22.5314L23.8647 23.2077C23.978 23.2761 24.0876 23.3503 24.1932 23.4299C24.2689 23.4795 24.3229 23.556 24.3444 23.6438C24.3659 23.7317 24.3533 23.8244 24.3092 23.9034C24.293 23.9493 24.2678 23.9915 24.2352 24.0275C24.2025 24.0636 24.163 24.0929 24.1189 24.1136C24.0749 24.1342 24.0272 24.1459 23.9785 24.148C23.9299 24.1501 23.8814 24.1424 23.8358 24.1256C23.621 24.0374 23.4114 23.9375 23.2077 23.8261L22.2415 23.2753L22.1159 23.2174C22.1159 23.3526 22.1159 23.4686 22.1159 23.5845C22.1159 24.0773 22.1159 24.5507 22.1159 25.0628C22.1147 25.1535 22.0838 25.2414 22.028 25.3129C21.9722 25.3844 21.8945 25.4357 21.8067 25.4589C21.7471 25.4767 21.6843 25.4806 21.6229 25.4702C21.5616 25.4598 21.5035 25.4355 21.453 25.3991C21.4026 25.3626 21.3612 25.3151 21.3321 25.2602C21.3029 25.2052 21.2869 25.1443 21.285 25.0821C21.285 24.4928 21.285 23.913 21.285 23.3333V23.1884L21.1691 23.2464L19.9131 23.9614C19.78 24.0341 19.6409 24.0955 19.4976 24.1449C19.448 24.1562 19.3967 24.1573 19.3467 24.1482C19.2967 24.1391 19.2491 24.12 19.2066 24.092C19.1642 24.0641 19.1279 24.0278 19.0999 23.9854C19.0718 23.943 19.0526 23.8954 19.0435 23.8454C19.0185 23.7538 19.0249 23.6564 19.0616 23.5689C19.0984 23.4813 19.1635 23.4086 19.2464 23.3623L20.5314 22.599L20.8019 22.4155L20.6763 22.3285C20.1932 22.0386 19.7101 21.7585 19.2174 21.4589C19.1404 21.409 19.0821 21.335 19.0516 21.2484C19.0211 21.1619 19.0201 21.0676 19.0488 20.9804C19.0775 20.8933 19.1342 20.8181 19.2102 20.7665C19.2861 20.715 19.377 20.6901 19.4686 20.6957C19.5458 20.7112 19.6206 20.7372 19.6908 20.7729L21.1594 21.6039L21.285 21.6618C21.285 21.3043 21.285 20.9758 21.285 20.6473C21.285 20.3188 21.285 20.0483 21.285 19.7391C21.3033 19.6376 21.3571 19.546 21.4368 19.4805C21.5164 19.415 21.6167 19.38 21.7198 19.3816L21.9227 19.4396C21.9734 19.4612 22.0163 19.4977 22.0456 19.5444C22.075 19.591 22.0894 19.6454 22.087 19.7005L22.1449 21.5459C22.1449 21.5459 22.1449 21.6135 22.1449 21.6618L22.8019 21.285C23.1304 21.1014 23.4589 20.9179 23.7681 20.7439C23.8133 20.7175 23.8634 20.7007 23.9154 20.6947C23.9674 20.6887 24.02 20.6935 24.07 20.709C24.12 20.7244 24.1662 20.7501 24.2057 20.7844C24.2453 20.8187 24.2772 20.8609 24.2995 20.9082C24.3292 20.9521 24.3496 21.0016 24.3594 21.0536C24.3691 21.1057 24.3681 21.1592 24.3563 21.2108C24.3445 21.2625 24.3223 21.3111 24.2909 21.3538C24.2595 21.3965 24.2197 21.4323 24.1739 21.4589L22.7053 22.3285L22.5797 22.4058L22.7343 22.5314H22.7246ZM16.3092 25.285C16.2677 25.3403 16.2136 25.385 16.1515 25.4152C16.0893 25.4455 16.0208 25.4604 15.9517 25.4589C15.8841 25.4608 15.817 25.4458 15.7567 25.4152C15.6964 25.3846 15.6447 25.3393 15.6063 25.2837C15.5679 25.228 15.544 25.1636 15.5368 25.0963C15.5296 25.029 15.5394 24.9611 15.5652 24.8986C15.615 24.7981 15.6766 24.7041 15.7488 24.6183C15.9052 24.4255 15.9813 24.1798 15.9614 23.9324C15.9288 23.6012 15.8508 23.2761 15.7295 22.9662C15.5749 22.4928 15.3913 22 15.2464 21.5555C15.1174 21.1866 15.0841 20.791 15.1497 20.4058C15.2167 20.0344 15.4034 19.695 15.6812 19.4396C15.753 19.3716 15.848 19.3338 15.9468 19.3338C16.0457 19.3338 16.1408 19.3716 16.2126 19.4396C16.2975 19.5001 16.3565 19.5903 16.378 19.6923C16.3995 19.7944 16.3818 19.9007 16.3285 19.9903C16.3116 20.0261 16.2887 20.0588 16.2609 20.0869C16.1326 20.2303 16.0445 20.405 16.0055 20.5933C15.9665 20.7816 15.978 20.9769 16.0387 21.1594C16.1739 21.6232 16.3478 22.0773 16.5024 22.5314C16.657 22.9163 16.7641 23.3186 16.8213 23.7294C16.8561 24.006 16.8281 24.2869 16.7395 24.5512C16.6508 24.8155 16.5037 25.0564 16.3092 25.256V25.285ZM12.8792 25.256C12.7984 25.3618 12.6814 25.434 12.5507 25.4589C12.1835 25.4589 11.9903 25.1787 12.0966 24.8986C12.1184 24.8275 12.1546 24.7617 12.2029 24.7053C12.3369 24.5575 12.4291 24.3766 12.4699 24.1813C12.5107 23.986 12.4985 23.7833 12.4348 23.5942C12.3188 23.1498 12.145 22.7246 12 22.2898C11.8525 21.9185 11.7424 21.5333 11.6715 21.1401C11.6243 20.8678 11.6389 20.5884 11.7141 20.3225C11.7894 20.0566 11.9234 19.811 12.1063 19.6039C12.1626 19.5276 12.2352 19.4649 12.3188 19.4203C12.3963 19.3808 12.4847 19.3679 12.5703 19.3836C12.6558 19.3993 12.7338 19.4428 12.7922 19.5072C12.8552 19.5711 12.8958 19.6536 12.9079 19.7424C12.9201 19.8312 12.9033 19.9216 12.8599 20C12.8503 20.0399 12.8303 20.0766 12.8019 20.1063C12.6675 20.2499 12.5755 20.4279 12.5363 20.6207C12.4971 20.8135 12.5121 21.0133 12.5797 21.1981C12.715 21.6715 12.8889 22.1642 13.0435 22.5894C13.1815 22.9517 13.2819 23.3272 13.343 23.7101C13.3817 23.986 13.3603 24.267 13.2802 24.5338C13.2002 24.8006 13.0634 25.047 12.8792 25.256ZM9.42994 25.256C9.38905 25.3197 9.33526 25.3741 9.27202 25.4158C9.20878 25.4574 9.13748 25.4852 9.06279 25.4976C8.99127 25.5074 8.91843 25.4984 8.85144 25.4715C8.78444 25.4446 8.72564 25.4007 8.68078 25.3441C8.63591 25.2876 8.60656 25.2203 8.59562 25.1489C8.58468 25.0776 8.59253 25.0046 8.61838 24.9372C8.65099 24.8612 8.69321 24.7898 8.74399 24.7246C8.86638 24.5896 8.95195 24.4254 8.99256 24.2477C9.03316 24.0701 9.02744 23.8849 8.97587 23.7101C8.85026 23.256 8.686 22.8116 8.54107 22.3575C8.41274 22.0102 8.30624 21.6552 8.22222 21.2947C8.14476 20.9901 8.14767 20.6706 8.23065 20.3674C8.31363 20.0643 8.47384 19.7879 8.69564 19.5652C8.74844 19.5062 8.81672 19.4631 8.89272 19.4407C8.96871 19.4184 9.04943 19.4178 9.12577 19.4389C9.20212 19.46 9.27105 19.502 9.3248 19.5601C9.37855 19.6183 9.41494 19.6903 9.42994 19.7681C9.44356 19.8267 9.44369 19.8875 9.4303 19.9461C9.41691 20.0047 9.39033 20.0595 9.35263 20.1063C9.31696 20.1569 9.27825 20.2053 9.2367 20.2512C9.13775 20.3893 9.07307 20.5488 9.04787 20.7168C9.02267 20.8848 9.03772 21.0564 9.0918 21.2174C9.21741 21.6522 9.38166 22.0773 9.51693 22.5121C9.65219 22.9469 9.76811 23.2947 9.85507 23.7005C9.91038 23.978 9.9008 24.2645 9.82706 24.5377C9.75331 24.8109 9.61739 25.0634 9.42994 25.2753V25.256ZM16 0C12.8355 0 9.74206 0.938383 7.11088 2.69648C4.47969 4.45459 2.42895 6.95346 1.21795 9.87707C0.00694949 12.8007 -0.309926 16.0178 0.307437 19.1214C0.9248 22.2251 2.44867 25.076 4.68631 27.3137C6.92395 29.5513 9.77488 31.0752 12.8786 31.6926C15.9823 32.3099 19.1993 31.9931 22.1229 30.7821C25.0466 29.5711 27.5454 27.5203 29.3035 24.8891C31.0616 22.2579 32 19.1645 32 16C31.9974 11.7573 30.3109 7.68914 27.3109 4.68912C24.3108 1.68909 20.2427 0.00255968 16 0Z" fill="#DFCC93"/>
<path d="M24.3286 15.8743C24.0291 15.8743 23.7199 15.8743 23.4204 15.8743C23.3454 15.8715 23.2714 15.8912 23.2077 15.9308C23.144 15.9704 23.0936 16.0281 23.0629 16.0965C23.0314 16.1543 23.0137 16.2186 23.0113 16.2844C23.0088 16.3501 23.0217 16.4156 23.0489 16.4755C23.0761 16.5355 23.1168 16.5883 23.1678 16.6298C23.2189 16.6713 23.2789 16.7005 23.3431 16.7149H23.8359H24.3286C24.3921 16.7126 24.4544 16.696 24.5107 16.6665C24.5671 16.6369 24.616 16.5951 24.654 16.5441C24.692 16.4931 24.7181 16.4342 24.7303 16.3718C24.7426 16.3094 24.7407 16.245 24.7247 16.1835C24.7015 16.0957 24.6503 16.018 24.5787 15.9622C24.5072 15.9064 24.4193 15.8755 24.3286 15.8743Z" fill="#DFCC93"/>
</svg>
