<svg width="32" height="32" viewBox="0 0 32 32" fill="none" xmlns="http://www.w3.org/2000/svg">
<path d="M27.6244 10.804L24.3735 11.6547C22.4833 12.1367 20.5931 12.5336 18.8069 13.1102C17.1557 13.5257 15.4503 13.6851 13.7507 13.5828H4.07317C3.38327 13.5828 3.01482 13.2897 3.01482 12.7983C3.01482 12.3068 3.38327 12.0327 4.07317 12.0327C7.46597 12.0327 10.8493 12.0327 14.2327 12.0327C15.9351 12.0598 17.6323 11.8369 19.27 11.3711C21.8027 10.6622 24.3734 10.029 26.9251 9.36735L27.2179 9.29178C27.8038 9.17836 28.1631 9.3768 28.2954 9.83993C28.4277 10.3031 28.1253 10.6528 27.6244 10.7851V10.804ZM27.322 15.2368C26.7013 17.0609 25.5093 18.6363 23.9226 19.7294C22.336 20.8224 20.4392 21.3748 18.5139 21.3046C14.9226 21.3046 11.3314 21.3046 7.74962 21.3046C7.3541 21.336 6.95706 21.2656 6.59643 21.1002C6.23581 20.9348 5.92367 20.6798 5.68944 20.3595C4.4514 18.5921 4.36628 16.5789 4.20561 14.4334H5.06554C8.69461 14.4334 12.3237 14.4334 15.9528 14.4334C17.2089 14.3618 18.4508 14.13 19.6481 13.7434C22.1715 13.1196 24.6853 12.4675 27.2087 11.8531C27.3788 11.8059 27.5582 11.787 27.785 11.7397C27.9385 12.9413 27.779 14.1622 27.322 15.284V15.2368ZM23.1921 23.7904C23.1036 23.8403 23.0058 23.8721 22.9049 23.8839C22.8039 23.8957 22.7019 23.8872 22.6042 23.8591C22.5066 23.8309 22.4155 23.7836 22.3363 23.7199C22.2572 23.6562 22.1914 23.5773 22.143 23.488C21.8595 22.9776 21.642 22.4294 21.3585 21.8245L22.9275 21.3046C23.1732 21.8434 23.4283 22.3444 23.6174 22.8736C23.658 22.9629 23.679 23.0598 23.6792 23.1579C23.6794 23.2559 23.6588 23.3529 23.6185 23.4424C23.5783 23.5318 23.5192 23.6117 23.4457 23.6766C23.3722 23.7415 23.2859 23.79 23.1921 23.8188V23.7904ZM8.70415 23.5069C8.6141 23.668 8.46896 23.7912 8.2953 23.8537C8.12164 23.9162 7.93116 23.9139 7.75908 23.8471C7.66796 23.8223 7.58277 23.7793 7.50874 23.7206C7.4347 23.662 7.37335 23.5889 7.32831 23.5059C7.28327 23.4229 7.25543 23.3316 7.24663 23.2375C7.23783 23.1435 7.24824 23.0486 7.27709 22.9587C7.37159 22.5806 7.41889 22.1175 8.03319 22.1742C8.42067 22.1742 8.81751 22.1742 9.36565 22.1742C9.11993 22.694 8.95935 23.1194 8.74199 23.4974L8.70415 23.5069ZM4.32836 8.37495C4.32836 8.27099 4.59317 8.11033 4.75383 8.10088C5.18856 8.10088 5.63265 8.10088 6.07683 8.10088C6.52101 8.10088 7.02183 8.10085 6.94622 8.78136C6.94622 8.86643 7.20155 9.04604 7.34331 9.05549C7.81584 9.05549 8.28839 9.05549 8.77983 9.05549C9.60204 9.05549 9.72484 9.13109 9.66814 9.92502C9.66814 10.0951 9.66809 10.2653 9.62084 10.4638C9.22391 10.4638 8.81758 10.6906 8.73253 10.0857C8.73253 10.0195 8.51506 9.94392 8.3922 9.92502C8.26934 9.90612 7.91021 9.92502 7.67394 9.92502C7.088 9.84941 6.80442 10.0479 6.90838 10.6622C6.97454 11.0781 6.77623 11.2104 6.3604 11.1915C5.69885 11.1915 5.0466 11.1915 4.30944 11.1915C4.30944 10.2463 4.30944 9.30123 4.30944 8.40334L4.32836 8.37495ZM15.6503 0.000905999C12.5016 0.0697426 9.44333 1.06638 6.85854 2.86596C4.27376 4.66554 2.2774 7.18802 1.11984 10.1173C-0.0377256 13.0466 -0.305014 16.2524 0.351275 19.3329C1.00756 22.4135 2.55826 25.2319 4.8092 27.4349C7.06014 29.6379 9.91117 31.1275 13.0049 31.7171C16.0987 32.3067 19.2976 31.9701 22.2009 30.7494C25.1042 29.5287 27.5827 27.4782 29.3258 24.8549C31.069 22.2315 31.9992 19.1521 32 16.0024C31.9526 11.7124 30.2038 7.61696 27.1378 4.61632C24.0719 1.61568 19.9398 -0.0444624 15.6503 0.000905999Z" fill="#DFCC93"/>
</svg>
