<svg width="16" height="14" viewBox="0 0 16 14" fill="none" xmlns="http://www.w3.org/2000/svg">
<path d="M0.0656951 7.05925C0.0888887 6.91845 0.121832 6.77947 0.164288 6.64335C0.237899 6.43494 0.358273 6.24664 0.515932 6.09331C0.673591 5.93997 0.864241 5.82576 1.07289 5.75965C1.28153 5.69354 1.50253 5.67735 1.7184 5.71233C1.93428 5.74732 2.13914 5.83257 2.31698 5.96131C2.585 6.16434 2.84282 6.38081 3.08937 6.61004L5.24206 8.58975L5.32421 8.67301L5.65288 8.30696C6.98394 6.82634 8.34779 5.41227 9.79388 4.04811C10.7517 3.12219 11.7732 2.2661 12.8505 1.48618C13.2476 1.20406 13.659 0.943018 14.0829 0.70423C14.3034 0.5579 14.5644 0.486993 14.8276 0.501965C15.0909 0.516936 15.3424 0.616978 15.5454 0.787391C15.677 0.894415 15.7853 1.02805 15.8631 1.17974C15.9409 1.33142 15.9867 1.49786 15.9975 1.66844C16.0083 1.83903 15.9839 2.01004 15.9259 2.17055C15.8678 2.33107 15.7774 2.47758 15.6604 2.60077L15.0195 3.1498C14.0402 3.9059 13.1226 4.74039 12.2752 5.64522C10.3065 7.75091 8.5606 10.0592 7.06608 12.5325C6.92201 12.7777 6.73874 12.9969 6.52377 13.1813C6.26118 13.4083 5.92093 13.5215 5.57656 13.4966C5.23219 13.4717 4.91137 13.3106 4.68331 13.0482C4.5282 12.8981 4.39038 12.7307 4.27249 12.5492C3.7795 11.8504 3.25365 11.2016 2.62921 10.5528C2.00476 9.90399 1.26534 9.02231 0.525861 8.30696C0.240786 8.04664 0.0547279 7.69353 0 7.30883V7.05925H0.0656951Z" fill="#DFCC93"/>
</svg>
