<svg width="32" height="32" viewBox="0 0 32 32" fill="none" xmlns="http://www.w3.org/2000/svg">
<path d="M16 17.549C14.9025 17.549 13.8297 17.2236 12.9172 16.6138C12.0047 16.0041 11.2935 15.1375 10.8735 14.1235C10.4536 13.1096 10.3439 11.9938 10.558 10.9174C10.7721 9.84102 11.3004 8.8523 12.0765 8.07627C12.8525 7.30023 13.841 6.77168 14.9174 6.55758C15.9938 6.34347 17.1098 6.45336 18.1237 6.87335C19.1377 7.29334 20.0043 8.00467 20.614 8.91719C21.2238 9.82972 21.5492 10.9025 21.5492 12C21.5492 12.7287 21.4057 13.4503 21.1269 14.1235C20.848 14.7968 20.4392 15.4085 19.9239 15.9237C19.4087 16.439 18.797 16.8478 18.1237 17.1267C17.4505 17.4055 16.7287 17.549 16 17.549ZM16 1C13.0826 1 10.2848 2.15896 8.22186 4.22186C6.15896 6.28477 5 9.08261 5 12C5 19.5401 14.7923 30.5726 15.2493 31.0622C15.3439 31.162 15.4578 31.2416 15.584 31.2959C15.7103 31.3502 15.8462 31.3782 15.9837 31.3782C16.1211 31.3782 16.2574 31.3502 16.3837 31.2959C16.51 31.2416 16.6239 31.162 16.7184 31.0622C17.1427 30.5726 27 19.5401 27 12C27 9.08261 25.841 6.28477 23.7781 4.22186C21.7152 2.15896 18.9174 1 16 1Z" fill="#DFCC93"/>
</svg>
