<svg width="32" height="32" viewBox="0 0 32 32" fill="none" xmlns="http://www.w3.org/2000/svg">
<path d="M23.4446 20.5701C23.2601 20.3564 23.0317 20.1851 22.775 20.0676C22.5183 19.9501 22.2395 19.8892 21.9571 19.8892C21.6748 19.8892 21.3957 19.9501 21.139 20.0676C20.8823 20.1851 20.6539 20.3564 20.4693 20.5701L18.3972 22.6687C18.2112 22.8546 18.0519 22.9077 17.8394 22.6687C17.6269 22.4296 16.9096 22.2172 16.458 21.9515C14.4889 20.6633 12.74 19.0666 11.2779 17.2228C10.515 16.3131 9.88016 15.3031 9.39159 14.221C9.33544 14.1438 9.30533 14.0508 9.30533 13.9554C9.30533 13.8599 9.33544 13.767 9.39159 13.6898L11.4637 11.6177C11.6865 11.4332 11.866 11.2018 11.9891 10.9401C12.1122 10.6783 12.1759 10.3927 12.1759 10.1034C12.1759 9.81418 12.1122 9.52852 11.9891 9.26678C11.866 9.00504 11.6865 8.77365 11.4637 8.58919L9.81672 6.94217L8.14311 5.26856C7.95856 5.05492 7.73017 4.88355 7.47347 4.76608C7.21676 4.64861 6.93794 4.58789 6.65563 4.58789C6.37332 4.58789 6.09417 4.64861 5.83747 4.76608C5.58076 4.88355 5.35237 5.05492 5.16783 5.26856C4.47714 5.95925 3.78634 6.67658 3.06908 7.34071C2.44615 7.94578 2.06814 8.75903 2.00674 9.62527C1.95349 11.0553 2.21632 12.4794 2.77691 13.796C3.81818 16.5392 5.33845 19.0757 7.26657 21.2874C9.78087 24.3162 12.915 26.771 16.458 28.4864C18.0406 29.3207 19.7756 29.8267 21.5586 29.9741C22.1533 30.0464 22.7565 29.9731 23.3165 29.7602C23.8765 29.5473 24.3764 29.2013 24.7729 28.7522C25.3839 28.088 26.0479 27.477 26.6855 26.8394C26.9042 26.6524 27.08 26.4201 27.2004 26.1587C27.3208 25.8973 27.383 25.613 27.383 25.3252C27.383 25.0374 27.3208 24.753 27.2004 24.4916C27.08 24.2302 26.9042 23.9981 26.6855 23.8111L23.3383 20.4639" fill="#DFCC93"/>
<path d="M22.3289 15.9196L24.5074 15.5477C24.1611 13.5204 23.1792 11.6559 21.7036 10.2233C20.2281 8.7907 18.3354 7.8643 16.2988 7.57812L16.0063 9.75648C17.6204 9.9714 19.1167 10.7194 20.257 11.8817C21.3481 12.9707 22.0721 14.3729 22.3289 15.893" fill="#DFCC93"/>
<path d="M25.7034 6.54269C23.2538 4.06 20.0487 2.46195 16.5917 2L16.2996 4.17836C19.3156 4.56027 22.1191 5.93391 24.2691 8.08335C26.3008 10.1121 27.6554 12.7194 28.1475 15.5481L30.2991 15.1763C29.7291 11.9042 28.161 8.88853 25.8097 6.54269" fill="#DFCC93"/>
</svg>
