<svg width="32" height="32" viewBox="0 0 32 32" fill="none" xmlns="http://www.w3.org/2000/svg">
<path fill-rule="evenodd" clip-rule="evenodd" d="M16.418 14.3163C14.0744 14.3163 2 7.4692 2 7.4692V6.4C2 5.0752 3.0752 4 4.4024 4H28.4336C29.762 4 30.8372 5.0752 30.8372 6.4L30.818 7.6C30.818 7.6 18.8744 14.3163 16.418 14.3163Z" fill="#DFCC93"/>
<path fill-rule="evenodd" clip-rule="evenodd" d="M16.418 17.6165C18.9872 17.6165 30.818 11.2002 30.818 11.2002L30.8372 25.6002C30.8372 26.925 29.762 28.0002 28.4336 28.0002H4.4024C3.0764 28.0002 2 26.925 2 25.6002L2.0192 11.2002C2.018 11.2002 14.0744 17.6165 16.418 17.6165Z" fill="#DFCC93"/>
</svg>
