<svg width="32" height="32" viewBox="0 0 32 32" fill="none" xmlns="http://www.w3.org/2000/svg">
<path d="M29.9472 23.9856L28.461 19.5269C28.3763 19.2446 28.2029 18.997 27.9664 18.8211C27.7299 18.6451 27.443 18.5501 27.1482 18.5501C26.8534 18.5501 26.5665 18.6451 26.33 18.8211C26.0935 18.997 25.9201 19.2446 25.8354 19.5269L24.3491 23.9856C24.234 24.3338 24.2614 24.7134 24.4254 25.0414C24.5894 25.3695 24.8767 25.6192 25.2243 25.736C25.3664 25.761 25.5117 25.761 25.6537 25.736H26.6775V26.6608H27.6023V25.736H28.6427C28.8247 25.7383 29.0053 25.7039 29.1737 25.6347C29.3421 25.5656 29.4949 25.4633 29.6228 25.3338C29.7508 25.2043 29.8513 25.0503 29.9184 24.8811C29.9855 24.7118 30.0178 24.5309 30.0133 24.3489C30.0383 24.2069 30.0383 24.0615 30.0133 23.9195L29.9472 23.9856ZM8.77679 23.9195L7.29057 19.4608C7.14801 19.1212 6.87766 18.8512 6.53784 18.7091C6.19802 18.567 5.81596 18.5642 5.47406 18.7012C5.26859 18.771 5.08237 18.8881 4.93037 19.0429C4.77836 19.1978 4.66481 19.3862 4.59884 19.593L3.09611 24.0516C2.9862 24.402 3.01801 24.7816 3.18472 25.1089C3.35143 25.4361 3.63975 25.6849 3.98784 25.802C4.12987 25.827 4.27517 25.827 4.41719 25.802H5.44104V26.7268H6.3658V25.802H7.40616C7.58755 25.8021 7.76714 25.7661 7.93452 25.6962C8.1019 25.6263 8.25373 25.5238 8.38123 25.3948C8.50872 25.2658 8.60933 25.1127 8.67723 24.9445C8.74513 24.7763 8.77897 24.5963 8.77679 24.4149C8.80178 24.2729 8.80178 24.1276 8.77679 23.9856V23.9195ZM21.6739 10.1141C21.6739 9.99148 21.6252 9.87391 21.5385 9.7872C21.4518 9.70048 21.3342 9.65173 21.2115 9.65173H19.296C19.1733 9.65173 19.0557 9.70048 18.969 9.7872C18.8823 9.87391 18.8336 9.99148 18.8336 10.1141V12.8884C18.8379 13.0082 18.8885 13.1216 18.9747 13.2048C19.061 13.2879 19.1761 13.3344 19.296 13.3343H21.1455C21.2653 13.3344 21.3805 13.2879 21.4667 13.2048C21.553 13.1216 21.6036 13.0082 21.6079 12.8884L21.6739 10.1141ZM21.6739 15.1838C21.6698 15.0625 21.6198 14.9473 21.5339 14.8614C21.4481 14.7756 21.3329 14.7255 21.2115 14.7214H19.296C19.1746 14.7255 19.0594 14.7756 18.9736 14.8614C18.8877 14.9473 18.8377 15.0625 18.8336 15.1838V17.9581C18.8336 18.0807 18.8823 18.1983 18.969 18.285C19.0557 18.3718 19.1733 18.4205 19.296 18.4205H21.1455C21.2681 18.4205 21.3857 18.3718 21.4724 18.285C21.5592 18.1983 21.6079 18.0807 21.6079 17.9581L21.6739 15.1838ZM17.9749 10.1141C17.9772 10.0528 17.9668 9.99165 17.9444 9.9345C17.922 9.87735 17.888 9.82541 17.8446 9.782C17.8012 9.7386 17.7493 9.70464 17.6921 9.68222C17.635 9.6598 17.5738 9.64942 17.5125 9.65173H15.5969C15.4743 9.65173 15.3567 9.70048 15.27 9.7872C15.1832 9.87391 15.1345 9.99148 15.1345 10.1141V12.8884C15.1388 13.0082 15.1894 13.1216 15.2757 13.2048C15.3619 13.2879 15.4771 13.3344 15.5969 13.3343H17.4464C17.5064 13.3365 17.5661 13.3266 17.6221 13.3052C17.6782 13.2838 17.7293 13.2513 17.7724 13.2097C17.8156 13.168 17.8499 13.1182 17.8734 13.063C17.8968 13.0078 17.9089 12.9484 17.9088 12.8884L17.9749 10.1141ZM17.9749 15.1838C17.9749 15.0612 17.9262 14.9436 17.8394 14.8568C17.7527 14.7701 17.6351 14.7214 17.5125 14.7214H15.5969C15.4756 14.7255 15.3604 14.7756 15.2745 14.8614C15.1887 14.9473 15.1386 15.0625 15.1345 15.1838V17.9581C15.1345 18.0807 15.1832 18.1983 15.27 18.285C15.3567 18.3718 15.4743 18.4205 15.5969 18.4205H17.4464C17.5078 18.4228 17.5689 18.4124 17.6261 18.39C17.6832 18.3676 17.7351 18.3336 17.7785 18.2902C17.8219 18.2468 17.8559 18.1949 17.8783 18.1377C17.9008 18.0806 17.9111 18.0194 17.9088 17.9581L17.9749 15.1838ZM14.2758 10.1141C14.278 10.0542 14.2682 9.99445 14.2467 9.93843C14.2253 9.88242 14.1928 9.83127 14.1512 9.7881C14.1096 9.74494 14.0597 9.71064 14.0045 9.68721C13.9493 9.66378 13.8899 9.65169 13.83 9.65173H11.9144C11.853 9.64942 11.7919 9.6598 11.7347 9.68222C11.6776 9.70464 11.6257 9.7386 11.5823 9.782C11.5389 9.82541 11.5049 9.87735 11.4825 9.9345C11.4601 9.99165 11.4497 10.0528 11.452 10.1141V12.8884C11.452 12.9484 11.464 13.0078 11.4874 13.063C11.5109 13.1182 11.5452 13.168 11.5884 13.2097C11.6315 13.2513 11.6827 13.2838 11.7387 13.3052C11.7947 13.3266 11.8545 13.3365 11.9144 13.3343H13.7639C13.8822 13.3343 13.9956 13.2873 14.0792 13.2037C14.1628 13.1201 14.2098 13.0067 14.2098 12.8884L14.2758 10.1141ZM14.2758 15.1838C14.2759 15.064 14.2295 14.9488 14.1463 14.8626C14.0631 14.7763 13.9497 14.7257 13.83 14.7214H11.9144C11.7917 14.7214 11.6741 14.7701 11.5874 14.8568C11.5007 14.9436 11.452 15.0612 11.452 15.1838V17.9581C11.4497 18.0194 11.4601 18.0806 11.4825 18.1377C11.5049 18.1949 11.5389 18.2468 11.5823 18.2902C11.6257 18.3336 11.6776 18.3676 11.7347 18.39C11.7919 18.4124 11.853 18.4228 11.9144 18.4205H13.7639C13.8239 18.4205 13.8832 18.4085 13.9384 18.385C13.9936 18.3616 14.0435 18.3273 14.0852 18.2841C14.1268 18.2409 14.1593 18.1898 14.1807 18.1338C14.2021 18.0778 14.212 18.018 14.2098 17.9581L14.2758 15.1838ZM23.5234 8.72697V26.7268H20.2207V23.0443H20.6831C20.8044 23.0402 20.9197 22.9901 21.0055 22.9043C21.0913 22.8185 21.1414 22.7032 21.1455 22.5819C21.1604 22.5167 21.1604 22.449 21.1455 22.3838C20.7078 21.5557 20.04 20.8719 19.2225 20.4148C18.4051 19.9577 17.4728 19.7469 16.5382 19.8076C15.611 19.7654 14.6905 19.9845 13.8818 20.44C13.073 20.8954 12.4085 21.569 11.9639 22.3838C11.9137 22.4955 11.9098 22.6225 11.9531 22.7371C11.9965 22.8516 12.0835 22.9443 12.1951 22.9948H12.3933H12.8557V26.6773H9.55293V8.79304C9.55722 8.42648 9.70474 8.07615 9.96396 7.81693C10.2232 7.55771 10.5735 7.41019 10.9401 7.4059H22.0207C22.3873 7.41019 22.7376 7.55771 22.9968 7.81693C23.256 8.07615 23.4036 8.42648 23.4079 8.79304L23.5234 8.72697ZM19.8409 12.4261H20.7657V10.5765H19.8409V12.4261ZM19.8409 17.4957H20.7657V15.6462H19.8409V17.4957ZM16.1419 12.4261H17.0666V10.5765H16.1419V12.4261ZM16.6042 20.6829C15.9853 20.6547 15.3679 20.7646 14.7967 21.0045C14.2254 21.2444 13.7147 21.6084 13.3015 22.07H19.907C19.493 21.6093 18.9822 21.2459 18.4111 21.0061C17.8401 20.7663 17.223 20.6559 16.6042 20.6829ZM16.1419 22.9948H13.7639V26.6773H16.0593L16.1419 22.9948ZM17.0666 26.6773H19.3785V22.9948H17.0666V26.6773ZM12.4593 17.4462H13.2355V15.5966H12.3107L12.4593 17.4462ZM16.1419 17.4462H17.0666V15.5966H16.1419V17.4462ZM12.4593 12.3765H13.2355V10.527H12.3107L12.4593 12.3765ZM22.1528 2.6665H10.9896C10.867 2.6665 10.7494 2.7152 10.6627 2.80192C10.5759 2.88863 10.5272 3.00625 10.5272 3.12888V5.90316C10.5249 5.9645 10.5353 6.02567 10.5577 6.08282C10.5801 6.13997 10.6141 6.19186 10.6575 6.23527C10.7009 6.27867 10.7528 6.31263 10.81 6.33505C10.8671 6.35747 10.9283 6.36786 10.9896 6.36554H22.0702C22.131 6.36554 22.1911 6.3536 22.2472 6.33036C22.3033 6.30713 22.3543 6.27306 22.3972 6.23013C22.4401 6.18719 22.4742 6.1362 22.4974 6.0801C22.5207 6.024 22.5326 5.96388 22.5326 5.90316V3.17842C22.5285 3.0571 22.4785 2.94188 22.3926 2.85604C22.3068 2.7702 22.1916 2.72016 22.0702 2.71604L22.1528 2.6665ZM6.82818 10.9729C6.64602 10.9729 6.46564 11.0087 6.29734 11.0784C6.12905 11.1481 5.97613 11.2503 5.84733 11.3791C5.71852 11.5079 5.61634 11.6608 5.54663 11.8291C5.47692 11.9974 5.44104 12.1778 5.44104 12.36V17.6278C5.59473 17.6116 5.74972 17.6116 5.90342 17.6278C6.39866 17.6293 6.88014 17.7909 7.27598 18.0886C7.67181 18.3862 7.96078 18.8038 8.09973 19.2792L8.67771 21.0131V11.1049L6.82818 10.9729ZM29.9472 27.5855H3.12913C3.00781 27.5897 2.89258 27.6397 2.80674 27.7255C2.7209 27.8114 2.67086 27.9266 2.66675 28.0479V29.8974C2.67086 30.0188 2.7209 30.134 2.80674 30.2198C2.89258 30.3057 3.00781 30.3557 3.12913 30.3598H29.9142C30.0368 30.3598 30.1545 30.3111 30.2412 30.2244C30.3279 30.1377 30.3766 30.0201 30.3766 29.8974V28.114C30.3766 27.9914 30.3279 27.8737 30.2412 27.787C30.1545 27.7003 30.0368 27.6516 29.9142 27.6516L29.9472 27.5855ZM27.6023 12.4261V17.6939C27.4487 17.6769 27.2936 17.6769 27.1399 17.6939C26.6462 17.6936 26.1659 17.8547 25.7723 18.1529C25.3787 18.4511 25.0935 18.8699 24.9601 19.3453L24.3822 21.0792V11.171H26.2152C26.3979 11.1688 26.5793 11.2032 26.7486 11.2721C26.9179 11.341 27.0717 11.4431 27.201 11.5724C27.3302 11.7016 27.4323 11.8554 27.5012 12.0247C27.5702 12.194 27.6045 12.3754 27.6023 12.5581" fill="#306261"/>
</svg>
