<svg width="32" height="32" viewBox="0 0 32 32" fill="none" xmlns="http://www.w3.org/2000/svg">
<path d="M10.4392 27.8198L8.01198 25.3926L5.80688 27.5976C5.51588 27.925 5.36128 28.3513 5.37485 28.7891C5.38841 29.2269 5.56911 29.6428 5.87982 29.9515C6.19053 30.2602 6.60766 30.4381 7.04551 30.4488C7.48336 30.4595 7.90866 30.3021 8.23407 30.009L10.4392 27.8198Z" fill="#306261"/>
<path d="M20.6712 25.4878L10.3437 15.1445C10.1414 17.21 10.6266 19.2845 11.7239 21.0459C11.7853 21.1374 11.8181 21.2451 11.8181 21.3552C11.8181 21.4654 11.7853 21.5731 11.7239 21.6646L8.86841 24.5202L11.2956 26.9473L14.1511 24.0918H14.2463H14.3573H14.6746H14.7857C16.5454 25.1792 18.6115 25.6637 20.6712 25.472" fill="#306261"/>
<path d="M26.4939 9.32201C25.2992 8.15685 23.8193 7.32623 22.2024 6.91346C20.5855 6.50068 18.8885 6.52025 17.2815 6.9702C15.6746 7.42015 14.2141 8.28468 13.0467 9.47708C11.8792 10.6695 11.0458 12.1478 10.6299 13.7639L22.1154 25.2495C24.5562 24.6416 26.6571 23.0923 27.9591 20.9401C29.2611 18.788 29.6583 16.208 29.0639 13.7639C28.6428 12.0849 27.7769 10.5504 26.5573 9.32201" fill="#306261"/>
<path d="M7.26676 1.70755C8.05675 1.71069 8.82812 1.94779 9.48345 2.38896C10.1388 2.83014 10.6487 3.45559 10.9488 4.18635C11.249 4.91711 11.3259 5.72044 11.1699 6.49488C11.0138 7.26931 10.6318 7.98011 10.0721 8.53762C9.51241 9.09512 8.80005 9.47433 8.02501 9.6273C7.24996 9.78027 6.44696 9.70018 5.7174 9.39714C4.98783 9.0941 4.3644 8.58168 3.92582 7.92461C3.48725 7.26754 3.25318 6.49526 3.25317 5.70526C3.25317 5.17893 3.3571 4.65779 3.559 4.17173C3.76089 3.68566 4.05678 3.24424 4.42968 2.8728C4.80259 2.50137 5.24516 2.20725 5.73202 2.00728C6.21888 1.80731 6.74044 1.70546 7.26676 1.70755Z" fill="#306261"/>
</svg>
