<svg width="32" height="32" viewBox="0 0 32 32" fill="none" xmlns="http://www.w3.org/2000/svg">
<path d="M30.4609 14.2662C30.5613 14.0904 30.5889 13.8823 30.5378 13.6863C30.4867 13.4904 30.3609 13.3223 30.1874 13.218L16.4086 5.3335L2.645 13.218C2.47149 13.3223 2.34573 13.4904 2.29462 13.6863C2.24352 13.8823 2.27113 14.0904 2.37155 14.2662C2.42052 14.3549 2.48673 14.4329 2.5663 14.4956C2.64586 14.5583 2.73717 14.6044 2.83485 14.6313C2.93252 14.6582 3.03459 14.6653 3.13504 14.6522C3.23549 14.639 3.3323 14.6059 3.41977 14.5548L16.4086 7.05016L29.4127 14.5548C29.5001 14.6059 29.5969 14.639 29.6974 14.6522C29.7978 14.6653 29.8999 14.6582 29.9976 14.6313C30.0953 14.6044 30.1866 14.5583 30.2661 14.4956C30.3457 14.4329 30.4119 14.3549 30.4609 14.2662Z" fill="#306261"/>
<path d="M18.4296 22.5759H21.1489V24.3685H18.9461C18.8078 24.3646 18.6764 24.3068 18.5799 24.2075C18.4835 24.1082 18.4296 23.9752 18.4296 23.8368V22.5759ZM18.4296 20.2668C18.4296 20.1298 18.484 19.9984 18.5809 19.9015C18.6778 19.8047 18.8091 19.7503 18.9461 19.7503H21.1489V21.5277H18.4296V20.2668ZM24.5063 19.7503C24.6433 19.7503 24.7746 19.8047 24.8715 19.9015C24.9684 19.9984 25.0228 20.1298 25.0228 20.2668V21.5277H22.182V19.7503H24.5063ZM25.0228 23.8368C25.0228 23.9752 24.9689 24.1082 24.8725 24.2075C24.776 24.3068 24.6446 24.3646 24.5063 24.3685H22.182V22.5759H24.9468L25.0228 23.8368ZM15.4065 27.1334H28.0611C28.1802 27.1055 28.286 27.0374 28.3608 26.9405C28.4355 26.8437 28.4745 26.724 28.4713 26.6017V15.6486C28.4646 15.492 28.4195 15.3394 28.34 15.2043C28.2606 15.0692 28.1491 14.9557 28.0155 14.8738L16.8649 8.37175C16.7272 8.29729 16.5732 8.2583 16.4167 8.2583C16.2602 8.2583 16.1062 8.29729 15.9686 8.37175L4.78754 14.8282C4.65394 14.9101 4.54251 15.0237 4.46305 15.1587C4.38358 15.2938 4.33851 15.4464 4.33179 15.603V26.6017C4.33173 26.7401 4.38566 26.8731 4.48211 26.9724C4.57857 27.0717 4.70993 27.1295 4.8483 27.1334H9.10196C9.24033 27.1295 9.3717 27.0717 9.46815 26.9724C9.5646 26.8731 9.61853 26.7401 9.61847 26.6017V17.9729C9.62243 17.8345 9.68019 17.7031 9.77948 17.6067C9.87877 17.5102 10.0118 17.4563 10.1502 17.4564H14.2823C14.4193 17.4564 14.5507 17.5108 14.6475 17.6076C14.7444 17.7045 14.7988 17.8359 14.7988 17.9729V26.6017C14.7988 26.7427 14.8548 26.878 14.9546 26.9777C15.0543 27.0774 15.1895 27.1334 15.3305 27.1334" fill="#306261"/>
<path d="M23.9139 5.66764H22.182C22.0451 5.66764 21.9137 5.72205 21.8168 5.81892C21.7199 5.91579 21.6655 6.04716 21.6655 6.18415V7.26275L24.3848 8.78191V6.13858C24.3848 6.00159 24.3304 5.87021 24.2335 5.77335C24.1367 5.67648 24.0053 5.62207 23.8683 5.62207" fill="#306261"/>
</svg>
