<svg width="32" height="32" viewBox="0 0 32 32" fill="none" xmlns="http://www.w3.org/2000/svg">
<path d="M12.9468 23.2799L12.6934 22.6533L9.92008 21.6133H7.69342H4.49341H2.66675V30.3066H12.9468V23.2799Z" fill="#306261"/>
<path d="M11.5605 2.6665C12.0879 2.6665 12.6035 2.82291 13.042 3.11593C13.4805 3.40894 13.8223 3.82543 14.0241 4.3127C14.226 4.79997 14.2788 5.33615 14.1759 5.85343C14.073 6.37072 13.819 6.84585 13.4461 7.21879C13.0731 7.59173 12.598 7.84571 12.0807 7.94861C11.5634 8.0515 11.0272 7.99871 10.54 7.79687C10.0527 7.59504 9.63624 7.25323 9.34322 6.8147C9.0502 6.37617 8.8938 5.86059 8.8938 5.33317C8.8938 4.62593 9.17475 3.94765 9.67485 3.44755C10.1749 2.94745 10.8532 2.6665 11.5605 2.6665Z" fill="#306261"/>
<path d="M8.64048 14.2533C8.67231 14.2021 8.7232 14.1655 8.78196 14.1518C8.84072 14.138 8.90254 14.1482 8.95382 14.18C9.00509 14.2118 9.04163 14.2627 9.05538 14.3215C9.06913 14.3803 9.05899 14.4421 9.02716 14.4933L5.65383 19.9334C5.71721 20.0407 5.78851 20.1433 5.86715 20.24C6.0845 20.5204 6.36359 20.7468 6.68272 20.9018C7.00185 21.0567 7.35241 21.136 7.70715 21.1334H10.0672L12.9738 22.2533C13.0048 22.2639 13.0329 22.2814 13.056 22.3045C13.0791 22.3276 13.0966 22.3557 13.1072 22.3867L16.0538 29.9467H17.3871L15.3071 21.1867C15.2208 20.846 15.0681 20.5257 14.8575 20.2442C14.647 19.9628 14.3829 19.7257 14.0805 19.5467L10.6272 17.5467C10.5856 17.5205 10.553 17.4821 10.534 17.4368C10.5149 17.3915 10.5102 17.3414 10.5205 17.2933L11.4538 12.5334C11.5774 12.0029 11.523 11.4465 11.2989 10.9501C11.0748 10.4537 10.6934 10.0448 10.2138 9.78667C9.92973 9.63326 9.61799 9.53776 9.29671 9.50571C8.97543 9.47365 8.65099 9.50569 8.34218 9.59994C8.03337 9.6942 7.74634 9.84882 7.49772 10.0548C7.2491 10.2608 7.04383 10.5141 6.89382 10.8C6.84143 10.8847 6.79682 10.974 6.7605 11.0667L2.7605 21.1334H4.34715L8.64048 14.2533Z" fill="#306261"/>
<path d="M19.7202 18.3867L20.6535 29.9601H22.2135L21.6935 18.3867H19.7202Z" fill="#306261"/>
<path d="M29.1205 29.9601L30.0539 18.3867H28.0805L27.5605 29.9601H29.1205Z" fill="#306261"/>
<path d="M22.6668 29.9601H24.6535V18.3867H22.1602L22.6668 29.9601Z" fill="#306261"/>
<path d="M25.1206 18.3867V29.9601H27.094L27.614 18.3867H25.1206Z" fill="#306261"/>
<path d="M27.267 15.7998C27.2443 15.8198 27.2261 15.8444 27.2137 15.872C27.2012 15.8996 27.1948 15.9295 27.1948 15.9598C27.1948 15.9901 27.2012 16.02 27.2137 16.0476C27.2261 16.0752 27.2443 16.0998 27.267 16.1198C27.3141 16.1384 27.3666 16.1384 27.4137 16.1198C27.4468 16.1208 27.4797 16.1141 27.5098 16.1003C27.5399 16.0864 27.5663 16.0657 27.587 16.0398C27.9115 15.6299 28.088 15.1225 28.088 14.5998C28.088 14.0771 27.9115 13.5696 27.587 13.1598C27.3296 12.833 27.1897 12.4291 27.1897 12.0131C27.1897 11.5972 27.3296 11.1933 27.587 10.8665C27.6302 10.8218 27.6543 10.762 27.6543 10.6998C27.6543 10.6377 27.6302 10.5779 27.587 10.5332C27.5423 10.49 27.4825 10.4658 27.4203 10.4658C27.3582 10.4658 27.2984 10.49 27.2537 10.5332C26.9292 10.943 26.7527 11.4504 26.7527 11.9731C26.7527 12.4959 26.9292 13.0033 27.2537 13.4131C27.5121 13.742 27.6526 14.1482 27.6526 14.5665C27.6526 14.9848 27.5121 15.3909 27.2537 15.7198" fill="#306261"/>
<path d="M22.4803 10.5998C22.4372 10.564 22.3829 10.5444 22.3269 10.5444C22.2709 10.5444 22.2167 10.564 22.1736 10.5998C21.8491 11.0097 21.6726 11.5171 21.6726 12.0398C21.6726 12.5625 21.8491 13.07 22.1736 13.4798C22.4402 13.8025 22.5861 14.2079 22.5861 14.6265C22.5861 15.045 22.4402 15.4505 22.1736 15.7732C22.1313 15.8156 22.1075 15.8732 22.1075 15.9331C22.1075 15.9931 22.1313 16.0507 22.1736 16.0931C22.2183 16.1363 22.2781 16.1604 22.3403 16.1604C22.4024 16.1604 22.4622 16.1363 22.5069 16.0931C22.8292 15.6823 23.0043 15.1753 23.0043 14.6532C23.0043 14.131 22.8292 13.624 22.5069 13.2131C22.2427 12.8894 22.0983 12.4844 22.0983 12.0665C22.0983 11.6486 22.2427 11.2435 22.5069 10.9198C22.5493 10.8773 22.573 10.8198 22.573 10.7598C22.573 10.6998 22.5493 10.6423 22.5069 10.5998" fill="#306261"/>
<path d="M25.0669 9.41333C25.11 9.36859 25.1342 9.30884 25.1342 9.24666C25.1342 9.18449 25.11 9.12474 25.0669 9.08C25.0221 9.03682 24.9624 9.0127 24.9002 9.0127C24.838 9.0127 24.7783 9.03682 24.7335 9.08C24.4124 9.48875 24.2378 9.99352 24.2378 10.5133C24.2378 11.0332 24.4124 11.5379 24.7335 11.9467C25.0002 12.2693 25.146 12.6748 25.146 13.0933C25.146 13.5119 25.0002 13.9174 24.7335 14.24C24.6912 14.2825 24.6674 14.34 24.6674 14.4C24.6674 14.46 24.6912 14.5175 24.7335 14.56C24.7806 14.5786 24.8331 14.5786 24.8802 14.56C24.9133 14.5611 24.9462 14.5544 24.9763 14.5405C25.0064 14.5266 25.0328 14.5059 25.0535 14.48C25.3757 14.0692 25.5509 13.5621 25.5509 13.04C25.5509 12.5179 25.3757 12.0109 25.0535 11.6C24.7949 11.2763 24.6541 10.8743 24.6541 10.46C24.6541 10.0457 24.7949 9.64374 25.0535 9.32003" fill="#306261"/>
</svg>
