<svg width="32" height="32" viewBox="0 0 32 32" fill="none" xmlns="http://www.w3.org/2000/svg">
<g clip-path="url(#clip0_120_8959)">
<path d="M4.94828 21.5887L5.71981 27.6001L1.99076 28.0341V22.0387L4.94828 21.5887ZM9.77034 18.2775C9.70173 18.2605 9.62999 18.2605 9.56138 18.2775L5.28583 19.4348L0.801318 20.1099C0.563918 20.1566 0.349177 20.282 0.191712 20.4657C0.0342475 20.6494 -0.0567635 20.8808 -0.0666504 21.1225V29.1593C-0.0605981 29.3015 -0.0259772 29.4411 0.0351488 29.5697C0.0962748 29.6982 0.182656 29.8132 0.289146 29.9077C0.395635 30.0022 0.520054 30.0743 0.654991 30.1197C0.789928 30.1651 0.932619 30.1828 1.07457 30.1719L6.87711 29.4968C7.04331 29.4779 7.20223 29.418 7.33967 29.3227C7.47711 29.2273 7.58879 29.0994 7.66471 28.9503L8.75771 26.7804H17.3249C17.5258 26.7786 17.7216 26.717 17.8875 26.6036C20.2824 24.9962 22.7095 23.3889 25.1527 21.7815C25.4779 21.4958 25.6975 21.109 25.7762 20.6834C25.8549 20.2577 25.7882 19.8179 25.5867 19.4348C25.3658 19.0845 25.0318 18.8201 24.64 18.6856C24.2483 18.5512 23.8223 18.5546 23.4328 18.6954L17.6464 21.1707H17.2124C17.5298 21.0174 17.7925 20.7701 17.9648 20.4625C18.137 20.1549 18.2106 19.8018 18.1755 19.451C18.1405 19.1002 17.9984 18.7686 17.7686 18.5012C17.5389 18.2338 17.2324 18.0435 16.8909 17.956C15.0425 18.0364 12.101 18.1489 9.78642 18.2775H9.77034ZM19.0287 5.65981C23.8507 5.65981 28.2388 10.3533 28.8175 15.2075H9.25599C9.83463 10.3854 14.2709 5.65981 19.0448 5.65981H19.0287ZM17.5821 1.56104C17.3601 1.58424 17.1514 1.67792 16.9865 1.82832C16.8217 1.97873 16.7093 2.17799 16.6659 2.39689C16.6659 3.13627 17.0838 3.34521 17.5017 3.73097C14.7753 4.28104 12.2982 5.69397 10.437 7.76078C8.57568 9.82758 7.42897 12.4385 7.16643 15.2075H6.0895V17.2488H32V15.2075H30.9231C30.6605 12.4385 29.5138 9.82758 27.6526 7.76078C25.7913 5.69397 23.3143 4.28104 20.5878 3.73097C21.0379 3.36128 21.5201 2.8791 21.4076 2.34867C21.3487 2.12744 21.2198 1.93118 21.0402 1.78923C20.8606 1.64727 20.6399 1.56721 20.411 1.56104H17.5821Z" fill="#306261"/>
</g>
<defs>
<clipPath id="clip0_120_8959">
<rect width="32" height="32" fill="white"/>
</clipPath>
</defs>
</svg>
