<svg width="32" height="32" viewBox="0 0 32 32" fill="none" xmlns="http://www.w3.org/2000/svg">
<path d="M17.0426 12.4936C15.9154 11.9146 14.6696 11.6043 13.4026 11.5869C9.40257 11.5869 6.0559 15.0802 4.66923 16.7736L1.62923 13.7603C1.45027 13.5875 1.21127 13.491 0.962565 13.491C0.713857 13.491 0.474855 13.5875 0.295898 13.7603C0.120027 13.9376 0.021342 14.1772 0.021342 14.4269C0.021342 14.6767 0.120027 14.9163 0.295898 15.0936L3.45589 18.2136L0.269226 21.3336C0.0965122 21.5125 0 21.7515 0 22.0002C0 22.249 0.0965122 22.488 0.269226 22.6669C0.448183 22.8396 0.687185 22.9362 0.935893 22.9362C1.1846 22.9362 1.4236 22.8396 1.60256 22.6669L4.64256 19.6536C5.97589 21.3469 9.34923 24.8403 13.3759 24.8403C14.6429 24.8229 15.8888 24.5126 17.0159 23.9336C15.9062 22.2298 15.3155 20.2402 15.3155 18.2069C15.3155 16.1736 15.9062 14.184 17.0159 12.4802" fill="#306261"/>
<path d="M22.5626 17.6933C21.4337 16.0778 20.0515 14.6551 18.4693 13.48C17.537 14.885 17.0398 16.5338 17.0398 18.22C17.0398 19.9062 17.537 21.555 18.4693 22.96C20.0515 21.7849 21.4337 20.3621 22.5626 18.7467C22.6723 18.593 22.7313 18.4088 22.7313 18.22C22.7313 18.0312 22.6723 17.847 22.5626 17.6933Z" fill="#306261"/>
<path d="M29.363 4C29.1119 4 28.8711 4.09973 28.6936 4.27726C28.516 4.4548 28.4163 4.69558 28.4163 4.94666V23.9067C28.4163 24.031 28.3918 24.1541 28.3442 24.2689C28.2967 24.3838 28.2269 24.4881 28.139 24.576C28.0511 24.664 27.9468 24.7337 27.8319 24.7813C27.7171 24.8289 27.594 24.8534 27.4696 24.8534C27.3453 24.8534 27.2222 24.8289 27.1074 24.7813C26.9925 24.7337 26.8882 24.664 26.8003 24.576C26.7123 24.4881 26.6426 24.3838 26.595 24.2689C26.5475 24.1541 26.523 24.031 26.523 23.9067V22.0133C26.523 21.7623 26.4232 21.5215 26.2457 21.344C26.0682 21.1664 25.8274 21.0667 25.5763 21.0667C25.3252 21.0667 25.0845 21.1664 24.9069 21.344C24.7294 21.5215 24.6296 21.7623 24.6296 22.0133V23.9067C24.6296 24.6599 24.9289 25.3822 25.4615 25.9148C25.9941 26.4474 26.7164 26.7467 27.4696 26.7467C28.2229 26.7467 28.9452 26.4474 29.4778 25.9148C30.0104 25.3822 30.3096 24.6599 30.3096 23.9067V4.94666C30.3096 4.69558 30.2099 4.4548 30.0324 4.27726C29.8548 4.09973 29.614 4 29.363 4Z" fill="#306261"/>
</svg>
