<svg width="32" height="32" viewBox="0 0 32 32" fill="none" xmlns="http://www.w3.org/2000/svg">
<path d="M23.126 10.6694C23.1119 10.5324 23.1119 10.3944 23.126 10.2575C23.126 10.1154 23.126 9.84557 23.2254 9.64672C23.2422 9.51771 23.2659 9.38967 23.2964 9.2632C23.2964 9.05014 23.3958 8.8229 23.4526 8.60984L23.5379 8.31158C23.642 7.9991 23.7556 7.68662 23.8787 7.37414C23.9969 7.09282 24.1297 6.81787 24.2764 6.55035L24.4469 6.25204L24.7878 5.69813L25.015 5.37143L25.3843 4.86012C25.4695 4.76069 25.5548 4.64706 25.6542 4.54764L25.8388 4.32038C25.6542 4.16414 25.4837 4.0221 25.2849 3.88007L25.1144 3.75224C24.9317 3.61925 24.742 3.49597 24.5463 3.38293C23.6682 2.84757 22.7087 2.45898 21.7056 2.23245L21.1943 2.13301L20.7397 2.06201H20.2284H20.1006V11.1381H23.0833C23.0764 11.034 23.0764 10.9296 23.0833 10.8256" fill="#306261"/>
<path d="M13.624 4.83141L14.0075 5.32854L14.2206 5.64102C14.3484 5.82567 14.4621 6.02451 14.5757 6.20916C14.6893 6.3938 14.6893 6.39382 14.7319 6.49325C14.8834 6.7654 15.0209 7.0451 15.1438 7.33125C15.2574 7.62953 15.3569 7.942 15.4563 8.25448C15.4628 8.3538 15.4628 8.45342 15.4563 8.55274C15.5281 8.77117 15.585 8.9942 15.6267 9.22031C15.6267 9.33394 15.6267 9.46179 15.6267 9.58962C15.6267 9.71745 15.6978 10.0015 15.7262 10.2004C15.7121 10.3373 15.7121 10.4753 15.7262 10.6123C15.7262 10.7543 15.7262 10.8253 15.7262 10.9248H18.7657V1.83447H18.6805H18.3538L17.7431 1.93391H17.459L16.692 2.13274H16.6068C16.3224 2.21723 16.0426 2.31678 15.7688 2.431L15.5131 2.54465L15.016 2.80031L14.6751 2.98496C14.5473 3.07018 14.4052 3.14119 14.2774 3.24061L13.9365 3.49627L13.6098 3.73775L13.2263 4.05023L13.1411 4.12123L13.34 4.36271L13.5956 4.67519" fill="#306261"/>
<path d="M25.4411 18.1687L25.0576 17.6573L24.8446 17.3448C24.7168 17.1602 24.6031 16.9756 24.4895 16.7767L24.3333 16.4927C24.1912 16.2228 24.0492 15.9387 23.9213 15.6404C23.7935 15.3349 23.6845 15.0218 23.5947 14.703C23.5597 14.6055 23.5313 14.5059 23.5094 14.4047C23.5094 14.1917 23.3816 13.9786 23.339 13.7513C23.2964 13.5241 23.339 13.4957 23.268 13.3679C23.197 13.24 23.268 12.956 23.1828 12.7571C23.1927 12.62 23.1927 12.4823 23.1828 12.3452C23.1828 12.2174 23.1828 12.1321 23.1828 12.0327H20.1006V21.1514H20.3705H20.7255C20.9214 21.137 21.1161 21.1085 21.3079 21.0662H21.6062L22.3448 20.8673H22.4584C22.7382 20.7828 23.0132 20.6833 23.2822 20.5691L23.5521 20.4413C23.7277 20.3722 23.8985 20.2915 24.0634 20.1998L24.4043 20.0151L24.802 19.7737C24.9193 19.6804 25.0427 19.595 25.1713 19.518L25.4837 19.2766L25.8672 18.9641L25.9525 18.893L25.7536 18.6516L25.4979 18.3107" fill="#306261"/>
<path d="M24.1347 12.26C24.1206 12.3827 24.1206 12.5067 24.1347 12.6294C24.1752 12.8119 24.2037 12.997 24.2199 13.1833C24.2199 13.3537 24.2199 13.4105 24.2199 13.51C24.2537 13.7118 24.3012 13.9111 24.3619 14.1065V14.3906C24.4613 14.6605 24.5608 14.9445 24.6744 15.2144C24.7851 15.492 24.9131 15.7625 25.0579 16.024L25.1999 16.2796C25.2993 16.4501 25.3988 16.6205 25.5124 16.7768L25.7255 17.0609C25.8249 17.2171 25.9385 17.3592 26.0521 17.5154L26.2936 17.7852L26.464 17.9841C26.4945 17.9354 26.5329 17.8922 26.5777 17.8563L26.9186 17.4443L27.16 17.1319L27.4157 16.7626L27.6997 16.2939C27.785 16.1376 27.8134 16.1092 27.856 16.0098C27.996 15.7626 28.1194 15.5064 28.2253 15.2428C28.3465 14.9653 28.4508 14.6807 28.5378 14.3906C28.5272 14.3659 28.5218 14.3393 28.5218 14.3125C28.5218 14.2856 28.5272 14.259 28.5378 14.2343C28.5378 13.9929 28.6656 13.7656 28.7224 13.5241C28.7144 13.4296 28.7144 13.3346 28.7224 13.2401C28.7224 13.0412 28.7934 12.8424 28.8076 12.6294V12.2884V12.0044H24.092C24.0988 12.0895 24.0988 12.175 24.092 12.26" fill="#306261"/>
<path d="M25.683 6.19491C25.5693 6.36535 25.4699 6.54998 25.3705 6.70621L25.2284 6.94769C25.0864 7.2223 24.9586 7.49213 24.8449 7.75727C24.7262 8.03094 24.6219 8.31066 24.5325 8.59527V8.87936C24.4702 9.06952 24.4227 9.26422 24.3904 9.46171C24.3973 9.57524 24.3973 9.68906 24.3904 9.80259C24.3904 9.91621 24.3904 10.1719 24.3052 10.3565C24.22 10.5412 24.3052 10.598 24.3052 10.7116C24.3052 10.8253 24.3052 10.8963 24.3052 10.9815H29.3333V10.6974V10.3565C29.3225 10.1499 29.2891 9.94516 29.2339 9.7458C29.2397 9.6512 29.2397 9.55631 29.2339 9.46171C29.2339 9.22025 29.1202 8.993 29.0492 8.75153C29.0539 8.69956 29.0539 8.64725 29.0492 8.59527C28.9498 8.297 28.8504 8.01296 28.7367 7.74309C28.6231 7.47322 28.4953 7.21753 28.3674 6.96187L28.197 6.692C28.197 6.59257 28.0123 6.37954 27.9271 6.2233L27.6573 5.85399L27.2027 5.59834L26.8477 5.18642C26.8111 5.14654 26.7779 5.1038 26.7482 5.05859L26.5636 5.25746L26.3363 5.52734C26.2085 5.68358 26.1091 5.82558 25.9954 5.98182L25.683 6.19491Z" fill="#306261"/>
<path d="M14.9308 10.726C14.9382 10.6077 14.9382 10.4892 14.9308 10.3709C14.9308 10.2431 14.9308 10.0016 14.8456 9.81699C14.8374 9.70351 14.8374 9.5896 14.8456 9.47612C14.8456 9.27727 14.7462 9.0784 14.6893 8.87955L14.6183 8.60968C14.5289 8.32506 14.4246 8.04535 14.3059 7.77167C14.1922 7.50654 14.0644 7.23666 13.9224 6.96205L13.7803 6.72062C13.6809 6.55018 13.5815 6.36551 13.4678 6.20927L13.269 5.92522L12.9281 5.48491L12.6866 5.20082L12.5304 5.00195L12.4168 5.12982L12.0617 5.5417L11.8344 5.85418L11.5646 6.22348L11.2947 6.67801L11.1243 6.96205C10.9964 7.21772 10.8686 7.4734 10.755 7.72906C10.6413 7.98473 10.5419 8.29718 10.4425 8.59546C10.4472 8.64743 10.4472 8.69975 10.4425 8.75172C10.3707 8.9846 10.3138 9.2218 10.272 9.4619C10.2787 9.55647 10.2787 9.65142 10.272 9.74599C10.272 9.94484 10.201 10.1437 10.1726 10.3425V10.6834V10.9675H15.1865C15.1785 10.8872 15.1785 10.8063 15.1865 10.726" fill="#306261"/>
<path d="M19.1775 28.1396C18.0481 28.239 16.9122 28.239 15.7829 28.1396L16.0527 27.8697L19.1917 24.7307C19.2911 25.8648 19.2911 27.0055 19.1917 28.1396H19.1775ZM15.3567 23.5802C15.4456 23.6772 15.4949 23.8038 15.4949 23.9353C15.4949 24.0668 15.4456 24.1935 15.3567 24.2904C15.3092 24.3381 15.2528 24.3759 15.1906 24.4017C15.1285 24.4275 15.0618 24.4408 14.9946 24.4408C14.9273 24.4408 14.8606 24.4275 14.7985 24.4017C14.7363 24.3759 14.6799 24.3381 14.6324 24.2904L14.2773 23.9353L13.5529 24.6739C13.51 24.7243 13.4576 24.7657 13.3987 24.7958C13.3398 24.8259 13.2755 24.8441 13.2096 24.8494C13.1436 24.8547 13.0773 24.8469 13.0143 24.8266C12.9514 24.8062 12.8931 24.7736 12.8427 24.7307C12.7923 24.6878 12.7509 24.6354 12.7208 24.5765C12.6907 24.5176 12.6725 24.4533 12.6672 24.3874C12.6619 24.3214 12.6697 24.2551 12.6901 24.1921C12.7104 24.1292 12.743 24.0709 12.7859 24.0205L13.4961 23.2961L12.0757 21.8758L11.3655 22.6002C11.3192 22.6474 11.264 22.685 11.203 22.7106C11.1421 22.7362 11.0766 22.7494 11.0104 22.7494C10.9443 22.7494 10.8788 22.7362 10.8179 22.7106C10.7569 22.685 10.7016 22.6474 10.6554 22.6002C10.6077 22.5527 10.5699 22.4962 10.5441 22.4341C10.5183 22.3719 10.505 22.3053 10.505 22.238C10.505 22.1707 10.5183 22.104 10.5441 22.0419C10.5699 21.9797 10.6077 21.9233 10.6554 21.8758L11.3655 21.1656L9.94518 19.7452L9.235 20.4412C9.13894 20.5373 9.00866 20.5913 8.87281 20.5913C8.73696 20.5913 8.60667 20.5373 8.51061 20.4412C8.41456 20.3452 8.36059 20.2149 8.36059 20.0791C8.36059 19.9432 8.41456 19.8129 8.51061 19.7169L9.235 19.0067L7.81464 17.5863L7.09026 18.2965C7.04362 18.345 6.9879 18.3838 6.92626 18.4108C6.86462 18.4378 6.79827 18.4523 6.73101 18.4536C6.66374 18.4549 6.59688 18.443 6.53423 18.4185C6.47158 18.3939 6.41437 18.3573 6.36587 18.3107C6.31737 18.2641 6.27854 18.2083 6.25158 18.1467C6.22462 18.085 6.21007 18.0187 6.20875 17.9515C6.20743 17.8842 6.21937 17.8173 6.24389 17.7547C6.26842 17.692 6.30504 17.6348 6.35167 17.5863L7.07606 16.8619L6.72097 16.5068C6.62897 16.4115 6.57756 16.2842 6.57756 16.1517C6.57756 16.0193 6.62897 15.892 6.72097 15.7966C6.76725 15.7494 6.8225 15.7119 6.88347 15.6862C6.94444 15.6606 7.00992 15.6475 7.07606 15.6475C7.14219 15.6475 7.20766 15.6606 7.26864 15.6862C7.32961 15.7119 7.38486 15.7494 7.43114 15.7966L7.78623 16.166L8.51061 15.4416C8.55812 15.3939 8.61456 15.3561 8.67672 15.3303C8.73887 15.3045 8.80551 15.2912 8.87281 15.2912C8.94011 15.2912 9.00674 15.3045 9.06889 15.3303C9.13105 15.3561 9.18749 15.3939 9.235 15.4416C9.28444 15.488 9.32384 15.5442 9.35078 15.6064C9.37771 15.6687 9.39161 15.7359 9.39161 15.8038C9.39161 15.8716 9.37771 15.9388 9.35078 16.0011C9.32384 16.0634 9.28444 16.1195 9.235 16.166L8.51061 16.8904L9.93097 18.3107L10.6554 17.5863C10.7507 17.4943 10.878 17.4429 11.0104 17.4429C11.1429 17.4429 11.2702 17.4943 11.3655 17.5863C11.4404 17.6815 11.4811 17.799 11.4811 17.9201C11.4811 18.0412 11.4404 18.1587 11.3655 18.2539L10.6554 18.9641L12.0757 20.3844L12.8001 19.6742C12.8464 19.627 12.9016 19.5895 12.9626 19.5638C13.0236 19.5382 13.0891 19.525 13.1552 19.525C13.2213 19.525 13.2868 19.5382 13.3478 19.5638C13.4087 19.5895 13.464 19.627 13.5103 19.6742C13.6023 19.7696 13.6537 19.8969 13.6537 20.0293C13.6537 20.1618 13.6023 20.2891 13.5103 20.3844L12.8001 21.1088L14.2205 22.5292L14.9306 21.7906C14.9782 21.743 15.0347 21.7053 15.0968 21.6796C15.159 21.6538 15.2256 21.6405 15.2928 21.6405C15.3601 21.6405 15.4267 21.6538 15.4888 21.6796C15.551 21.7053 15.6075 21.743 15.655 21.7906C15.7026 21.8381 15.7403 21.8946 15.7661 21.9568C15.7918 22.0189 15.805 22.0855 15.805 22.1528C15.805 22.22 15.7918 22.2866 15.7661 22.3488C15.7403 22.4109 15.7026 22.4674 15.655 22.515L14.9306 23.2251L15.3567 23.5802ZM2.9002 15.2143C2.80075 14.0897 2.80075 12.9585 2.9002 11.8339C4.02957 11.7345 5.16548 11.7345 6.29485 11.8339L2.9002 15.2143ZM20.2996 25.867V24.7733V24.4325V24.2762C20.3066 24.1579 20.3066 24.0394 20.2996 23.9211V23.7649C20.3065 23.6371 20.3065 23.5091 20.2996 23.3814V23.282C20.1029 21.9787 19.7599 20.7017 19.2769 19.4754V12.0043H15.9817V12.4446C15.9728 12.6497 15.949 12.8538 15.9107 13.0554V13.2116C15.8722 13.4605 15.8201 13.7071 15.7544 13.9502C15.7595 14.0116 15.7595 14.0734 15.7544 14.1349C15.7544 14.1349 15.7544 14.3763 15.655 14.4899C15.3912 14.2299 15.1062 13.9923 14.8028 13.7798C14.8028 13.5099 14.9164 13.2258 14.959 12.9559C14.9386 12.8719 14.9386 12.7843 14.959 12.7003C14.959 12.5156 14.959 12.3168 14.959 12.1179C14.9654 12.0803 14.9654 12.0419 14.959 12.0043H11.5786C8.64832 10.8841 5.48824 10.4988 2.37467 10.8822C2.26767 10.899 2.16875 10.9492 2.09217 11.0258C2.01559 11.1024 1.9653 11.2013 1.94856 11.3083C1.94856 11.6492 0.712845 19.8305 6.02499 24.9864C8.27945 27.1981 11.1996 28.6057 14.3341 28.9918H14.4193H14.8028H14.959H15.3141H15.4704H15.8113H18.4673C19.1633 28.9918 19.6036 28.8924 19.6888 28.8782C19.7915 28.8603 19.8859 28.8106 19.9587 28.7361C20.0409 28.6633 20.0918 28.5615 20.1007 28.452C20.1007 28.381 20.1718 27.9407 20.2144 27.2306V25.9806C20.2426 25.9026 20.2426 25.8172 20.2144 25.7392" fill="#306261"/>
</svg>
