<svg width="32" height="32" viewBox="0 0 32 32" fill="none" xmlns="http://www.w3.org/2000/svg">
<g clip-path="url(#clip0_120_8956)">
<path d="M6.87565 6.77336C7.8899 7.23362 8.99084 7.47173 10.1046 7.47173C11.2184 7.47173 12.3194 7.23362 13.3336 6.77336V9.87521H6.87565V6.77336ZM21.6562 6.77336V9.84133H15.1982V6.73943C16.2144 7.19231 17.3146 7.42637 18.4272 7.42637C19.5398 7.42637 20.6399 7.19231 21.6562 6.73943V6.77336ZM5.04503 18.7401C5.33257 18.892 5.65212 18.9733 5.97729 18.9774C6.30188 18.9691 6.62045 18.888 6.90953 18.7401V15.3501H13.3675V18.7401C13.6489 18.9076 13.9726 18.99 14.2998 18.9774C14.6247 18.9715 14.9438 18.8903 15.232 18.7401V15.3501H21.69V18.7401C21.9853 18.9037 22.3188 18.9856 22.6562 18.9774C22.9672 18.9786 23.2744 18.9091 23.5546 18.774V15.384H27.6904C27.9347 15.3796 28.1675 15.2794 28.3387 15.105C28.5099 14.9307 28.6057 14.6961 28.6057 14.4518V10.7905C28.6057 10.5478 28.5093 10.315 28.3376 10.1433C28.166 9.97166 27.9332 9.87521 27.6904 9.87521H23.5546V5.11223C23.5554 4.94242 23.508 4.77588 23.418 4.63188C23.328 4.48788 23.199 4.37234 23.0461 4.29865C22.885 4.2185 22.7035 4.18856 22.5252 4.21273C22.3469 4.23691 22.1799 4.31407 22.046 4.43423C21.0213 5.20967 19.7715 5.6293 18.4865 5.6293C17.2015 5.6293 15.9516 5.20967 14.927 4.43423C14.7573 4.30228 14.5486 4.23063 14.3337 4.23063C14.1188 4.23063 13.9101 4.30228 13.7405 4.43423C12.7158 5.20967 11.4659 5.6293 10.1809 5.6293C8.89591 5.6293 7.64604 5.20967 6.62138 4.43423C6.45442 4.30365 6.24856 4.2327 6.0366 4.2327C5.82464 4.2327 5.6188 4.30365 5.45184 4.43423C4.58229 5.10735 3.54055 5.52162 2.44623 5.62956C1.3519 5.73749 0.249321 5.53468 -0.734973 5.04441V7.01063C1.17956 7.71415 3.29509 7.62882 5.14672 6.77336V9.87521H-0.83667V11.6889H26.6904V13.5534H-0.83667V15.401H5.04503V18.7401Z" fill="#306261"/>
<path d="M5.97737 22.6555C7.52526 22.6315 9.00756 22.0264 10.1301 20.9605C11.2552 22.0333 12.7454 22.6391 14.2999 22.6555C15.8523 22.6291 17.3391 22.0247 18.4696 20.9605C19.5922 22.0264 21.0745 22.6315 22.6224 22.6555C24.1755 22.6324 25.6634 22.0275 26.7921 20.9605C27.9147 22.0264 29.397 22.6315 30.9449 22.6555C31.1908 22.6511 31.4254 22.5515 31.5993 22.3776C31.7732 22.2037 31.8728 21.9691 31.8772 21.7232C31.8795 21.6002 31.8569 21.4779 31.8109 21.3637C31.7648 21.2496 31.6963 21.1459 31.6092 21.0589C31.5222 20.9719 31.4185 20.9032 31.3044 20.8572C31.1902 20.8112 31.068 20.7886 30.9449 20.7909C30.2793 20.741 29.6322 20.5487 29.0473 20.227C28.4624 19.9053 27.9535 19.4618 27.5549 18.9264C27.4646 18.8305 27.3556 18.7541 27.2346 18.7018C27.1136 18.6496 26.9832 18.6226 26.8515 18.6226C26.7197 18.6226 26.5893 18.6496 26.4683 18.7018C26.3473 18.7541 26.2383 18.8305 26.148 18.9264C25.7436 19.4757 25.2219 19.928 24.6209 20.2505C24.0198 20.5731 23.3545 20.7576 22.6732 20.7909C21.993 20.753 21.3293 20.5664 20.729 20.2442C20.1286 19.9221 19.6062 19.4723 19.1985 18.9264C19.1081 18.8305 18.9991 18.7541 18.8782 18.7018C18.7572 18.6496 18.6268 18.6226 18.495 18.6226C18.3633 18.6226 18.2329 18.6496 18.1119 18.7018C17.9909 18.7541 17.8819 18.8305 17.7916 18.9264C17.3839 19.4723 16.8614 19.9221 16.2611 20.2442C15.6607 20.5664 14.9971 20.753 14.3168 20.7909C13.6491 20.75 12.9987 20.5616 12.4125 20.2392C11.8263 19.9168 11.3189 19.4684 10.9268 18.9264C10.8368 18.8209 10.7251 18.7361 10.5993 18.6776C10.4735 18.6191 10.3366 18.5883 10.1979 18.5874C10.0613 18.5861 9.92618 18.6159 9.80282 18.6747C9.67945 18.7334 9.57111 18.8195 9.48604 18.9264C9.10969 19.4999 8.59661 19.9709 7.99299 20.2967C7.38937 20.6226 6.71419 20.7932 6.02822 20.7932C5.34225 20.7932 4.66704 20.6226 4.06342 20.2967C3.4598 19.9709 2.94672 19.4999 2.57038 18.9264C2.47856 18.83 2.36811 18.7533 2.24574 18.7008C2.12336 18.6484 1.99162 18.6213 1.85848 18.6213C1.72534 18.6213 1.59359 18.6484 1.47122 18.7008C1.34884 18.7533 1.23839 18.83 1.14657 18.9264C0.64191 19.5833 -0.0156155 20.1071 -0.768799 20.452V22.3673C0.220649 22.066 1.12611 21.5378 1.87544 20.8249C2.99376 21.9664 4.51525 22.6237 6.11298 22.6555" fill="#306261"/>
<path d="M30.9107 25.4524C30.2344 25.4129 29.5744 25.2291 28.9751 24.9134C28.3757 24.5976 27.8509 24.1572 27.4359 23.6218C27.3456 23.5258 27.2366 23.4494 27.1156 23.3971C26.9946 23.3449 26.8643 23.3179 26.7325 23.3179C26.6007 23.3179 26.4703 23.3449 26.3494 23.3971C26.2284 23.4494 26.1194 23.5258 26.0291 23.6218C25.6141 24.1572 25.0893 24.5976 24.4899 24.9134C23.8906 25.2291 23.2306 25.4129 22.5543 25.4524C21.8926 25.4012 21.2491 25.2119 20.6652 24.8966C20.0812 24.5812 19.5699 24.147 19.1643 23.6218C19.0739 23.5258 18.9649 23.4494 18.844 23.3971C18.723 23.3449 18.5926 23.3179 18.4608 23.3179C18.329 23.3179 18.1987 23.3449 18.0777 23.3971C17.9567 23.4494 17.8477 23.5258 17.7574 23.6218C17.3517 24.147 16.8404 24.5812 16.2565 24.8966C15.6726 25.2119 15.029 25.4012 14.3674 25.4524C13.7027 25.4143 13.0545 25.2306 12.4687 24.9142C11.8829 24.5979 11.3737 24.1567 10.9773 23.6218C10.8866 23.5171 10.7747 23.4328 10.6491 23.3744C10.5235 23.3159 10.387 23.2847 10.2485 23.2828C10.1118 23.2814 9.97672 23.3112 9.85335 23.37C9.72999 23.4287 9.62164 23.5149 9.53657 23.6218C9.15236 24.1846 8.63658 24.6451 8.03399 24.9634C7.4314 25.2816 6.76023 25.448 6.07876 25.448C5.39729 25.448 4.72612 25.2816 4.12353 24.9634C3.52094 24.6451 3.00513 24.1846 2.62092 23.6218C2.5291 23.5254 2.41865 23.4486 2.29627 23.3961C2.1739 23.3437 2.04215 23.3167 1.90901 23.3167C1.77587 23.3167 1.64413 23.3437 1.52175 23.3961C1.39938 23.4486 1.28893 23.5254 1.19711 23.6218C0.692447 24.2787 0.0349216 24.8024 -0.718262 25.1473V27.0627C0.271186 26.7613 1.17664 26.2331 1.92598 25.5202C2.46637 26.0774 3.11315 26.5203 3.82796 26.8228C4.54277 27.1254 5.31106 27.2812 6.08724 27.2812C6.86343 27.2812 7.63169 27.1254 8.3465 26.8228C9.06131 26.5203 9.70809 26.0774 10.2485 25.5202C10.7889 26.0774 11.4357 26.5203 12.1505 26.8228C12.8653 27.1254 13.6336 27.2812 14.4097 27.2812C15.1859 27.2812 15.9542 27.1254 16.669 26.8228C17.3838 26.5203 18.0306 26.0774 18.571 25.5202C19.7015 26.5845 21.1883 27.1888 22.7407 27.2152C24.2938 27.1921 25.7818 26.5873 26.9105 25.5202C28.0331 26.5862 29.5153 27.1912 31.0632 27.2152C31.3091 27.2108 31.5437 27.1112 31.7176 26.9373C31.8915 26.7634 31.9911 26.5289 31.9955 26.283C32.0082 26.1648 31.9948 26.0453 31.9563 25.9329C31.9178 25.8204 31.8552 25.7178 31.7728 25.6322C31.6904 25.5465 31.5902 25.48 31.4794 25.4372C31.3685 25.3944 31.2496 25.3765 31.1311 25.3846" fill="#306261"/>
</g>
<defs>
<clipPath id="clip0_120_8956">
<rect width="32" height="32" fill="white"/>
</clipPath>
</defs>
</svg>
