<svg width="32" height="32" viewBox="0 0 32 32" fill="none" xmlns="http://www.w3.org/2000/svg">
<path d="M27.0918 8.31105L17.9362 24.3375C17.7832 24.5697 17.5749 24.7603 17.3301 24.8922C17.0853 25.024 16.8115 25.093 16.5334 25.093C16.2554 25.093 15.9817 25.024 15.7368 24.8922C15.492 24.7603 15.2837 24.5697 15.1307 24.3375L5.97516 8.31105C5.85308 8.06347 5.79388 7.78965 5.80282 7.51375C5.81176 7.23785 5.88855 6.96842 6.0264 6.72926C6.16425 6.4901 6.35893 6.28858 6.59318 6.14255C6.82744 5.99652 7.09407 5.91043 7.36949 5.89196H25.6806C25.962 5.89881 26.2371 5.97628 26.4807 6.11718C26.7244 6.25807 26.9287 6.4579 27.075 6.69834C27.233 6.94999 27.3169 7.24113 27.3169 7.5383C27.3169 7.83548 27.233 8.12662 27.075 8.37826L27.0918 8.31105ZM29.9308 5.1024C29.494 4.35934 28.8703 3.74358 28.1217 3.31625C27.3731 2.88892 26.5258 2.66492 25.6638 2.66654H7.35268C6.49001 2.66323 5.64173 2.88747 4.89339 3.31666C4.14506 3.74584 3.52315 4.36479 3.09038 5.11106C2.65761 5.85733 2.42929 6.70449 2.42847 7.56717C2.42765 8.42984 2.65434 9.27751 3.08569 10.0246L12.2413 26.051C12.675 26.801 13.2984 27.4237 14.0488 27.8565C14.7992 28.2894 15.6503 28.5173 16.5167 28.5173C17.383 28.5173 18.2341 28.2894 18.9845 27.8565C19.735 27.4237 20.3583 26.801 20.7921 26.051L29.9476 10.0246C30.3684 9.2726 30.5894 8.42526 30.5894 7.56353C30.5894 6.70179 30.3684 5.8544 29.9476 5.1024" fill="#306261"/>
<path d="M9.67088 7.01715C10.1054 7.02047 10.5292 7.15235 10.8889 7.39617C11.2486 7.64 11.528 7.98486 11.692 8.38727C11.856 8.78967 11.8972 9.23163 11.8104 9.65741C11.7236 10.0832 11.5127 10.4737 11.2043 10.7798C10.8958 11.0859 10.5037 11.2939 10.0773 11.3774C9.65084 11.461 9.20922 11.4164 8.80808 11.2494C8.40693 11.0823 8.06421 10.8003 7.82313 10.4387C7.58205 10.0772 7.45338 9.65239 7.45337 9.21785C7.45336 8.92743 7.51086 8.63989 7.6225 8.37179C7.73414 8.10368 7.89774 7.86031 8.10387 7.65574C8.31001 7.45116 8.55459 7.28943 8.82353 7.17982C9.09248 7.07022 9.38047 7.01494 9.67088 7.01715Z" fill="#306261"/>
<path d="M16.273 7.01709C16.7082 7.01709 17.1337 7.14614 17.4956 7.38796C17.8575 7.62977 18.1396 7.97349 18.3061 8.37562C18.4727 8.77774 18.5163 9.22025 18.4314 9.64715C18.3465 10.074 18.1369 10.4661 17.8291 10.7739C17.5213 11.0817 17.1292 11.2913 16.7023 11.3762C16.2754 11.4611 15.8329 11.4176 15.4308 11.251C15.0287 11.0844 14.685 10.8024 14.4432 10.4405C14.2013 10.0786 14.0723 9.65304 14.0723 9.21778C14.0723 8.63412 14.3041 8.07438 14.7168 7.66167C15.1296 7.24896 15.6893 7.01709 16.273 7.01709Z" fill="#306261"/>
<path d="M16.273 18.0215C16.7082 18.0215 17.1337 18.1506 17.4956 18.3924C17.8575 18.6342 18.1396 18.9779 18.3061 19.38C18.4727 19.7821 18.5163 20.2246 18.4314 20.6515C18.3465 21.0784 18.1369 21.4706 17.8291 21.7783C17.5213 22.0861 17.1292 22.2957 16.7023 22.3806C16.2754 22.4655 15.8329 22.4219 15.4308 22.2554C15.0287 22.0888 14.685 21.8068 14.4432 21.4448C14.2013 21.0829 14.0723 20.6574 14.0723 20.2222C14.0723 19.6385 14.3041 19.0788 14.7168 18.6661C15.1296 18.2534 15.6893 18.0215 16.273 18.0215Z" fill="#306261"/>
<path d="M12.9631 12.5107C13.3984 12.5107 13.8239 12.6398 14.1858 12.8817C14.5477 13.1235 14.8298 13.4671 14.9963 13.8693C15.1629 14.2714 15.2065 14.7139 15.1216 15.1408C15.0367 15.5677 14.8271 15.9598 14.5193 16.2676C14.2115 16.5754 13.8194 16.785 13.3925 16.8699C12.9656 16.9548 12.5231 16.9112 12.121 16.7446C11.7189 16.5781 11.3752 16.296 11.1333 15.9341C10.8915 15.5722 10.7625 15.1467 10.7625 14.7114C10.7668 14.1291 11.0001 13.572 11.4119 13.1602C11.8236 12.7484 12.3808 12.5151 12.9631 12.5107Z" fill="#306261"/>
<path d="M19.5828 12.5107C20.018 12.5107 20.4435 12.6398 20.8054 12.8817C21.1673 13.1235 21.4494 13.4671 21.616 13.8693C21.7825 14.2714 21.8261 14.7139 21.7412 15.1408C21.6563 15.5677 21.4467 15.9598 21.1389 16.2676C20.8311 16.5754 20.439 16.785 20.0121 16.8699C19.5852 16.9548 19.1427 16.9112 18.7406 16.7446C18.3385 16.5781 17.9948 16.296 17.753 15.9341C17.5112 15.5722 17.3821 15.1467 17.3821 14.7114C17.3821 14.1278 17.614 13.568 18.0267 13.1553C18.4394 12.7426 18.9991 12.5107 19.5828 12.5107Z" fill="#306261"/>
<path d="M22.8919 7.01709C23.3271 7.01709 23.7526 7.14614 24.1145 7.38796C24.4764 7.62977 24.7585 7.97349 24.925 8.37562C25.0916 8.77774 25.1352 9.22025 25.0503 9.64715C24.9654 10.074 24.7558 10.4661 24.448 10.7739C24.1402 11.0817 23.7481 11.2913 23.3212 11.3762C22.8943 11.4611 22.4518 11.4176 22.0497 11.251C21.6476 11.0844 21.3039 10.8024 21.0621 10.4405C20.8202 10.0786 20.6912 9.65304 20.6912 9.21778C20.6912 8.63412 20.923 8.07438 21.3357 7.66167C21.7485 7.24896 22.3082 7.01709 22.8919 7.01709Z" fill="#306261"/>
</svg>
