<svg width="395" height="324" fill="none" xmlns="http://www.w3.org/2000/svg"><ellipse cx="11.143" cy="3.797" rx="3.801" ry="3.797" fill="#DFCC93"/><ellipse cx="11.143" cy="67.078" rx="3.801" ry="3.797" fill="#DFCC93"/><ellipse cx="11.143" cy="130.359" rx="3.801" ry="3.797" fill="#DFCC93"/><ellipse cx="11.143" cy="193.641" rx="3.801" ry="3.797" fill="#DFCC93"/><ellipse cx="11.143" cy="256.922" rx="3.801" ry="3.797" fill="#DFCC93"/><ellipse cx="11.143" cy="320.203" rx="3.801" ry="3.797" fill="#DFCC93"/><ellipse cx="74.486" cy="3.797" rx="3.801" ry="3.797" fill="#DFCC93"/><ellipse cx="201.171" cy="3.797" rx="3.801" ry="3.797" fill="#DFCC93"/><ellipse cx="327.857" cy="3.797" rx="3.801" ry="3.797" fill="#DFCC93"/><ellipse cx="137.829" cy="3.797" rx="3.801" ry="3.797" fill="#DFCC93"/><ellipse cx="264.514" cy="3.797" rx="3.801" ry="3.797" fill="#DFCC93"/><ellipse cx="391.199" cy="3.797" rx="3.801" ry="3.797" fill="#DFCC93"/><ellipse cx="74.486" cy="67.078" rx="3.801" ry="3.797" fill="#DFCC93"/><ellipse cx="201.171" cy="67.078" rx="3.801" ry="3.797" fill="#DFCC93"/><ellipse cx="327.857" cy="67.078" rx="3.801" ry="3.797" fill="#DFCC93"/><ellipse cx="74.486" cy="130.359" rx="3.801" ry="3.797" fill="#DFCC93"/><ellipse cx="201.171" cy="130.359" rx="3.801" ry="3.797" fill="#DFCC93"/><ellipse cx="327.857" cy="130.359" rx="3.801" ry="3.797" fill="#DFCC93"/><ellipse cx="74.486" cy="193.641" rx="3.801" ry="3.797" fill="#DFCC93"/><ellipse cx="201.171" cy="193.641" rx="3.801" ry="3.797" fill="#DFCC93"/><ellipse cx="327.857" cy="193.641" rx="3.801" ry="3.797" fill="#DFCC93"/><ellipse cx="74.486" cy="256.922" rx="3.801" ry="3.797" fill="#DFCC93"/><ellipse cx="201.171" cy="256.922" rx="3.801" ry="3.797" fill="#DFCC93"/><ellipse cx="327.857" cy="256.922" rx="3.801" ry="3.797" fill="#DFCC93"/><ellipse cx="74.486" cy="320.203" rx="3.801" ry="3.797" fill="#DFCC93"/><ellipse cx="201.171" cy="320.203" rx="3.801" ry="3.797" fill="#DFCC93"/><ellipse cx="327.857" cy="320.203" rx="3.801" ry="3.797" fill="#DFCC93"/><ellipse cx="137.829" cy="67.078" rx="3.801" ry="3.797" fill="#DFCC93"/><ellipse cx="264.514" cy="67.078" rx="3.801" ry="3.797" fill="#DFCC93"/><ellipse cx="391.199" cy="67.078" rx="3.801" ry="3.797" fill="#DFCC93"/><ellipse cx="137.829" cy="130.359" rx="3.801" ry="3.797" fill="#DFCC93"/><ellipse cx="264.514" cy="130.359" rx="3.801" ry="3.797" fill="#DFCC93"/><ellipse cx="391.199" cy="130.359" rx="3.801" ry="3.797" fill="#DFCC93"/><ellipse cx="137.829" cy="193.641" rx="3.801" ry="3.797" fill="#DFCC93"/><ellipse cx="264.514" cy="193.641" rx="3.801" ry="3.797" fill="#DFCC93"/><ellipse cx="391.199" cy="193.641" rx="3.801" ry="3.797" fill="#DFCC93"/><ellipse cx="137.829" cy="256.922" rx="3.801" ry="3.797" fill="#DFCC93"/><ellipse cx="264.514" cy="256.922" rx="3.801" ry="3.797" fill="#DFCC93"/><ellipse cx="391.199" cy="256.922" rx="3.801" ry="3.797" fill="#DFCC93"/><ellipse cx="137.829" cy="320.203" rx="3.801" ry="3.797" fill="#DFCC93"/><ellipse cx="264.514" cy="320.203" rx="3.801" ry="3.797" fill="#DFCC93"/><ellipse cx="391.199" cy="320.203" rx="3.801" ry="3.797" fill="#DFCC93"/></svg>