<svg width="150" height="324" viewBox="0 0 150 324" fill="none" xmlns="http://www.w3.org/2000/svg">
<ellipse cx="3.80056" cy="3.79688" rx="3.80056" ry="3.79688" fill="#DFCC93"/>
<ellipse cx="67.1432" cy="3.79688" rx="3.80057" ry="3.79688" fill="#DFCC93"/>
<ellipse cx="3.80056" cy="67.0781" rx="3.80056" ry="3.79688" fill="#DFCC93"/>
<ellipse cx="3.80056" cy="130.359" rx="3.80056" ry="3.79688" fill="#DFCC93"/>
<ellipse cx="3.80056" cy="193.641" rx="3.80056" ry="3.79688" fill="#DFCC93"/>
<ellipse cx="3.80056" cy="256.922" rx="3.80056" ry="3.79688" fill="#DFCC93"/>
<ellipse cx="3.80056" cy="320.203" rx="3.80056" ry="3.79688" fill="#DFCC93"/>
<ellipse cx="67.1432" cy="67.0781" rx="3.80057" ry="3.79688" fill="#DFCC93"/>
<ellipse cx="67.1432" cy="130.359" rx="3.80057" ry="3.79688" fill="#DFCC93"/>
<ellipse cx="67.1432" cy="193.641" rx="3.80057" ry="3.79688" fill="#DFCC93"/>
<ellipse cx="67.1432" cy="256.922" rx="3.80057" ry="3.79688" fill="#DFCC93"/>
<ellipse cx="67.1432" cy="320.203" rx="3.80057" ry="3.79688" fill="#DFCC93"/>
<ellipse cx="130.486" cy="3.79688" rx="3.80056" ry="3.79688" fill="#DFCC93"/>
<ellipse cx="130.486" cy="67.0781" rx="3.80056" ry="3.79688" fill="#DFCC93"/>
<ellipse cx="130.486" cy="130.359" rx="3.80056" ry="3.79688" fill="#DFCC93"/>
<ellipse cx="130.486" cy="193.641" rx="3.80056" ry="3.79688" fill="#DFCC93"/>
<ellipse cx="130.486" cy="256.922" rx="3.80056" ry="3.79688" fill="#DFCC93"/>
<ellipse cx="130.486" cy="320.203" rx="3.80056" ry="3.79688" fill="#DFCC93"/>
</svg>
