<svg width="24" height="24" fill="none" xmlns="http://www.w3.org/2000/svg"><path d="M22.05 16.793a6.448 6.448 0 01-.429 2.236 3.995 3.995 0 01-2.378 2.378 6.445 6.445 0 01-2.236.428H7.493a6.493 6.493 0 01-2.379-.428c-.518-.19-.99-.49-1.38-.88a3.853 3.853 0 01-.904-1.403 6.612 6.612 0 01-.404-2.236V7.136A6.47 6.47 0 012.83 4.9a3.853 3.853 0 01.904-1.403c.4-.39.878-.691 1.404-.88a6.184 6.184 0 012.236-.429h9.514a6.446 6.446 0 012.236.428A3.853 3.853 0 0121.408 4.9c.274.715.418 1.472.427 2.237v9.752l.215-.095zM24 7.017a8.898 8.898 0 00-.547-2.926 6.09 6.09 0 00-1.403-2.14A5.71 5.71 0 0019.909.57 8.254 8.254 0 0016.983 0H7.017A8.896 8.896 0 004.09.547 5.875 5.875 0 001.95 1.95 6.089 6.089 0 00.546 4.091 8.896 8.896 0 000 7.017v9.966a8.91 8.91 0 00.547 2.926 6.28 6.28 0 003.544 3.544c.938.345 1.927.53 2.926.547h9.942a9.184 9.184 0 002.95-.547 6.21 6.21 0 003.52-3.544A8.825 8.825 0 0024 16.983V7.017z" fill="#DFCC93"/><path d="M12.203 15.937a4.044 4.044 0 114.043-4.02 4.02 4.02 0 01-4.043 4.02zm0-10.228a6.208 6.208 0 106.208 6.208 6.187 6.187 0 00-6.209-6.208zm7.896-.262a1.451 1.451 0 11-2.902.047 1.451 1.451 0 012.902-.047z" fill="#DFCC93"/></svg>