<svg width="55" height="55" fill="none" xmlns="http://www.w3.org/2000/svg"><path d="M27.5 0C12.336 0 0 12.336 0 27.5S12.336 55 27.5 55 55 42.664 55 27.5 42.664 0 27.5 0zM3.109 31.741l9.286-6.938 3.88 2.215-5.414 4.397-7.148 2.945c-.25-.861-.45-1.736-.604-2.619zM27.5 2.745c13.606 0 24.68 11.03 24.758 24.616l-10.452-7.752-4.231 2.241-7.618-5.942-11.401 9.265-6.362-3.637-9.428 7.045c-.02-.359-.02-.714-.02-1.081 0-13.654 11.1-24.762 24.754-24.762v.007zm24.56 27.867A24.497 24.497 0 0150.6 36.4L27.562 24.532l-7.883 3.25 10.311-8.373 7.304 5.692 4.269-2.268 10.495 7.78zM27.5 52.262A24.797 24.797 0 014.615 36.949l22.82-9.403 22.033 11.355A24.782 24.782 0 0127.5 52.261z" fill="#DFCC93"/></svg>