<svg width="32" height="32" fill="none" xmlns="http://www.w3.org/2000/svg"><path d="M23.445 20.57a1.965 1.965 0 00-2.976 0l-2.072 2.099c-.186.186-.345.239-.558 0-.212-.24-.93-.452-1.381-.718a21.942 21.942 0 01-5.18-4.728 12.992 12.992 0 01-1.886-3.002.451.451 0 010-.531l2.072-2.072a1.967 1.967 0 000-3.029L9.817 6.942 8.143 5.27a1.966 1.966 0 00-2.975 0c-.69.69-1.382 1.408-2.099 2.072-.623.605-1 1.418-1.062 2.284a9.723 9.723 0 00.77 4.171 24.786 24.786 0 004.49 7.491 27.548 27.548 0 009.191 7.2 13.285 13.285 0 005.1 1.487 3.692 3.692 0 003.215-1.222c.61-.664 1.275-1.275 1.913-1.913a1.993 1.993 0 000-3.028l-3.348-3.347m-1.009-4.545l2.178-.372a9.696 9.696 0 00-8.208-7.97l-.293 2.178a7.306 7.306 0 014.251 2.126 7.411 7.411 0 012.072 4.011" fill="#DFCC93"/><path d="M25.703 6.543A15.726 15.726 0 0016.592 2L16.3 4.178a13.708 13.708 0 017.97 3.905 13.92 13.92 0 013.878 7.465l2.151-.372a16.098 16.098 0 00-4.49-8.633" fill="#DFCC93"/></svg>