<svg width="150" height="324" fill="none" xmlns="http://www.w3.org/2000/svg"><ellipse cx="3.801" cy="3.797" rx="3.801" ry="3.797" fill="#DFCC93"/><ellipse cx="67.143" cy="3.797" rx="3.801" ry="3.797" fill="#DFCC93"/><ellipse cx="3.801" cy="67.078" rx="3.801" ry="3.797" fill="#DFCC93"/><ellipse cx="3.801" cy="130.359" rx="3.801" ry="3.797" fill="#DFCC93"/><ellipse cx="3.801" cy="193.641" rx="3.801" ry="3.797" fill="#DFCC93"/><ellipse cx="3.801" cy="256.922" rx="3.801" ry="3.797" fill="#DFCC93"/><ellipse cx="3.801" cy="320.203" rx="3.801" ry="3.797" fill="#DFCC93"/><ellipse cx="67.143" cy="67.078" rx="3.801" ry="3.797" fill="#DFCC93"/><ellipse cx="67.143" cy="130.359" rx="3.801" ry="3.797" fill="#DFCC93"/><ellipse cx="67.143" cy="193.641" rx="3.801" ry="3.797" fill="#DFCC93"/><ellipse cx="67.143" cy="256.922" rx="3.801" ry="3.797" fill="#DFCC93"/><ellipse cx="67.143" cy="320.203" rx="3.801" ry="3.797" fill="#DFCC93"/><ellipse cx="130.486" cy="3.797" rx="3.801" ry="3.797" fill="#DFCC93"/><ellipse cx="130.486" cy="67.078" rx="3.801" ry="3.797" fill="#DFCC93"/><ellipse cx="130.486" cy="130.359" rx="3.801" ry="3.797" fill="#DFCC93"/><ellipse cx="130.486" cy="193.641" rx="3.801" ry="3.797" fill="#DFCC93"/><ellipse cx="130.486" cy="256.922" rx="3.801" ry="3.797" fill="#DFCC93"/><ellipse cx="130.486" cy="320.203" rx="3.801" ry="3.797" fill="#DFCC93"/></svg>