<svg width="32" height="32" fill="none" xmlns="http://www.w3.org/2000/svg"><path d="M26.995 20.908c0 .454-.154.619-.608.619H5.7c-.55 0-.772-.145-.724-.725.048-.58 0-1.256 0-1.884a3.43 3.43 0 013.072-3.72 5.794 5.794 0 011.227-.135h13.43a4.3 4.3 0 013.653 1.536c.352.508.572 1.096.637 1.71.044.863.044 1.727 0 2.59v.01zm-.125 1.923c0 .435-.116.638-.6.609a14.11 14.11 0 00-1.69 0c-.445 0-.503-.232-.454-.551.048-.319-.242-.812.425-.802h.966c.215.02.432.02.647 0 .628-.116.754.183.734.754l-.028-.01zm-18.947-.097v.706h-2.32c-.56 0-.337-.464-.357-.744-.019-.28-.096-.619.387-.6.563.03 1.127.03 1.69 0 .542 0 .716.165.638.667l-.038-.029zM5.208 11.768a4.068 4.068 0 013.97-3.391H22.88a4.125 4.125 0 014.03 3.536 37.56 37.56 0 010 4.3c-.551-.377-1.102-.764-1.663-1.13a1.112 1.112 0 00-.376-.175c-.87-.145-1.488-.444-1.353-1.555.058-.464-.406-.783-.966-.793h-5.343a.966.966 0 00-.966.918c-.097 1.111-.232 1.208-1.46.966v-.792c0-.657-.357-1.043-.966-1.043H8.522c-.686 0-1.015.386-1.034 1.091a.522.522 0 000 .174c.126.677-.145 1.044-.802 1.314a8.703 8.703 0 00-1.556 1.053 34.928 34.928 0 010-4.386l.078-.087zM16 0a16 16 0 100 32 16 16 0 000-32z" fill="#DFCC93"/></svg>