<svg width="32" height="32" fill="none" xmlns="http://www.w3.org/2000/svg"><path d="M22.628 12.667c-.206.464-.38.941-.522 1.43-.145.647-.531.744-1.11.724a.705.705 0 01-.754-.55c-.367-1.034-.773-2.049-1.227-3.237-.049.357-.068.56-.107.802l-1.063.096v2.822h-1.323v-2.126c0-.705-.145-.85-.754-.754a.965.965 0 01-.309 0c-.154-.966-.154-.966.763-.966h3.652a.552.552 0 01.648.493c.168.637.408 1.253.715 1.836.135-.435.28-.87.406-1.305.347-1.14.348-1.14 1.642-.966l-.666 1.749.01-.048zm1.923-4.03H7.498c-.532 0-.657.165-.657.667v11.353c0 .57.193.676.705.676h17.043c.493 0 .638-.154.638-.637V9.353c0-.512-.106-.715-.676-.715z" fill="#DFCC93"/><path d="M25.488 22.377c-2.242.203-4.483.425-6.763.647l-1.826.184c-.087.87 0 .86.792.889 1.372.058 2.734.183 4.097.3.329.066.652.16.966.28v.202c-.262.113-.534.2-.812.261a37.948 37.948 0 01-4.039.348c-2.425 0-4.83-.126-7.275-.232a9.57 9.57 0 01-1.459-.31v-.24c.26-.12.532-.207.812-.262 1.459-.145 2.898-.26 4.386-.376h.676c.145-.84.126-.831-.637-.899a447.72 447.72 0 01-7.73-.744c-.83-.087-.966-.26-.966-1.111V8.609c0-.812.193-.966.966-.966h18.532c.87 0 1.034.144 1.024 1.024v8.695c0 1.372.02 2.744.058 4.116a.823.823 0 01-.84.966l.038-.067zM16 0a16 16 0 100 32 16 16 0 000-32z" fill="#DFCC93"/></svg>