<svg width="32" height="32" fill="none" xmlns="http://www.w3.org/2000/svg"><path d="M16.435 21.024v.078H14.25V18.55c.009-.44.118-.874.319-1.266.268-.537.407-1.13.406-1.73v-.26h.724v.203a3.797 3.797 0 00.29 1.497c.077.203.174.387.251.59.137.377.203.777.194 1.178v2.261zm-2.899 0v.078h-2.174v-2.455a3.074 3.074 0 01.319-1.372 3.87 3.87 0 00.406-1.748v-.232h.725v.096a3.864 3.864 0 00.241 1.479c.077.212.174.405.26.618.155.37.234.768.233 1.17v2.366h-.01zm3.266-4.058a2.831 2.831 0 01-.367-1.101v-.918a.367.367 0 00-.377-.377h-1.46a.358.358 0 00-.395.387v.405c.008.299-.018.597-.077.89a3.702 3.702 0 01-.28.772 2.899 2.899 0 01-.348-1.227v-.821a.377.377 0 00-.406-.396H11.7a.366.366 0 00-.386.377v.589a3.139 3.139 0 01-.348 1.45 3.661 3.661 0 00-.377 1.565v2.908a.368.368 0 00.387.386h5.797a.368.368 0 00.386-.386v-2.831a3.767 3.767 0 00-.386-1.652m1.063-7.517h-7.99v3.633h7.99V9.469z" fill="#DBCC99"/><path d="M24.386 16.328v.745a.366.366 0 01-.405.396h-1.054v6.183a1.101 1.101 0 01-1.062 1.092 1.084 1.084 0 01-1.111-1.063V8.415a1.121 1.121 0 01.772-1.082 1.092 1.092 0 011.411 1.063v1.797h1.053a.368.368 0 01.406.406v5.73h-.01zm-4.357 6.628a1.817 1.817 0 01-1.575 1.769H9.517a1.788 1.788 0 01-1.507-.754 1.73 1.73 0 01-.329-.802 3.496 3.496 0 010-.454V9.111a1.797 1.797 0 011.565-1.787c.087-.01.174-.01.261 0h8.696A1.807 1.807 0 0120 8.764c.015.157.015.315 0 .473v13.71l.029.01zM15.999 0a16 16 0 100 32 16 16 0 000-32z" fill="#DBCC99"/></svg>