<svg width="32" height="32" fill="none" xmlns="http://www.w3.org/2000/svg"><path d="M12.222 14.435a2.049 2.049 0 01-2.058-2.049 2.049 2.049 0 014.097-.077 2.051 2.051 0 01-1.24 1.96 2.048 2.048 0 01-.799.166zm0-5.13a3.072 3.072 0 103.092 3.159 3.09 3.09 0 00-3.092-3.16z" fill="#DFCC93"/><path d="M12.203 11.285a1.072 1.072 0 00-1.073 1.14 1.111 1.111 0 001.092 1.073 1.16 1.16 0 001.092-1.16 1.101 1.101 0 00-1.111-1.053z" fill="#DFCC93"/><path d="M25.672 17.063c-1.13-.329-2.194-.628-3.247-.966a.53.53 0 01-.213-.416v-6.88a.6.6 0 01.31-.473c1.014-.299 2.038-.54 3.15-.82v9.555zm-5.15-.966c-1.768.193-3.537.434-5.276.792a2.318 2.318 0 00-1.932 2.985c.126.764.454 1.508.57 2.27a5.86 5.86 0 01.077 2.243 2.513 2.513 0 01-2.338 1.777 2.618 2.618 0 01-2.657-1.323 3.69 3.69 0 01-.618-2.406c.077-.966.096-1.99.125-2.995a7.469 7.469 0 00-.753-3.527 11.806 11.806 0 01-.89-2.473 5.13 5.13 0 013.77-6.203 9.74 9.74 0 014.193.067c1.933.31 3.865.648 5.865.967.522.077.667.3.647.801v6.184c0 .58-.116.773-.744.84h-.038zm-6.57 3.246a1.43 1.43 0 01.811-1.556l.329 2.165c-.85.405-1.15.25-1.218-.628l.078.019zM16 0a16 16 0 100 32 16 16 0 000-32z" fill="#DFCC93"/></svg>