<svg width="32" height="32" fill="none" xmlns="http://www.w3.org/2000/svg"><path d="M21.758 15.865h-.483a3.29 3.29 0 01-.444 0 .357.357 0 00-.338.174c-.165.212-.058.647.25.657.31.01.658 0 .967 0a.387.387 0 00.386-.261.435.435 0 00-.096-.473.3.3 0 00-.251-.116m-2.619.028H7.72a.377.377 0 00-.348.223.405.405 0 00.328.608h11.45a.387.387 0 00.357-.415.405.405 0 00-.377-.406" fill="#DFCC93"/><path d="M26.502 14.106H5.575a.33.33 0 010-.087v-3.922a2.174 2.174 0 011.555-2c.271-.049.547-.068.822-.058h16.705a.744.744 0 01.328.067 2.16 2.16 0 011.199.966c.106.194.183.397.27.59.01.044.01.09 0 .135v3.015a1.308 1.308 0 000 .183l.048 1.111zm0 1.41v.542c.015.212.015.425 0 .638a2.057 2.057 0 01-1.091 1.497 2.28 2.28 0 01-1.063.27H7.478a1.035 1.035 0 01-.328-.086A2.154 2.154 0 015.7 16.84a3.615 3.615 0 01-.077-.725v-1.14H26.56l-.058.54zm-3.777 7.015l1.14.677c.113.068.223.142.328.222a.357.357 0 01.116.473.367.367 0 01-.473.223 6.28 6.28 0 01-.628-.3l-.966-.55-.126-.059v1.846a.416.416 0 01-.31.396.405.405 0 01-.521-.377v-1.894l-.116.058-1.256.715a2.709 2.709 0 01-.415.184.376.376 0 01-.454-.3.425.425 0 01.202-.483l1.285-.763.27-.183-.125-.088c-.483-.29-.966-.57-1.459-.87a.415.415 0 01.252-.762.867.867 0 01.222.077l1.468.83.126.059v-1.923a.434.434 0 01.435-.357l.203.058a.27.27 0 01.164.26l.058 1.846v.116l.657-.377.966-.541a.378.378 0 01.531.164.388.388 0 01-.125.55l-1.469.87-.125.078.154.125h-.01zm-6.416 2.754a.435.435 0 01-.357.174.406.406 0 01-.387-.56c.05-.1.112-.195.184-.28a.966.966 0 00.212-.687 3.625 3.625 0 00-.232-.966c-.154-.473-.338-.966-.483-1.41a2.309 2.309 0 01-.096-1.15 1.73 1.73 0 01.531-.966.386.386 0 01.532 0 .415.415 0 01.115.55.35.35 0 01-.067.097 1.091 1.091 0 00-.222 1.072c.135.464.309.918.463 1.372.155.385.262.788.32 1.198a1.857 1.857 0 01-.513 1.527v.029zm-3.43-.029a.54.54 0 01-.328.203c-.367 0-.56-.28-.454-.56a.541.541 0 01.106-.194 1.122 1.122 0 00.232-1.11c-.116-.445-.29-.87-.435-1.305a5.997 5.997 0 01-.329-1.15 1.846 1.846 0 01.435-1.536.636.636 0 01.213-.184.396.396 0 01.473.087.415.415 0 01.068.493.233.233 0 01-.058.106 1.063 1.063 0 00-.222 1.092c.135.474.309.966.463 1.391.139.363.239.738.3 1.121a1.932 1.932 0 01-.464 1.546zm-3.45 0a.542.542 0 01-.366.242.416.416 0 01-.445-.56.966.966 0 01.126-.213 1.062 1.062 0 00.232-1.015c-.126-.454-.29-.898-.435-1.352a8.885 8.885 0 01-.319-1.063 1.817 1.817 0 01.474-1.73.426.426 0 01.657.541c-.036.05-.075.1-.116.145a1.072 1.072 0 00-.145.966c.125.435.29.86.425 1.295.135.435.251.783.338 1.189a1.836 1.836 0 01-.425 1.574v-.019zM16 0a16 16 0 1016 16A16.01 16.01 0 0016 0z" fill="#DFCC93"/><path d="M24.329 15.874h-.909a.376.376 0 00-.357.222.425.425 0 00.28.619h.986a.426.426 0 00.396-.532.415.415 0 00-.396-.309z" fill="#DFCC93"/></svg>