<svg width="32" height="32" fill="none" xmlns="http://www.w3.org/2000/svg"><path d="M27.624 10.804l-3.25.85c-1.89.483-3.78.88-5.567 1.456a16.627 16.627 0 01-5.056.473H4.073c-.69 0-1.058-.293-1.058-.785 0-.491.368-.765 1.058-.765h10.16a17.4 17.4 0 005.037-.662c2.533-.709 5.103-1.342 7.655-2.004l.293-.075c.586-.114.945.085 1.077.548.133.463-.17.813-.67.945v.019zm-.302 4.433a8.96 8.96 0 01-8.808 6.068H7.75a2.325 2.325 0 01-2.06-.945c-1.239-1.768-1.324-3.781-1.484-5.927h11.747a14.76 14.76 0 003.695-.69c2.524-.623 5.037-1.276 7.56-1.89.17-.047.35-.066.577-.113a7.033 7.033 0 01-.463 3.544v-.047zm-4.13 8.553a.766.766 0 01-1.049-.302c-.284-.51-.501-1.059-.785-1.663l1.57-.52c.245.538.5 1.04.69 1.569a.69.69 0 01-.426.945v-.029zm-14.488-.283a.765.765 0 01-.945.34.698.698 0 01-.482-.888c.095-.378.142-.841.756-.785h1.333c-.246.52-.407.945-.624 1.323l-.038.01zM4.328 8.375c0-.104.265-.265.426-.274h1.323c.444 0 .945 0 .87.68 0 .085.255.265.396.274H8.78c.822 0 .945.076.888.87 0 .17 0 .34-.047.539-.397 0-.803.227-.888-.378 0-.066-.218-.142-.34-.161-.124-.019-.483 0-.72 0-.585-.076-.869.123-.765.737.067.416-.132.548-.548.53H4.31v-2.79l.018-.028zM15.65 0A15.999 15.999 0 00.351 19.333a16.002 16.002 0 0021.85 11.416A16 16 0 0032 16.002 16.182 16.182 0 0015.65.001z" fill="#DFCC93"/></svg>