<svg width="16" height="14" fill="none" xmlns="http://www.w3.org/2000/svg"><path d="M.066 7.06c.023-.142.056-.28.098-.417a1.433 1.433 0 01.909-.883 1.397 1.397 0 011.244.201c.268.203.526.42.772.649l2.153 1.98.082.083.329-.366a71.9 71.9 0 014.14-4.259 28.142 28.142 0 013.058-2.562c.397-.282.808-.543 1.232-.782a1.22 1.22 0 011.462.083 1.228 1.228 0 01.453.881 1.246 1.246 0 01-.338.933l-.64.549a23.08 23.08 0 00-2.745 2.495 41.544 41.544 0 00-5.209 6.888 2.57 2.57 0 01-.542.648 1.304 1.304 0 01-1.84-.133 2.87 2.87 0 01-.412-.499 16.745 16.745 0 00-1.643-1.996c-.624-.649-1.364-1.53-2.103-2.246A1.67 1.67 0 010 7.309v-.25h.066z" fill="#DFCC93"/></svg>