<svg width="398" height="252" fill="none" xmlns="http://www.w3.org/2000/svg"><path d="M261.928 0a5.766 5.766 0 00-3.192.964 5.705 5.705 0 00-2.443 5.87 5.709 5.709 0 001.573 2.927 5.752 5.752 0 002.941 1.565c1.115.22 2.27.107 3.32-.326a5.741 5.741 0 002.578-2.106 5.7 5.7 0 00-.715-7.22A5.757 5.757 0 00261.928 0zm-19.915 0a5.764 5.764 0 00-3.192.964 5.723 5.723 0 00-2.116 2.566 5.689 5.689 0 00-.327 3.303 5.715 5.715 0 001.572 2.928 5.77 5.77 0 006.261 1.24 5.736 5.736 0 002.578-2.107 5.703 5.703 0 00-.714-7.219A5.76 5.76 0 00242.013 0zm-19.909 0a5.766 5.766 0 00-3.184.978 5.728 5.728 0 00-2.103 2.572 5.695 5.695 0 001.265 6.221 5.77 5.77 0 006.257 1.226 5.738 5.738 0 002.573-2.106 5.699 5.699 0 00-.727-7.227A5.763 5.763 0 00222.104 0zm72.453 20.788h5.283c1.301 0 2.123.293 2.674.842a2.013 2.013 0 01.6 1.462 2.16 2.16 0 01-.46 1.366c-.305.39-.736.664-1.219.777 1.199.364 1.991.99 1.991 2.28 0 1.498-1.235 2.596-3.598 2.596h-5.223l-.048-9.323zm5.439 3.014c0-.43-.342-.644-1.014-.644h-1.355v1.313H299c.654 0 .996-.215.996-.645v-.024zm.24 3.277c0-.412-.336-.68-1.026-.68h-1.583v1.39h1.571c.69 0 1.038-.269 1.038-.68v-.03zm9.229-6.291h8.03v2.572h-4.936v.95h4.6v2.262h-4.6v1.02h5.008v2.567h-8.102v-9.37zm14.362 0h4.198c2.501 0 4.198 1.11 4.198 3.336 0 2.263-1.739 3.468-4.282 3.468h-1.02v2.543h-3.094v-9.347zm3.994 4.596c.81 0 1.343-.352 1.343-1.033 0-.68-.479-1.026-1.331-1.026h-.888v2.089l.876-.03zm19.172-4.596l-3.053 4.566 3.185 4.805h-3.598l-1.494-2.435-1.511 2.435h-3.502l3.184-4.775-3.052-4.608h3.598l1.361 2.239 1.368-2.239 3.514.012zm5.936 0h3.149v3.307h2.878v-3.307h3.148v9.37h-3.148v-3.36h-2.878v3.36h-3.149v-9.37zm21.901 9.371v-4.566l-3.562 4.566h-2.705v-9.37h3.148v4.362l3.418-4.363h2.849v9.37h-3.148zm9.613-9.371h8.03v2.572h-4.936v.95h4.6v2.262h-4.6v1.02h5.002v2.567h-8.096v-9.37zm-88.525 32.755h7.442v2.59h-4.354v6.62h-3.088v-9.21zm12.263 4.632a4.857 4.857 0 011.518-3.46 4.902 4.902 0 013.543-1.345 4.868 4.868 0 013.534 1.327 4.814 4.814 0 011.504 3.448v.03a4.869 4.869 0 01-1.528 3.44 4.907 4.907 0 01-3.534 1.334 4.868 4.868 0 01-3.533-1.326 4.809 4.809 0 01-1.504-3.448zm6.98 0a1.97 1.97 0 00-1.17-1.91 1.993 1.993 0 00-.773-.173 1.957 1.957 0 00-1.805 1.284 1.956 1.956 0 00-.114.769v.03a1.965 1.965 0 001.172 1.907c.243.107.505.165.771.17a1.953 1.953 0 001.815-1.3 1.92 1.92 0 00.104-.777zm18.081 4.577h-3.418l-1.901-5.049-1.919 5.05h-3.376l3.862-9.276h2.908l3.844 9.276zm4.977 0l1.745-3.05-3.598-6.159h3.532l1.727 3.211 1.668-3.211h3.478l-5.092 9.21h-3.46zm13.673-9.209h7.796v2.477h-4.762v.919h1.883c2.399 0 3.569 1.027 3.569 2.752 0 1.79-1.2 3.037-3.82 3.037h-4.666v-9.185zm4.366 6.923c.737 0 1.031-.28 1.031-.686 0-.412-.294-.645-1.085-.645h-1.296v1.355l1.35-.024zm9.547-6.923h3.094v2.608h1.067c2.459 0 4.138 1.092 4.138 3.223 0 2.173-1.703 3.354-4.197 3.354h-4.102v-9.185zm3.928 6.804c.791 0 1.319-.346 1.319-.973 0-.644-.474-.943-1.307-.943h-.846v1.946l.834-.03zm4.995-6.804h3.07v9.21h-3.094l.024-9.21zm8.893 0h7.892v2.525h-4.852v.937h4.516v2.22h-4.516v1.003h4.93v2.524h-7.97v-9.209zM96.117 5.718C43.117 5.718 0 48.63 0 101.38c0 52.749 43.117 95.663 96.117 95.663 52.999 0 96.116-42.914 96.116-95.663 0-52.749-43.117-95.662-96.116-95.662zm-85.25 110.416L43.32 91.998l13.565 7.705L37.96 115l-24.983 10.242a84.807 84.807 0 01-2.11-9.108zm85.25-100.867c47.554 0 86.258 38.371 86.533 85.63l-36.532-26.966-14.788 7.795-26.626-20.669-39.849 32.23L42.62 80.634 9.667 105.14c-.072-1.247-.072-2.483-.072-3.76 0-47.497 38.8-86.137 86.522-86.137v.024zm85.838 96.94a84.878 84.878 0 01-5.103 20.131L96.339 91.055l-27.556 11.304 36.041-29.126 25.528 19.803 14.92-7.89 36.683 27.061zm-85.838 75.31a86.963 86.963 0 01-48.104-14.57 86.346 86.346 0 01-31.882-38.699l79.758-32.707L172.9 141.04a86.38 86.38 0 01-31.862 33.925 86.924 86.924 0 01-44.921 12.552z" fill="#DFCC93"/><path d="M373.966 90.344a23.113 23.113 0 00-16.28 6.722 22.893 22.893 0 00-6.753 16.203v13.393h-14.555a54.91 54.91 0 00-17.434-35.693 55.417 55.417 0 00-37.029-14.728h-9.595v50.433h-26.116V63.033h35.16l-10.831-9.55h-24.329v-23.2h21.253v-9.549h-30.823v32.773h-8.81l3.035 9.55h5.775v73.137h35.71v89.276h9.595v-39.356a55.424 55.424 0 0036.849-14.558 54.92 54.92 0 0017.578-35.368h14.567v89.282h9.594v-89.282h26.926v35.148l9.595 8.464v-66.531a22.865 22.865 0 00-1.764-8.78 22.952 22.952 0 00-5.006-7.44 23.07 23.07 0 00-7.486-4.967 23.156 23.156 0 00-8.826-1.738zm-92.051-4.577a45.817 45.817 0 0130.267 11.935 45.399 45.399 0 0114.601 28.96h-44.868V85.767zm0 90.822v-40.401h44.808a45.402 45.402 0 01-14.731 28.63 45.813 45.813 0 01-30.077 11.771zm92.051-76.719a13.506 13.506 0 019.516 3.928 13.38 13.38 0 013.947 9.471v13.393h-26.926v-13.393a13.384 13.384 0 013.947-9.471 13.508 13.508 0 019.516-3.928z" fill="#DFCC93"/><path d="M217.552 137.275a21.507 21.507 0 003.393-22.121 21.612 21.612 0 00-7.207-9.137 21.751 21.751 0 00-10.92-4.1c0 3.206-.192 6.387-.504 9.52a12.174 12.174 0 017.828 4.271 12.068 12.068 0 012.786 8.441 12.08 12.08 0 01-3.759 8.059 12.189 12.189 0 01-8.276 3.33 4.63 4.63 0 00-.6.042 57.67 57.67 0 00-3.244.244c-.438 1.283-.936 2.543-1.421 3.802-.486 1.26-1.092 2.68-1.632 3.945-.377.854-.725 1.719-1.121 2.561a49.166 49.166 0 0129.531 2.794 48.882 48.882 0 0122.488 19.255 48.546 48.546 0 017.186 28.645 48.598 48.598 0 01-10.755 27.516 48.966 48.966 0 01-24.746 16.281 49.169 49.169 0 01-29.65-.931 48.925 48.925 0 01-23.665-17.802 48.557 48.557 0 01-8.99-28.136c0-1.194.06-2.322.138-3.468a105.685 105.685 0 01-9.649 5.593 58.052 58.052 0 009.86 30.28 58.441 58.441 0 0024.383 20.598 58.765 58.765 0 0031.622 4.763 58.66 58.66 0 0029.415-12.494 58.252 58.252 0 0018.422-26.02 57.986 57.986 0 001.925-31.773 58.155 58.155 0 00-15.145-28.035 58.585 58.585 0 00-27.693-15.923z" fill="#DFCC93"/></svg>