<svg width="183" height="40" fill="none" xmlns="http://www.w3.org/2000/svg"><g opacity=".5" fill="#fff"><path d="M15.937 20.054H6.759l-1.373 3.405H0L8.958 1.892h4.78l8.958 21.567h-5.385l-1.374-3.405zm-7.419-4.27h5.66L11.54 9.296l-.164-.703h-.055l-.165.703-2.638 6.486z"/><path d="M22.532 1.19h5v22.324h-5V1.189zm5.934 14.107c0-1.19.22-2.325.66-3.406.44-1.08 1.099-2 1.923-2.756a10.751 10.751 0 012.913-1.892c1.154-.433 2.363-.703 3.737-.703s2.638.216 3.792.703c1.154.486 2.143 1.08 2.967 1.892.825.81 1.484 1.73 1.924 2.756.44 1.082.66 2.217.66 3.406 0 .324 0 .594-.056.81 0 .217-.055.379-.11.595H33.522c.11.54.33.973.605 1.406.274.432.604.756.989 1.027.385.27.77.54 1.209.648.44.162.88.216 1.374.216.77 0 1.483-.162 2.033-.486.605-.324 1.044-.757 1.319-1.243h5.386c-.22.703-.605 1.405-1.154 2.108-.495.703-1.154 1.297-1.869 1.838-.714.54-1.594.973-2.583 1.297-.989.324-2.033.486-3.187.486-1.374 0-2.638-.216-3.737-.702-1.154-.433-2.088-1.081-2.913-1.892-.824-.81-1.429-1.73-1.923-2.757a9.561 9.561 0 01-.605-3.351zm9.288-4.649c-.88 0-1.649.216-2.363.703a4.035 4.035 0 00-1.54 1.892h7.86a4.406 4.406 0 00-.66-1.081c-.275-.325-.55-.595-.934-.811-.33-.216-.715-.379-1.1-.54a5.07 5.07 0 00-1.263-.163z"/><path d="M51.603 18.325a1.6 1.6 0 00.77 1.189c.494.324 1.099.432 1.813.432.934 0 1.648-.108 2.033-.378.44-.216.605-.595.605-1.027 0-.27-.11-.487-.275-.649a2.64 2.64 0 00-.88-.432 17.414 17.414 0 00-1.373-.325c-.55-.108-1.154-.216-1.923-.378-.33-.054-.66-.162-1.045-.216a9.574 9.574 0 01-1.154-.379c-.384-.162-.769-.324-1.099-.594a3.481 3.481 0 01-.934-.865c-.275-.324-.495-.757-.66-1.19-.164-.486-.22-1.026-.22-1.675 0-.81.166-1.567.44-2.27.33-.649.77-1.243 1.374-1.676.605-.432 1.43-.81 2.363-1.081.934-.27 2.034-.378 3.353-.378 1.044 0 1.978.108 2.802.378.824.27 1.539.649 2.143 1.135a4.44 4.44 0 011.32 1.73c.329.649.439 1.405.439 2.216h-5.001c-.055-.378-.22-.757-.605-1.027-.33-.27-.879-.432-1.483-.432-.77 0-1.319.162-1.704.432-.384.27-.55.595-.55.973 0 .216.056.378.166.54.11.163.33.27.604.379.275.108.605.162.99.27.384.054.879.162 1.483.216.88.163 1.703.325 2.528.541.77.216 1.483.486 2.088.865.605.378 1.1.865 1.429 1.405.33.54.55 1.352.55 2.216 0 .973-.22 1.838-.605 2.541-.385.703-.934 1.297-1.649 1.784-.714.486-1.538.81-2.528 1.027-.989.216-2.088.324-3.242.324-1.264 0-2.418-.162-3.297-.486-.88-.325-1.649-.757-2.253-1.298-.605-.54-1.044-1.135-1.32-1.837-.274-.703-.439-1.352-.439-2.055l4.946.055zM62.869 1.19h5v12.864l5.551-6.973h5.825l-5.605 6.865 6.155 9.568H73.86l-3.792-6.379-2.198 2.54v3.839h-5.001V1.189z"/><path d="M77.541 15.297c0-1.19.22-2.325.66-3.406.44-1.08 1.1-2 1.923-2.756a10.751 10.751 0 012.913-1.892c1.154-.433 2.363-.703 3.737-.703s2.638.216 3.792.703c1.154.486 2.143 1.08 2.967 1.892.825.81 1.484 1.73 1.924 2.756.44 1.082.66 2.217.66 3.406 0 .324 0 .594-.056.81 0 .217-.055.379-.11.595H82.597c.11.54.33.973.605 1.406.275.432.604.756.989 1.027.385.27.77.54 1.21.648.439.162.878.216 1.373.216.77 0 1.484-.162 2.033-.486.605-.324 1.044-.757 1.32-1.243h5.385c-.22.703-.605 1.405-1.154 2.108-.495.703-1.154 1.297-1.869 1.838-.714.54-1.593.973-2.583 1.297-.989.324-2.033.486-3.187.486-1.374 0-2.638-.216-3.737-.702-1.154-.433-2.088-1.081-2.913-1.892-.824-.81-1.428-1.73-1.923-2.757a9.561 9.561 0 01-.605-3.351zm9.288-4.649c-.88 0-1.649.216-2.363.703a4.035 4.035 0 00-1.539 1.892h7.859a4.402 4.402 0 00-.66-1.081c-.275-.325-.55-.595-.934-.811-.33-.216-.714-.379-1.1-.54a4.757 4.757 0 00-1.263-.163zm21.597.65h-2.088c-1.374 0-2.418.378-3.188 1.135-.769.757-1.154 1.892-1.154 3.405v7.622H97.05V7.027h4.012l.385 1.568c.549-.433 1.209-.81 1.978-1.135.769-.27 1.649-.433 2.693-.433h2.363v4.27h-.055zm-.659 3.999c0-1.19.219-2.325.659-3.406.44-1.08 1.099-2 1.923-2.756a10.766 10.766 0 012.913-1.892c1.099-.487 2.418-.703 3.792-.703 1.374 0 2.638.216 3.792.703 1.154.486 2.143 1.08 2.967 1.892.825.81 1.484 1.73 1.924 2.756.439 1.027.659 2.217.659 3.406s-.22 2.324-.659 3.405a7.608 7.608 0 01-1.924 2.757 10.25 10.25 0 01-2.967 1.892c-1.154.486-2.418.703-3.792.703-1.374 0-2.583-.217-3.737-.703-1.154-.487-2.088-1.081-2.913-1.892-.824-.81-1.428-1.73-1.923-2.757-.495-1.027-.714-2.216-.714-3.405zm4.946-.054c0 .702.109 1.297.329 1.838.22.54.55 1.027.934 1.459a4.7 4.7 0 001.374.919 4.55 4.55 0 001.704.324 4.55 4.55 0 001.704-.324c.549-.216.989-.54 1.373-.919a3.96 3.96 0 00.935-1.46c.219-.54.329-1.189.329-1.891 0-.649-.11-1.298-.329-1.838a4.222 4.222 0 00-.935-1.406 4.058 4.058 0 00-1.373-.918 4.55 4.55 0 00-1.704-.325 4.53 4.53 0 00-1.704.325c-.549.216-.989.54-1.374.918a4.235 4.235 0 00-.934 1.406c-.22.54-.329 1.243-.329 1.892z"/><path d="M128.595 11.243h-3.078V7.027h3.078v-.595c0-.756.109-1.513.274-2.27.22-.757.55-1.46.99-2.054.494-.594 1.099-1.135 1.868-1.513.769-.379 1.759-.595 2.968-.595h3.352v4h-2.143c-.44 0-.825.054-1.1.216a1.787 1.787 0 00-.714.54c-.165.217-.33.487-.385.812-.055.324-.11.648-.11.973v.54h4.452v4.216h-4.452v12.216h-5v-12.27z"/><path d="M139.805 11.243h-3.077V7.027h3.077v-.595c0-.756.11-1.513.275-2.27.22-.757.55-1.46.989-2.054.495-.594 1.1-1.135 1.869-1.513.769-.379 1.758-.595 2.967-.595h3.353v4h-2.143c-.44 0-.825.054-1.1.216a1.787 1.787 0 00-.714.54c-.165.217-.33.487-.385.812-.055.324-.11.648-.11.973v.54h4.452v4.216h-4.452v12.216h-5.001v-12.27zm26.049.055h-2.089c-1.373 0-2.418.378-3.187 1.135-.769.757-1.154 1.892-1.154 3.405v7.622h-4.946V7.027h4.012l.384 1.568c.55-.433 1.209-.81 1.979-1.135.769-.27 1.648-.433 2.693-.433h2.363v4.27h-.055z"/><path d="M174.207 19.784c.55 0 1.044-.055 1.484-.217.44-.162.824-.378 1.099-.703.33-.324.55-.756.715-1.297.164-.54.274-1.189.274-2V6.973h5.001v8.756c0 1.514-.22 2.757-.659 3.784-.44 1.027-1.044 1.892-1.814 2.54a6.725 6.725 0 01-2.693 1.406 13.65 13.65 0 01-6.814 0 6.738 6.738 0 01-2.693-1.405c-.769-.649-1.374-1.514-1.813-2.54-.44-1.028-.66-2.325-.66-3.785V6.973h5.001v8.594c0 .757.055 1.46.22 1.946.165.54.385.973.714 1.297.33.325.66.541 1.1.703.494.216.989.27 1.538.27zm-22.092-1.189h-4.946v4.865h4.946v-4.865zM96.996 34.54c0-.432.055-.81.22-1.188.164-.379.33-.703.604-.973a3.61 3.61 0 01.934-.65c.385-.161.825-.215 1.264-.215.33 0 .66.054.934.162.275.108.495.216.715.378v-2.378h1.703v7.676h-1.483l-.11-.487c-.22.162-.495.324-.77.486-.274.163-.659.217-.989.217-.495 0-.88-.054-1.264-.216a3.122 3.122 0 01-.989-.65 2.256 2.256 0 01-.605-.972 4.15 4.15 0 01-.164-1.19zm1.703 0c0 .217.055.433.11.65a.787.787 0 00.33.486c.165.162.275.27.494.324.22.054.385.108.605.108.22 0 .385-.054.604-.108a1.3 1.3 0 00.495-.324c.165-.162.275-.325.33-.487.055-.216.11-.432.11-.648 0-.217-.055-.433-.11-.649a.787.787 0 00-.33-.486c-.165-.163-.275-.217-.495-.325a1.994 1.994 0 00-.604-.108c-.22 0-.44.054-.605.108a1.3 1.3 0 00-.494.325l-.33.486c-.055.216-.11.432-.11.649zm7.199-2.81h-1.703v5.675h1.703V31.73zm.55 2.81c0-.432.055-.81.22-1.188.164-.379.329-.703.604-.973.275-.27.605-.487.989-.65.385-.161.825-.215 1.264-.215.22 0 .385 0 .55.054l.494.162c.165.054.275.108.44.216.11.054.275.162.33.27l.11-.486h1.374v5.243c0 .433-.055.81-.22 1.19-.165.378-.33.648-.605.918-.275.27-.604.433-.989.595-.385.162-.824.216-1.319.216a4.91 4.91 0 01-.934-.108 2.178 2.178 0 01-.715-.27c-.164-.108-.384-.217-.549-.379a2.978 2.978 0 01-.385-.486c-.11-.162-.165-.325-.22-.54-.055-.217-.11-.38-.11-.541h1.649l.165.324c.055.108.165.162.275.27.11.108.22.108.384.163.165.053.33.053.495.053.275 0 .55-.053.714-.162.165-.108.33-.216.44-.378.11-.162.165-.27.22-.432.055-.163.055-.325.055-.433v-.162a3.54 3.54 0 01-.769.432c-.275.108-.66.163-1.045.163-.439 0-.824-.054-1.209-.217-.384-.162-.659-.324-.934-.594-.275-.27-.44-.595-.604-.92a3.536 3.536 0 01-.165-1.134zm1.703 0c0 .217.055.433.11.65a.787.787 0 00.33.486c.165.162.275.216.495.324.164.054.384.108.604.108.22 0 .385-.054.605-.108.164-.054.329-.162.494-.324l.33-.487c.055-.216.11-.432.11-.648 0-.216-.055-.433-.11-.649a.787.787 0 00-.33-.486c-.165-.163-.275-.217-.494-.325a2.01 2.01 0 00-.605-.108c-.22 0-.44.054-.604.108-.165.054-.33.162-.495.325l-.33.486c-.055.216-.11.432-.11.649zm7.2-2.81h-1.704v5.675h1.704V31.73zm1.648-1.568h1.209v1.568h1.649v1.46h-1.649v2c0 .161 0 .324.055.432.055.108.11.216.165.27.055.054.165.108.275.162.11 0 .22.054.329.054h.935v1.406h-1.099c-.33 0-.605-.055-.935-.109a1.658 1.658 0 01-.769-.324 1.373 1.373 0 01-.495-.703 3.565 3.565 0 01-.164-1.135v-2h-.935v-1.297l.88-.324.549-1.46zm3.078 4.378c0-.432.055-.81.219-1.188.165-.379.33-.703.605-.973a3.12 3.12 0 01.989-.65c.385-.161.825-.215 1.264-.215.385 0 .715.054 1.044.162.33.108.55.27.77.432l.055-.432h1.483v5.676h-1.483l-.055-.433c-.22.162-.495.324-.77.433-.274.108-.659.162-1.044.162-.494 0-.879-.054-1.264-.217a3.12 3.12 0 01-.989-.648 2.256 2.256 0 01-.605-.973c-.164-.325-.219-.703-.219-1.135zm1.703 0c0 .217.055.433.11.65a.787.787 0 00.33.486c.165.162.275.216.494.324.165.054.385.108.605.108.22 0 .385-.054.605-.108.164-.054.329-.162.494-.324.165-.162.275-.325.33-.487.055-.216.11-.432.11-.648 0-.216-.055-.433-.11-.649a.787.787 0 00-.33-.486c-.165-.163-.275-.217-.494-.325a2.01 2.01 0 00-.605-.108c-.22 0-.44.054-.605.108a1.306 1.306 0 00-.494.325l-.33.486c-.055.216-.11.432-.11.649zm5.495-4.864h1.704v7.676h-1.704v-7.676zm4.397-1.19h1.649V39.46h-1.649V28.486zm10.771 6.054c0 .433-.055.812-.219 1.19-.165.378-.33.703-.605.973a3.12 3.12 0 01-.989.648c-.385.163-.824.217-1.264.217-.165 0-.385 0-.55-.054-.164-.054-.329-.054-.494-.163a1.657 1.657 0 01-.44-.216 1.71 1.71 0 01-.33-.216l-.055.433h-1.483v-7.676h1.703v2.378c.22-.162.44-.27.715-.378a2.6 2.6 0 01.934-.162c.495 0 .879.054 1.264.216s.714.378.934.649c.22.27.44.594.605.973.165.378.274.756.274 1.189zm-1.703 0c0-.216-.055-.432-.11-.648a.787.787 0 00-.33-.486c-.11-.163-.275-.217-.494-.325a2.007 2.007 0 00-.605-.108c-.22 0-.385.054-.604.108a1.3 1.3 0 00-.495.325 1.275 1.275 0 00-.33.486c-.055.216-.11.378-.11.649 0 .216.055.432.11.648a.787.787 0 00.33.487c.165.162.275.216.495.324.219.108.384.108.604.108.22 0 .385-.054.605-.108.219-.054.329-.162.494-.324.165-.162.275-.325.33-.487.055-.216.11-.432.11-.648zm6.1-1.351h-.715c-.494 0-.824.108-1.099.378s-.384.649-.384 1.19v2.648h-1.704V31.73h1.374l.11.54c.165-.162.384-.27.659-.378.275-.108.55-.162.934-.162h.825v1.459zm-.11 1.351c0-.432.055-.81.22-1.188.165-.379.33-.703.604-.973.275-.27.605-.487.989-.65.385-.161.825-.215 1.264-.215.385 0 .715.054 1.045.162.329.108.549.27.769.432l.055-.432h1.484v5.676h-1.484l-.055-.433a3.54 3.54 0 01-.769.433c-.275.108-.66.162-1.045.162-.494 0-.879-.054-1.264-.217a3.132 3.132 0 01-.989-.648 2.263 2.263 0 01-.604-.973c-.165-.325-.22-.703-.22-1.135zm1.704 0c0 .217.055.433.109.65a.787.787 0 00.33.486c.165.162.275.216.495.324.165.054.384.108.604.108.22 0 .385-.054.605-.108a1.29 1.29 0 00.494-.324c.165-.162.275-.325.33-.487.055-.216.11-.432.11-.648 0-.216-.055-.433-.11-.649a.787.787 0 00-.33-.486c-.164-.163-.274-.217-.494-.325a2.01 2.01 0 00-.605-.108c-.22 0-.439.054-.604.108-.165.054-.33.162-.495.325l-.33.486c-.054.216-.109.432-.109.649zm11.43 2.811h-1.704v-2.973c0-.27-.055-.486-.11-.648-.055-.163-.11-.325-.219-.433a.89.89 0 00-.385-.216c-.165-.054-.275-.054-.44-.054-.22 0-.384.054-.549.108a.854.854 0 00-.44.324c-.11.162-.22.325-.275.487-.055.216-.11.378-.11.594v2.865h-1.703V31.73h1.374l.109.432c.11-.054.275-.162.385-.216.11-.054.275-.162.44-.216.165-.055.33-.109.494-.109.165-.054.33-.054.495-.054.44 0 .879.054 1.209.217.33.162.605.324.824.54.22.216.385.54.44.865.11.324.165.757.165 1.19v2.972zm.33-2.811c0-.432.055-.81.22-1.188.165-.379.329-.703.604-.973.275-.27.605-.487.934-.65.385-.161.825-.215 1.264-.215.33 0 .66.054.935.162.274.108.494.216.714.378v-2.378h1.704v7.676h-1.484l-.11-.487c-.22.162-.495.324-.769.486-.275.109-.66.217-.99.217-.494 0-.879-.054-1.264-.216a3.132 3.132 0 01-.989-.65 2.254 2.254 0 01-.604-.972c-.055-.378-.165-.757-.165-1.19zm1.758 0c0 .217.055.433.11.65a.787.787 0 00.33.486c.165.162.275.27.495.324.164.054.384.108.604.108.22 0 .385-.054.605-.108.219-.054.329-.162.494-.324.165-.162.275-.325.33-.487.055-.216.11-.432.11-.648 0-.217-.055-.433-.11-.649a.787.787 0 00-.33-.486c-.165-.163-.275-.217-.494-.325-.22-.108-.385-.108-.605-.108-.22 0-.44.054-.604.108a1.3 1.3 0 00-.495.325l-.33.486c-.11.216-.11.432-.11.649zm7.199-2.81h-1.703v5.675h1.703V31.73zm6.815 5.621h-1.704v-2.973c0-.27-.055-.486-.11-.648-.055-.163-.11-.325-.219-.433a.89.89 0 00-.385-.216c-.165-.054-.275-.054-.44-.054-.22 0-.384.054-.549.108a.854.854 0 00-.44.324c-.11.162-.22.325-.275.487-.055.216-.11.378-.11.594v2.865h-1.703V31.73h1.374l.11.432c.109-.054.274-.162.384-.216.11-.054.275-.162.44-.216.165-.055.33-.109.494-.109.165-.054.33-.054.495-.054.44 0 .879.054 1.209.217.33.162.605.324.824.54.22.216.385.54.44.865.11.324.165.757.165 1.19v2.972zm.329-2.811c0-.432.055-.81.22-1.188.165-.379.33-.703.605-.973a3.12 3.12 0 01.989-.65c.385-.161.824-.215 1.264-.215.22 0 .385 0 .549.054l.495.162c.165.054.275.108.44.216.11.054.274.162.329.27l.11-.486h1.374v5.243c0 .433-.055.81-.22 1.19-.164.378-.329.648-.604.918-.275.27-.605.433-.989.595-.385.162-.825.216-1.319.216a4.9 4.9 0 01-.934-.108 2.178 2.178 0 01-.715-.27c-.165-.108-.385-.217-.549-.379a2.978 2.978 0 01-.385-.486c-.11-.162-.165-.325-.22-.54-.055-.217-.11-.38-.11-.541h1.649l.165.324c.055.108.165.162.274.27.11.108.22.108.385.163.165.053.33.053.495.053.274 0 .549-.053.714-.162.165-.108.33-.216.44-.378.11-.162.165-.27.22-.432.055-.163.055-.325.055-.433v-.162c-.22.162-.495.324-.77.432-.275.108-.659.163-1.044.163-.44 0-.824-.054-1.209-.217-.385-.162-.659-.324-.934-.594-.275-.27-.44-.595-.605-.92a3.536 3.536 0 01-.165-1.134zm1.704 0c0 .217.055.433.11.65a.787.787 0 00.33.486c.165.162.274.216.494.324.165.054.385.108.605.108.22 0 .384-.054.604-.108.165-.054.33-.162.495-.324l.33-.487c.055-.216.11-.432.11-.648 0-.216-.055-.433-.11-.649a.787.787 0 00-.33-.486c-.165-.163-.275-.217-.495-.325a2.003 2.003 0 00-.604-.108c-.22 0-.44.054-.605.108a1.298 1.298 0 00-.494.325l-.33.486c-.055.216-.11.432-.11.649zm-72.046-4.864h-1.703v1.676h1.703v-1.676zm9.398 0h-1.704v1.676h1.704v-1.676zm53.8 0h-1.703v1.676h1.703v-1.676z"/></g></svg>