<svg width="32" height="32" fill="none" xmlns="http://www.w3.org/2000/svg"><path d="M29.947 23.986l-1.486-4.46a1.37 1.37 0 00-2.626 0l-1.486 4.46a1.387 1.387 0 00.875 1.75c.142.025.288.025.43 0h1.023v.925h.925v-.925h1.04a1.352 1.352 0 001.371-1.387 1.239 1.239 0 000-.43l-.066.067zm-21.17-.067L7.29 19.462a1.404 1.404 0 00-1.817-.76 1.388 1.388 0 00-.875.892l-1.503 4.459a1.404 1.404 0 00.892 1.75c.142.025.287.025.43 0H5.44v.925h.925v-.925h1.04a1.37 1.37 0 001.37-1.387 1.239 1.239 0 000-.43v-.066zm12.897-13.805a.462.462 0 00-.462-.462h-1.916a.462.462 0 00-.462.462v2.774a.463.463 0 00.462.446h1.85a.462.462 0 00.462-.446l.066-2.774zm0 5.07a.479.479 0 00-.462-.463h-1.916a.479.479 0 00-.462.463v2.774a.462.462 0 00.462.463h1.85a.462.462 0 00.462-.463l.066-2.774zm-3.7-5.07a.446.446 0 00-.462-.462h-1.915a.462.462 0 00-.463.462v2.774a.462.462 0 00.463.446h1.85a.446.446 0 00.462-.446l.066-2.774zm0 5.07a.462.462 0 00-.462-.463h-1.915a.48.48 0 00-.463.463v2.774a.462.462 0 00.463.463h1.85a.447.447 0 00.462-.463l.066-2.774zm-3.698-5.07a.445.445 0 00-.446-.462h-1.916a.446.446 0 00-.462.462v2.774a.447.447 0 00.462.446h1.85a.446.446 0 00.446-.446l.066-2.774zm0 5.07a.462.462 0 00-.446-.463h-1.916a.462.462 0 00-.462.463v2.774a.446.446 0 00.462.463h1.85a.445.445 0 00.446-.463l.066-2.774zm9.247-6.457v18h-3.302v-3.683h.462a.479.479 0 00.462-.462.445.445 0 000-.198 4.855 4.855 0 00-4.607-2.576 4.954 4.954 0 00-4.574 2.576.463.463 0 00.231.61h.661v3.683H9.553V8.793a1.404 1.404 0 011.387-1.387h11.08a1.404 1.404 0 011.388 1.387l.115-.066zm-3.682 3.7h.925v-1.85h-.925v1.85zm0 5.069h.925v-1.85h-.925v1.85zm-3.7-5.07h.926v-1.85h-.925v1.85zm.463 8.257a4.177 4.177 0 00-3.302 1.387h6.605a4.194 4.194 0 00-3.303-1.387zm-.462 2.312h-2.378v3.682h2.295l.083-3.682zm.925 3.682h2.311v-3.682h-2.311v3.682zm-4.608-9.23h.777v-1.85h-.925l.148 1.85zm3.683 0h.925v-1.85h-.925v1.85zm-3.683-5.07h.777v-1.85h-.925l.148 1.85zm9.694-9.71H10.99a.462.462 0 00-.463.462v2.774a.447.447 0 00.463.463h11.08a.462.462 0 00.463-.463V3.178a.479.479 0 00-.463-.462l.083-.05zM6.828 10.972a1.387 1.387 0 00-1.387 1.387v5.268a2.23 2.23 0 01.462 0A2.295 2.295 0 018.1 19.279l.578 1.734v-9.908l-1.85-.132zm23.12 16.612H3.128a.48.48 0 00-.462.463v1.85a.479.479 0 00.462.462h26.785a.463.463 0 00.463-.463v-1.783a.463.463 0 00-.463-.462l.033-.067zm-2.346-15.159v5.268a2.103 2.103 0 00-.462 0 2.262 2.262 0 00-2.18 1.651l-.578 1.734V11.17h1.833a1.371 1.371 0 011.387 1.387" fill="#306261"/></svg>