<svg width="32" height="32" fill="none" xmlns="http://www.w3.org/2000/svg"><path d="M10.44 27.82l-2.428-2.427-2.205 2.205a1.714 1.714 0 002.427 2.411l2.205-2.19zm10.231-2.332L10.344 15.145a9.424 9.424 0 001.38 5.9.555.555 0 010 .62L8.868 24.52l2.428 2.427 2.855-2.855h.634a9.518 9.518 0 005.886 1.38m5.823-16.15a9.519 9.519 0 00-15.864 4.442L22.115 25.25a9.518 9.518 0 006.949-11.486 9.63 9.63 0 00-2.507-4.442M7.267 1.708a3.998 3.998 0 11-.032 7.995 3.998 3.998 0 01.032-7.995z" fill="#306261"/></svg>