<svg width="32" height="32" fill="none" xmlns="http://www.w3.org/2000/svg"><path d="M30.46 14.266a.775.775 0 00-.273-1.048L16.41 5.333 2.645 13.218a.775.775 0 00-.273 1.048.76.76 0 001.048.289L16.409 7.05l13.004 7.505a.76.76 0 001.048-.289z" fill="#306261"/><path d="M18.43 22.576h2.719v1.793h-2.203a.532.532 0 01-.516-.532v-1.261zm0-2.31a.517.517 0 01.516-.516h2.203v1.778h-2.72v-1.261zm6.076-.516a.517.517 0 01.517.517v1.26h-2.841V19.75h2.324zm.517 4.087a.532.532 0 01-.517.532h-2.324v-1.793h2.765l.076 1.26zm-9.617 3.296h12.655a.532.532 0 00.41-.531V15.649a.957.957 0 00-.456-.775l-11.15-6.502a.942.942 0 00-.896 0L4.788 14.828a.957.957 0 00-.456.775v10.999a.532.532 0 00.516.531h4.254a.531.531 0 00.516-.531v-8.63a.532.532 0 01.532-.516h4.132a.517.517 0 01.517.517v8.629a.531.531 0 00.532.531m8.583-21.465h-1.732a.517.517 0 00-.516.516v1.079l2.719 1.519V6.139a.516.516 0 00-.517-.517" fill="#306261"/></svg>