<svg width="32" height="32" fill="none" xmlns="http://www.w3.org/2000/svg"><path d="M12.947 23.28l-.254-.627-2.773-1.04H2.667v8.694h10.28V23.28zM11.56 2.667a2.667 2.667 0 110 5.333 2.667 2.667 0 010-5.333z" fill="#306261"/><path d="M8.64 14.253a.228.228 0 01.387.24l-3.373 5.44c.063.108.135.21.213.307a2.307 2.307 0 001.84.893h2.36l2.907 1.12a.214.214 0 01.133.134l2.947 7.56h1.333l-2.08-8.76a2.666 2.666 0 00-1.226-1.64l-3.454-2a.24.24 0 01-.107-.254l.934-4.76a2.48 2.48 0 00-2.157-3.027A2.44 2.44 0 006.894 10.8a1.654 1.654 0 00-.133.267l-4 10.066h1.586l4.293-6.88zm11.08 4.134l.934 11.573h1.56l-.52-11.573H19.72zm9.4 11.573l.934-11.573H28.08l-.52 11.573h1.56zm-6.453 0h1.986V18.387H22.16l.507 11.573zm2.453-11.573V29.96h1.974l.52-11.573h-2.493zm2.147-2.587a.212.212 0 00-.053.248c.012.027.03.052.053.072a.2.2 0 00.147 0 .215.215 0 00.173-.08 2.32 2.32 0 000-2.88 1.853 1.853 0 010-2.293.24.24 0 000-.334.24.24 0 00-.333 0 2.32 2.32 0 000 2.88 1.867 1.867 0 010 2.307M22.48 10.6a.24.24 0 00-.306 0 2.32 2.32 0 000 2.88 1.8 1.8 0 010 2.293.227.227 0 00.166.387.24.24 0 00.167-.067 2.333 2.333 0 000-2.88 1.813 1.813 0 010-2.293.226.226 0 000-.32m2.56-1.187a.24.24 0 000-.333.24.24 0 00-.334 0 2.32 2.32 0 000 2.867 1.8 1.8 0 010 2.293.227.227 0 000 .32.2.2 0 00.147 0 .212.212 0 00.174-.08 2.334 2.334 0 000-2.88 1.826 1.826 0 010-2.28" fill="#306261"/></svg>