<svg width="32" height="32" fill="none" xmlns="http://www.w3.org/2000/svg"><g clip-path="url(#clip0_120_8959)"><path d="M4.948 21.589L5.72 27.6l-3.73.434V22.04l2.958-.45zm4.822-3.311a.434.434 0 00-.209 0l-4.275 1.157L.8 20.11a1.077 1.077 0 00-.868 1.012v8.037a1.061 1.061 0 001.142 1.013l5.802-.675a1.013 1.013 0 00.788-.547l1.093-2.17h8.567c.2-.001.397-.063.563-.176a948.898 948.898 0 017.265-4.822 1.928 1.928 0 00.434-2.347 1.817 1.817 0 00-2.154-.74l-5.787 2.476h-.434a1.72 1.72 0 00-.321-3.215c-1.848.08-4.79.193-7.105.322H9.77zM19.03 5.66c4.822 0 9.21 4.693 9.788 9.547H9.256c.579-4.822 5.015-9.547 9.789-9.547h-.016zm-1.448-4.1a1.045 1.045 0 00-.916.836c0 .74.418.948.836 1.334A12.955 12.955 0 007.166 15.208H6.09v2.04H32v-2.04h-1.077A12.956 12.956 0 0020.588 3.73c.45-.37.932-.852.82-1.382a1.061 1.061 0 00-.997-.788h-2.829z" fill="#306261"/></g><defs><clipPath id="clip0_120_8959"><path fill="#fff" d="M0 0h32v32H0z"/></clipPath></defs></svg>