<svg width="32" height="32" fill="none" xmlns="http://www.w3.org/2000/svg"><path d="M17.043 12.494a8.213 8.213 0 00-3.64-.907c-4 0-7.347 3.493-8.734 5.187L1.63 13.76a.96.96 0 00-1.333 0 .947.947 0 000 1.334l3.16 3.12-3.187 3.12a.96.96 0 000 1.333.96.96 0 001.334 0l3.04-3.013c1.333 1.693 4.706 5.186 8.733 5.186a8.213 8.213 0 003.64-.906 10.493 10.493 0 010-11.454" fill="#306261"/><path d="M22.563 17.693a18.318 18.318 0 00-4.094-4.213 8.573 8.573 0 000 9.48 18.32 18.32 0 004.094-4.213.907.907 0 000-1.054zM29.363 4a.947.947 0 00-.947.947v18.96a.946.946 0 11-1.893 0v-1.894a.947.947 0 00-1.893 0v1.894a2.84 2.84 0 005.68 0V4.947A.947.947 0 0029.363 4z" fill="#306261"/></svg>