<svg width="32" height="32" fill="none" xmlns="http://www.w3.org/2000/svg"><path d="M23.126 10.67a2.01 2.01 0 010-.412c0-.143 0-.412.1-.611.016-.13.04-.257.07-.384 0-.213.1-.44.157-.653l.085-.298c.104-.313.218-.625.34-.938a9.32 9.32 0 01.398-.824l.17-.298.342-.554.227-.327.37-.51c.084-.1.17-.214.27-.313l.184-.228a8.365 8.365 0 00-.554-.44l-.17-.128a6.432 6.432 0 00-.569-.37 9.46 9.46 0 00-2.84-1.15l-.512-.099-.454-.071h-.64v9.076h2.982a2.361 2.361 0 010-.312m-9.458-5.995l.383.498.214.312c.127.185.241.384.355.568.113.185.113.185.156.284.151.272.289.552.412.838.113.299.213.611.312.923.007.1.007.2 0 .299a5.1 5.1 0 01.17.667v.37c0 .127.072.412.1.61a2.01 2.01 0 000 .412v.313h3.04v-9.09h-.412l-.61.099h-.285l-.767.199h-.085a8.362 8.362 0 00-.838.298l-.256.114-.497.255-.34.185c-.129.085-.27.156-.399.256l-.34.255-.327.242-.384.312-.085.071.199.242.256.312m11.845 13.494l-.383-.512-.213-.312a7.629 7.629 0 01-.355-.568l-.157-.284c-.142-.27-.284-.554-.412-.853a8.166 8.166 0 01-.326-.937 2.36 2.36 0 01-.086-.298c0-.213-.127-.426-.17-.654-.043-.227 0-.255-.071-.383s0-.412-.085-.61a2.86 2.86 0 000-.413v-.312H20.1v9.118h.625a4.1 4.1 0 00.582-.085h.298l.739-.199h.113c.28-.084.555-.184.824-.298l.27-.128c.176-.069.346-.15.511-.241l.341-.185.398-.241a3.16 3.16 0 01.37-.256l.312-.241.383-.313.085-.071-.198-.241-.256-.341m-1.362-6.051a1.618 1.618 0 000 .37c.04.182.069.367.085.553v.327c.034.202.081.401.142.597v.284c.1.27.199.553.312.823.111.278.24.548.384.81l.142.256c.1.17.199.34.312.497l.213.284c.1.156.213.298.327.454l.242.27.17.2a.512.512 0 01.114-.129l.34-.412.242-.312.256-.37.284-.468c.085-.156.113-.185.156-.284.14-.247.263-.504.37-.767.12-.278.225-.562.312-.852a.198.198 0 010-.157c0-.241.128-.468.184-.71a1.683 1.683 0 010-.284c0-.199.071-.398.086-.61v-.626h-4.716c.007.085.007.171 0 .256m1.591-6.065c-.114.17-.213.355-.313.511l-.142.242c-.142.274-.27.544-.383.81a8.53 8.53 0 00-.313.837v.284c-.062.19-.11.385-.142.583a2.81 2.81 0 010 .34c0 .114 0 .37-.085.555-.085.184 0 .241 0 .355v.27h5.028v-.625a2.845 2.845 0 00-.1-.611c.007-.095.007-.19 0-.284 0-.242-.113-.469-.184-.71a.868.868 0 000-.157c-.1-.298-.199-.582-.312-.852-.114-.27-.242-.525-.37-.781l-.17-.27c0-.1-.185-.312-.27-.469l-.27-.369-.454-.256-.355-.412a1.005 1.005 0 01-.1-.127l-.184.198-.228.27c-.127.157-.227.299-.34.455l-.313.213zM14.93 10.726a2.843 2.843 0 000-.355c0-.128 0-.37-.084-.554a2.365 2.365 0 010-.34c0-.2-.1-.399-.157-.597l-.07-.27a8.53 8.53 0 00-.313-.838 12.433 12.433 0 00-.384-.81l-.142-.241c-.1-.17-.198-.355-.312-.512l-.199-.284-.34-.44-.242-.284-.157-.199-.113.128-.355.412-.228.312-.27.37-.27.454-.17.284c-.128.256-.255.511-.369.767-.114.256-.213.568-.313.866a.868.868 0 010 .157c-.071.233-.128.47-.17.71.007.094.007.19 0 .284 0 .199-.071.398-.1.596v.625h5.014a1.218 1.218 0 010-.241" fill="#306261"/><path d="M19.177 28.14a19.43 19.43 0 01-3.394 0l.27-.27 3.139-3.14c.1 1.135.1 2.276 0 3.41h-.015zm-3.82-4.56a.525.525 0 010 .71.51.51 0 01-.725 0l-.355-.355-.724.739a.503.503 0 11-.767-.654l.71-.724-1.42-1.42-.71.724a.497.497 0 01-.71 0 .511.511 0 010-.724l.71-.71-1.42-1.42-.711.695a.512.512 0 11-.724-.724l.724-.71-1.42-1.42-.725.71a.513.513 0 01-.738-.71l.724-.725-.355-.355a.511.511 0 01.162-.82.497.497 0 01.548.11l.355.369.725-.724a.51.51 0 01.724 0 .497.497 0 010 .724l-.724.724 1.42 1.42.724-.724a.511.511 0 01.71 0 .54.54 0 010 .668l-.71.71 1.42 1.42.725-.71a.499.499 0 01.854.355.51.51 0 01-.144.355l-.71.725 1.42 1.42.71-.738a.512.512 0 01.725.724l-.724.71.426.355zM2.9 15.214c-.1-1.124-.1-2.255 0-3.38 1.13-.1 2.265-.1 3.395 0L2.9 15.214zm17.4 10.653v-1.591a3.005 3.005 0 000-.355v-.156a3.555 3.555 0 000-.384v-.099a17.523 17.523 0 00-1.023-3.807v-7.47h-3.295v.44c-.01.205-.033.409-.071.61v.157a6.68 6.68 0 01-.157.738c.005.062.005.123 0 .185 0 0 0 .241-.099.355a6.644 6.644 0 00-.852-.71c0-.27.113-.554.156-.824a.541.541 0 010-.256v-.582a.338.338 0 000-.114h-3.38a19.203 19.203 0 00-9.204-1.122.512.512 0 00-.426.426c0 .341-1.236 8.523 4.076 13.678a14.374 14.374 0 008.31 4.006h4.132c.696 0 1.137-.1 1.222-.114a.496.496 0 00.27-.142.426.426 0 00.142-.284c0-.071.07-.511.113-1.221v-1.25a.355.355 0 000-.242" fill="#306261"/></svg>