<svg width="32" height="32" fill="none" xmlns="http://www.w3.org/2000/svg"><g clip-path="url(#clip0_120_8956)" fill="#306261"><path d="M6.876 6.773a7.814 7.814 0 006.458 0v3.102H6.876V6.773zm14.78 0v3.068h-6.458V6.74a7.933 7.933 0 006.458 0v.034zM5.045 18.74c.288.152.607.233.932.237.325-.008.643-.089.933-.237v-3.39h6.457v3.39c.282.168.606.25.933.237a2.1 2.1 0 00.932-.237v-3.39h6.458v3.39c.295.164.629.246.966.237a2.05 2.05 0 00.899-.203v-3.39h4.135a.932.932 0 00.916-.932V10.79a.915.915 0 00-.916-.915h-4.135V5.112a.898.898 0 00-.509-.813.899.899 0 00-1 .135 5.899 5.899 0 01-7.119 0 .966.966 0 00-1.186 0 5.899 5.899 0 01-7.12 0 .95.95 0 00-1.17 0 5.848 5.848 0 01-6.186.61v1.967a7.695 7.695 0 005.882-.238v3.102H-.837v1.814H26.69v1.864H-.837v1.848h5.882v3.34z"/><path d="M5.977 22.655a6.17 6.17 0 004.153-1.695 6.136 6.136 0 004.17 1.695 6.238 6.238 0 004.17-1.695 6.17 6.17 0 004.152 1.695 6.204 6.204 0 004.17-1.695 6.17 6.17 0 004.153 1.695.95.95 0 00.866-1.291.915.915 0 00-.866-.573 4.66 4.66 0 01-3.39-1.865.967.967 0 00-1.407 0 4.593 4.593 0 01-3.475 1.865 4.66 4.66 0 01-3.474-1.865.969.969 0 00-1.407 0 4.66 4.66 0 01-3.475 1.865 4.526 4.526 0 01-3.39-1.865.965.965 0 00-.73-.339.898.898 0 00-.711.34 4.135 4.135 0 01-6.916 0 .984.984 0 00-1.423 0A5.086 5.086 0 01-.77 20.451v1.915a6.645 6.645 0 002.644-1.542 6.102 6.102 0 004.238 1.83m24.798 2.798a4.747 4.747 0 01-3.474-1.83.965.965 0 00-1.407 0 4.747 4.747 0 01-3.475 1.83 4.746 4.746 0 01-3.39-1.83.968.968 0 00-1.407 0 4.747 4.747 0 01-3.39 1.83 4.542 4.542 0 01-3.39-1.83.982.982 0 00-.729-.34.897.897 0 00-.711.34 4.187 4.187 0 01-6.916 0 .984.984 0 00-1.424 0 5.085 5.085 0 01-1.915 1.525v1.916a6.646 6.646 0 002.644-1.543 5.796 5.796 0 008.322 0 5.797 5.797 0 008.323 0 6.238 6.238 0 004.17 1.695 6.204 6.204 0 004.17-1.695 6.17 6.17 0 004.152 1.695.95.95 0 00.933-.932.813.813 0 00-.865-.898"/></g><defs><clipPath id="clip0_120_8956"><path fill="#fff" d="M0 0h32v32H0z"/></clipPath></defs></svg>