<svg width="32" height="32" fill="none" xmlns="http://www.w3.org/2000/svg"><path d="M27.092 8.311l-9.156 16.026a1.68 1.68 0 01-2.805 0L5.975 8.311A1.68 1.68 0 017.37 5.892h18.312a1.68 1.68 0 011.394.806 1.58 1.58 0 010 1.68l.017-.067zm2.839-3.209a4.938 4.938 0 00-4.267-2.435H7.353a4.905 4.905 0 00-4.267 7.358L12.24 26.05a4.938 4.938 0 008.551 0l9.156-16.026a5.04 5.04 0 000-4.923" fill="#306261"/><path d="M9.67 7.017a2.2 2.2 0 11-.033 4.402 2.2 2.2 0 01.034-4.402zm6.603 0a2.2 2.2 0 110 4.401 2.2 2.2 0 010-4.4zm0 11.004a2.2 2.2 0 110 4.402 2.2 2.2 0 010-4.401zm-3.31-5.511a2.2 2.2 0 11-2.2 2.201 2.217 2.217 0 012.2-2.2zm6.62 0a2.2 2.2 0 110 4.401 2.2 2.2 0 010-4.4zm3.309-5.493a2.2 2.2 0 110 4.401 2.2 2.2 0 010-4.4z" fill="#306261"/></svg>